<!-- Generator: Adobe Illustrator 18.0.0, SVG Export Plug-In  -->
<svg version="1.1"
	 xmlns="http://www.w3.org/2000/svg" xmlns:xlink="http://www.w3.org/1999/xlink" xmlns:a="http://ns.adobe.com/AdobeSVGViewerExtensions/3.0/"
	 x="0px" y="0px" width="1535.6px" height="284px" viewBox="0 0 1535.6 284" enable-background="new 0 0 1535.6 284"
	 xml:space="preserve">
<defs>
</defs>
<g>
	<g>
		<path fill="#3D2626" d="M289.8,284h18V138.6c0-5.5-3.5-9.9-9-9.9c-5.5,0-9,4.4-9,9.9V284z"/>
		<ellipse id="XMLID_64_" fill="#327E3E" cx="298.5" cy="96.3" rx="66.5" ry="96.3"/>
	</g>
	<g>
		<path fill="#3D2626" d="M771.8,284h18V138.6c0-5.5-3.5-9.9-9-9.9s-9,4.4-9,9.9V284z"/>
		<ellipse id="XMLID_61_" fill="#327E3E" cx="780.7" cy="96.3" rx="66.5" ry="96.3"/>
	</g>
	<g>
		<path fill="#3D2626" d="M1459.8,284h19V138.6c0-5.5-4-9.9-9.5-9.9s-9.5,4.4-9.5,9.9V284z"/>
		<ellipse id="XMLID_58_" fill="#327E3E" cx="1469.1" cy="96.3" rx="66.5" ry="96.3"/>
	</g>
	<g>
		<g id="XMLID_55_">
			<path fill="#5B3939" d="M1364.8,284h14v-99.6c0-3.7-3.3-6.8-7-6.8s-7,3-7,6.8V284z"/>
		</g>
		<circle id="XMLID_54_" fill="#327E3E" cx="1373" cy="173.3" r="49"/>
	</g>
	<g>
		<path fill="#3D2626" d="M1297.8,284h18V138.6c0-5.5-3.5-9.9-9-9.9s-9,4.4-9,9.9V284z"/>
		<ellipse id="XMLID_51_" fill="#42A047" cx="1306.5" cy="96.3" rx="66.5" ry="96.3"/>
	</g>
	<g>
		<path fill="#3D2626" d="M933.8,284h18V138.6c0-5.5-3.5-9.9-9-9.9s-9,4.4-9,9.9V284z"/>
		<ellipse id="XMLID_48_" fill="#327E3E" cx="942.4" cy="96.3" rx="66.5" ry="96.3"/>
	</g>
	<g>
		<path fill="#3D2626" d="M55.8,284h22V139.9c0-5.5-5.5-9.9-11-9.9s-11,4.4-11,9.9V284z"/>
		<ellipse id="XMLID_43_" fill="#327E3E" cx="66.5" cy="97.6" rx="66.5" ry="96.3"/>
	</g>
	<g>
		<g id="XMLID_37_">
			<path fill="#5B3939" d="M186.8,284h19V138.3c0-5.5-4-9.9-9.5-9.9c-5.5,0-9.5,4.4-9.5,9.9V284z"/>
		</g>
		<circle id="XMLID_36_" fill="#42A047" cx="197.4" cy="122.1" r="71.6"/>
	</g>
	<g>
		<g id="XMLID_31_">
			<path fill="#5B3939" d="M724.8,284h18V138.3c0-5.5-3.5-9.9-9-9.9c-5.5,0-9,4.4-9,9.9V284z"/>
		</g>
		<circle id="XMLID_30_" fill="#42A047" cx="734.6" cy="122.1" r="71.6"/>
	</g>
	<g>
		<g id="XMLID_25_">
			<path fill="#5B3939" d="M532.8,284h22V107.6c0-6.6-4.4-12-11-12c-6.6,0-11,5.4-11,12V284z"/>
		</g>
		<circle id="XMLID_24_" fill="#42A047" cx="544.6" cy="87.9" r="86.7"/>
	</g>
	<g>
		<g id="XMLID_19_">
			<path fill="#5B3939" d="M1031.8,284h18V138.3c0-5.5-3.5-9.9-9-9.9c-5.5,0-9,4.4-9,9.9V284z"/>
		</g>
		<circle id="XMLID_17_" fill="#42A047" cx="1041.7" cy="122.1" r="71.6"/>
	</g>
	<g>
		<g id="XMLID_13_">
			<path fill="#5B3939" d="M128.8,284h15v-99.6c0-3.7-3.8-6.8-7.5-6.8s-7.5,3-7.5,6.8V284z"/>
		</g>
		<circle id="XMLID_12_" fill="#42A047" cx="137.3" cy="173.3" r="49"/>
	</g>
	<g>
		<g id="XMLID_4_">
			<path fill="#5B3939" d="M1104.8,284h15v-99.6c0-3.7-3.8-6.8-7.5-6.8s-7.5,3-7.5,6.8V284z"/>
		</g>
		<circle id="XMLID_3_" fill="#42A047" cx="1113.3" cy="173.3" r="49"/>
	</g>
</g>
</svg>
