<!-- Generator: Adobe Illustrator 18.0.0, SVG Export Plug-In  -->
<svg version="1.1"
	 xmlns="http://www.w3.org/2000/svg" xmlns:xlink="http://www.w3.org/1999/xlink" xmlns:a="http://ns.adobe.com/AdobeSVGViewerExtensions/3.0/"
	 x="0px" y="0px" width="295px" height="144px" viewBox="0 0 295 144" enable-background="new 0 0 295 144" xml:space="preserve">
<defs>
</defs>
<g>
	<rect id="XMLID_69_" x="6" y="94.1" fill="#800D15" width="5.8" height="13.4"/>
	<rect id="XMLID_67_" x="37.2" y="74.3" width="67.4" height="44.6"/>
	<path id="XMLID_66_" fill="#FFFFFF" d="M183,8H11v111h32.6c0-1-0.1-1.2-0.1-1.8c0-14.9,12.1-26.9,26.9-26.9s26.9,12.1,26.9,27
		c0,0.6,0,0.8-0.1,1.8H183V8z"/>
	<rect id="XMLID_64_" x="213.9" y="74.3" width="61.6" height="44.6"/>
	<path id="XMLID_63_" fill="#FFFFFF" d="M218.3,119c1-14,12.4-24.4,26.4-24.4c11.8,0,21.7,7.4,25.2,18.4H288V77.4
		c0-9.3-8.7-12.3-8.7-12.3l-21-4.5L240.4,8H183v111H218.3z"/>
	<path id="XMLID_62_" fill="#A8E0FB" d="M237.1,53.9L222.5,12H187v45.6c0,1.7,1,3.4,2.6,3.4h42.5C235.7,61,238.3,57.4,237.1,53.9z"
		/>
	<path id="XMLID_60_" fill="#CCCCCC" d="M203.6,69.7c0-1.2-1.1-2.2-2.5-2.2h-9c-1.4,0-2.5,1-2.5,2.2l0,0c0,1.2,1.1,2.2,2.5,2.2h9
		C202.5,71.9,203.6,70.9,203.6,69.7L203.6,69.7z"/>
	<path id="XMLID_59_" fill="#FFFFFF" d="M240.5,8H11V3.9C11,1.6,13.3,0,15.6,0h213.3C228.9,0,237,1,240.5,8z"/>
	<circle id="XMLID_58_" fill="#1A1A1A" cx="70.5" cy="120.7" r="23.3"/>
	<circle id="XMLID_57_" fill="#808080" cx="70.5" cy="120.7" r="15.6"/>
	<circle id="XMLID_55_" fill="#CCCCCC" cx="70.5" cy="120.7" r="13.7"/>
	<circle id="XMLID_53_" fill="#F2F2F2" cx="70.5" cy="120.7" r="8.5"/>
	<g id="XMLID_34_">
		<g id="XMLID_50_">
			<circle id="XMLID_52_" fill="#808080" cx="70.5" cy="110" r="1.2"/>
			<circle id="XMLID_51_" fill="#808080" cx="70.5" cy="131.3" r="1.2"/>
		</g>
		<g id="XMLID_47_">
			<circle id="XMLID_49_" fill="#808080" cx="65.1" cy="111.5" r="1.2"/>
			<circle id="XMLID_48_" fill="#808080" cx="75.8" cy="129.9" r="1.2"/>
		</g>
		<g id="XMLID_44_">
			<circle id="XMLID_46_" fill="#808080" cx="61.3" cy="115.4" r="1.2"/>
			<circle id="XMLID_45_" fill="#808080" cx="79.7" cy="126" r="1.2"/>
		</g>
		<g id="XMLID_41_">
			<circle id="XMLID_43_" fill="#808080" cx="59.8" cy="120.7" r="1.2"/>
			<circle id="XMLID_42_" fill="#808080" cx="81.1" cy="120.7" r="1.2"/>
		</g>
		<g id="XMLID_38_">
			<circle id="XMLID_40_" fill="#808080" cx="61.3" cy="126" r="1.2"/>
			<circle id="XMLID_39_" fill="#808080" cx="79.7" cy="115.4" r="1.2"/>
		</g>
		<g id="XMLID_35_">
			<circle id="XMLID_37_" fill="#808080" cx="65.1" cy="129.9" r="1.2"/>
			<circle id="XMLID_36_" fill="#808080" cx="75.8" cy="111.5" r="1.2"/>
		</g>
	</g>
	<circle id="XMLID_33_" fill="#1A1A1A" cx="244.7" cy="120.7" r="23.3"/>
	<circle id="XMLID_32_" fill="#808080" cx="244.7" cy="120.7" r="15.6"/>
	<circle id="XMLID_30_" fill="#CCCCCC" cx="244.7" cy="120.7" r="13.7"/>
	<circle id="XMLID_28_" fill="#F2F2F2" cx="244.7" cy="120.7" r="8.5"/>
	<g id="XMLID_9_">
		<g id="XMLID_25_">
			<circle id="XMLID_27_" fill="#808080" cx="244.7" cy="110" r="1.2"/>
			<circle id="XMLID_26_" fill="#808080" cx="244.7" cy="131.3" r="1.2"/>
		</g>
		<g id="XMLID_22_">
			<circle id="XMLID_24_" fill="#808080" cx="239.4" cy="111.5" r="1.2"/>
			<circle id="XMLID_23_" fill="#808080" cx="250" cy="129.9" r="1.2"/>
		</g>
		<g id="XMLID_19_">
			<circle id="XMLID_21_" fill="#808080" cx="235.5" cy="115.4" r="1.2"/>
			<circle id="XMLID_20_" fill="#808080" cx="253.9" cy="126" r="1.2"/>
		</g>
		<g id="XMLID_16_">
			<circle id="XMLID_18_" fill="#808080" cx="234.1" cy="120.7" r="1.2"/>
			<circle id="XMLID_17_" fill="#808080" cx="255.3" cy="120.7" r="1.2"/>
		</g>
		<g id="XMLID_13_">
			<circle id="XMLID_15_" fill="#808080" cx="235.5" cy="126" r="1.2"/>
			<circle id="XMLID_14_" fill="#808080" cx="253.9" cy="115.4" r="1.2"/>
		</g>
		<g id="XMLID_10_">
			<circle id="XMLID_12_" fill="#808080" cx="239.4" cy="129.9" r="1.2"/>
			<circle id="XMLID_11_" fill="#808080" cx="250" cy="111.5" r="1.2"/>
		</g>
	</g>
	<line id="XMLID_8_" fill="none" stroke="#D4DCE3" stroke-miterlimit="10" x1="183.5" y1="119" x2="183.5" y2="8"/>
	<g>
		<path id="XMLID_7_" fill="#D4DCE3" d="M70.5,88.4c-17.8,0-32.3,14.3-32.3,32.1c0,0.6,0,1.5,0,1.5h5.4c0,0-0.1-0.9-0.1-1.5
			c0-14.9,12.1-26.8,26.9-26.8c14.9,0,26.9,11.9,26.9,26.8c0,0.6,0,1.6-0.1,1.6h5.4c0,0,0-0.9,0-1.5
			C102.7,102.6,88.3,88.4,70.5,88.4z"/>
		<path id="XMLID_6_" fill="#D4DCE3" d="M244.7,88c-17.9,0-32.5,14.5-32.5,32.4c0,0.6,0,1.6,0,1.6h6c0,0-0.1-0.9-0.1-1.5
			c0-14.6,11.8-26.6,26.5-26.6c11.8,0,21.7,8.1,25.2,18.1h6.3C272.5,99,259.8,88,244.7,88z"/>
		<path id="XMLID_5_" fill="#D4DCE3" d="M44,112H2c-0.9,0-2,0.3-2,1.1v6.6c0,1.5,1.6,2.3,3,2.3h41V112z"/>
		<rect id="XMLID_4_" x="97" y="112" fill="#D4DCE3" width="121" height="10"/>
		<path id="XMLID_3_" fill="#D4DCE3" d="M295,107c0-1.3-0.8-2-1.8-2h-21.7c-1,0-1.5,0.8-1.5,2v10.5c0,2.7,2,4.5,4.7,4.5h14.2
			c3.3,0,6.1-2.3,6.1-5.7V107z"/>
	</g>
	<polyline fill="none" stroke="#D4DCE3" stroke-miterlimit="10" points="225.9,8.1 244.5,60.5 244.5,90 	"/>
	<path id="XMLID_2_" fill="#A8E0FB" d="M240.4,8l9.7,28.6l8.3,24.3h-3.9c-3.1,0-5.8-2.1-6.9-5L230.3,8.2L240.4,8z"/>
	<polyline id="XMLID_1_" fill="none" stroke="#D4DCE3" stroke-miterlimit="10" points="240,8.5 119,8.5 11,8.5 	"/>
</g>
</svg>
