<!-- Generator: Adobe Illustrator 18.0.0, SVG Export Plug-In  -->
<svg version="1.1"
	 xmlns="http://www.w3.org/2000/svg" xmlns:xlink="http://www.w3.org/1999/xlink" xmlns:a="http://ns.adobe.com/AdobeSVGViewerExtensions/3.0/"
	 x="0px" y="0px" width="305px" height="278.7px" viewBox="0 0 305 278.7" enable-background="new 0 0 305 278.7"
	 xml:space="preserve">
<defs>
</defs>
<g>
	<path opacity="0.33" fill="#333333" d="M305,269.7c0,10.8-68.3,8.9-152.5,8.9S0,280.5,0,269.7s68.3-60.1,152.5-60.1
		S305,259,305,269.7z"/>
	<g>
		<g>
			<path fill="#1A1A1A" d="M63.5,254.7c0,5.2-4.2,9.4-9.4,9.4H24.9c-5.2,0-9.4-4.2-9.4-9.4v-38.2c0-5.2,4.2-9.4,9.4-9.4h29.2
				c5.2,0,9.4,4.2,9.4,9.4V254.7z"/>
			<path fill="#1A1A1A" d="M289.5,254.7c0,5.2-4.2,9.4-9.4,9.4h-29.2c-5.2,0-9.4-4.2-9.4-9.4v-38.2c0-5.2,4.2-9.4,9.4-9.4h29.2
				c5.2,0,9.4,4.2,9.4,9.4V254.7z"/>
			<g>
				
					<line fill="#FF931E" stroke="#1A1A1A" stroke-width="2" stroke-linecap="round" stroke-miterlimit="10" x1="22.5" y1="263.1" x2="22.5" y2="209.1"/>
				
					<line fill="#FF931E" stroke="#1A1A1A" stroke-width="2" stroke-linecap="round" stroke-miterlimit="10" x1="28.5" y1="263.1" x2="28.5" y2="209.1"/>
				
					<line fill="#FF931E" stroke="#1A1A1A" stroke-width="2" stroke-linecap="round" stroke-miterlimit="10" x1="34.5" y1="263.1" x2="34.5" y2="209.1"/>
				
					<line fill="#FF931E" stroke="#1A1A1A" stroke-width="2" stroke-linecap="round" stroke-miterlimit="10" x1="39.5" y1="263.1" x2="39.5" y2="209.1"/>
				
					<line fill="#FF931E" stroke="#1A1A1A" stroke-width="2" stroke-linecap="round" stroke-miterlimit="10" x1="45.5" y1="263.1" x2="45.5" y2="209.1"/>
				
					<line fill="#FF931E" stroke="#1A1A1A" stroke-width="2" stroke-linecap="round" stroke-miterlimit="10" x1="50.5" y1="263.1" x2="50.5" y2="209.1"/>
				
					<line fill="#FF931E" stroke="#1A1A1A" stroke-width="2" stroke-linecap="round" stroke-miterlimit="10" x1="56.5" y1="263.1" x2="56.5" y2="209.1"/>
			</g>
			<g>
				
					<line fill="#FF931E" stroke="#1A1A1A" stroke-width="2" stroke-linecap="round" stroke-miterlimit="10" x1="249.5" y1="263.1" x2="249.5" y2="209.1"/>
				
					<line fill="#FF931E" stroke="#1A1A1A" stroke-width="2" stroke-linecap="round" stroke-miterlimit="10" x1="254.5" y1="263.1" x2="254.5" y2="209.1"/>
				
					<line fill="#FF931E" stroke="#1A1A1A" stroke-width="2" stroke-linecap="round" stroke-miterlimit="10" x1="260.5" y1="263.1" x2="260.5" y2="209.1"/>
				
					<line fill="#FF931E" stroke="#1A1A1A" stroke-width="2" stroke-linecap="round" stroke-miterlimit="10" x1="265.5" y1="263.1" x2="265.5" y2="209.1"/>
				
					<line fill="#FF931E" stroke="#1A1A1A" stroke-width="2" stroke-linecap="round" stroke-miterlimit="10" x1="271.5" y1="263.1" x2="271.5" y2="209.1"/>
				
					<line fill="#FF931E" stroke="#1A1A1A" stroke-width="2" stroke-linecap="round" stroke-miterlimit="10" x1="276.5" y1="263.1" x2="276.5" y2="209.1"/>
				
					<line fill="#FF931E" stroke="#1A1A1A" stroke-width="2" stroke-linecap="round" stroke-miterlimit="10" x1="282.5" y1="263.1" x2="282.5" y2="209.1"/>
			</g>
		</g>
		<g>
			<g>
				
					<line fill="none" stroke="#000000" stroke-width="2" stroke-linecap="round" stroke-miterlimit="10" x1="22.5" y1="263.1" x2="22.5" y2="209.1"/>
				
					<line fill="none" stroke="#000000" stroke-width="2" stroke-linecap="round" stroke-miterlimit="10" x1="28.5" y1="263.1" x2="28.5" y2="209.1"/>
				
					<line fill="none" stroke="#000000" stroke-width="2" stroke-linecap="round" stroke-miterlimit="10" x1="34.5" y1="263.1" x2="34.5" y2="209.1"/>
				
					<line fill="none" stroke="#000000" stroke-width="2" stroke-linecap="round" stroke-miterlimit="10" x1="39.5" y1="263.1" x2="39.5" y2="209.1"/>
				
					<line fill="none" stroke="#000000" stroke-width="2" stroke-linecap="round" stroke-miterlimit="10" x1="45.5" y1="263.1" x2="45.5" y2="209.1"/>
				
					<line fill="none" stroke="#000000" stroke-width="2" stroke-linecap="round" stroke-miterlimit="10" x1="50.5" y1="263.1" x2="50.5" y2="209.1"/>
				
					<line fill="none" stroke="#000000" stroke-width="2" stroke-linecap="round" stroke-miterlimit="10" x1="56.5" y1="263.1" x2="56.5" y2="209.1"/>
			</g>
			<g>
				
					<line fill="none" stroke="#000000" stroke-width="2" stroke-linecap="round" stroke-miterlimit="10" x1="249.5" y1="263.1" x2="249.5" y2="209.1"/>
				
					<line fill="none" stroke="#000000" stroke-width="2" stroke-linecap="round" stroke-miterlimit="10" x1="254.5" y1="263.1" x2="254.5" y2="209.1"/>
				
					<line fill="none" stroke="#000000" stroke-width="2" stroke-linecap="round" stroke-miterlimit="10" x1="260.5" y1="263.1" x2="260.5" y2="209.1"/>
				
					<line fill="none" stroke="#000000" stroke-width="2" stroke-linecap="round" stroke-miterlimit="10" x1="265.5" y1="263.1" x2="265.5" y2="209.1"/>
				
					<line fill="none" stroke="#000000" stroke-width="2" stroke-linecap="round" stroke-miterlimit="10" x1="271.5" y1="263.1" x2="271.5" y2="209.1"/>
				
					<line fill="none" stroke="#000000" stroke-width="2" stroke-linecap="round" stroke-miterlimit="10" x1="276.5" y1="263.1" x2="276.5" y2="209.1"/>
				
					<line fill="none" stroke="#000000" stroke-width="2" stroke-linecap="round" stroke-miterlimit="10" x1="282.5" y1="263.1" x2="282.5" y2="209.1"/>
			</g>
		</g>
	</g>
	<g>
		<path fill="#C69C6D" d="M251.1,45.4c-2.9-12.3-10.4-34.2-32.1-39.1S170.8,0,152.5,0C134.2,0,107.7,1.2,86,6.2
			c-21.7,5-29.1,26.8-32.1,39.1c-3.6,15.1-10.7,61.2-10.7,61.2l109.3,91l109.3-91C261.8,106.6,254.7,60.5,251.1,45.4z M203.9,71
			c-18.9-3.2-51.4-2.9-51.4-2.9S120,67.8,101.1,71c-3.9,0.7-7.3-2.6-6.9-6.5L96,48.7c0,0,1.8-18.2,17.6-23.2
			c15.8-5,38.9-4.5,38.9-4.5s23.1-0.5,38.9,4.5c15.8,5,17.6,23.2,17.6,23.2l1.8,15.8C211.2,68.4,207.8,71.7,203.9,71z"/>
		<g>
			<path fill="#1A1A1A" d="M246.9,141.1h-80.7l3.1-69.1c1-6.4,6.7-10.9,13.4-10.9h47.8c6.6,0,12.4,4.4,13.4,10.9L246.9,141.1z"/>
			<path fill="#1A1A1A" d="M219.1,67.1h-25c-5.2,0-9.4-4.5-9.1-9.7l1.3-28.3c0.5-3.5,3.7-6,7.3-6h26.1c3.6,0,6.8,2.5,7.3,6l1.3,28.4
				C228.4,62.7,224.3,67.1,219.1,67.1z"/>
			<path fill="#4D4D4D" d="M223.5,65.1h-33.8c-10.1,0-18.2,8.4-18.2,18.6v42.4h70V83.6C241.5,73.5,233.6,65.1,223.5,65.1z"/>
			<path fill="#4D4D4D" d="M190.9,34.8c-4.9,6.5-5.2,18.3,1.6,22.2l3.5-13.2L190.9,34.8z"/>
			<path fill="#4D4D4D" d="M222.3,34.8c4.9,6.5,5.2,18.3-1.6,22.2l-3.5-13.2L222.3,34.8z"/>
			<circle fill="#333333" cx="206.6" cy="73.1" r="9.8"/>
			<path fill="#4D4D4D" d="M206.6,30.1L206.6,30.1c-8.5,0-15.1,7.7-15.1,16.6v15.7c0,6.8,4.8,11.7,11.3,11.7h7.2
				c6.5,0,12.5-4.9,12.5-11.7V46.5C222.5,37.7,215,30.1,206.6,30.1z"/>
			<g>
				<path fill="#1A1A1A" d="M206.6,109.9c-12.2,0-22-9.9-22-22s9.9-22,22-22c12.2,0,22,9.9,22,22S218.7,109.9,206.6,109.9z
					 M206.6,70.2c-9.8,0-17.7,7.9-17.7,17.7c0,9.8,7.9,17.7,17.7,17.7c9.8,0,17.7-7.9,17.7-17.7C224.3,78.1,216.3,70.2,206.6,70.2z"
					/>
			</g>
			<ellipse fill="#FFC8AB" cx="224.2" cy="88.9" rx="9.1" ry="8"/>
			<ellipse fill="#FFC8AB" cx="189" cy="88.9" rx="9.1" ry="8"/>
			<path fill="#4D4D4D" d="M203.2,29.7c0,0-17.6-7.3-11.9,13.9c0,0,5.4-1.7,9.1-6.6c4.5,3.3,13.5,8.5,20.3,3.7
				C230.1,34,220.1,19.8,203.2,29.7z"/>
		</g>
		<g>
			<path fill="#1A1A1A" d="M139.3,141.1H58.6l3.1-69.1c1-6.4,6.7-10.9,13.4-10.9h47.8c6.6,0,12.4,4.4,13.4,10.9L139.3,141.1z"/>
			<path fill="#1A1A1A" d="M111.4,67.1h-25c-5.2,0-9.4-4.5-9.1-9.7l1.3-28.3c0.5-3.5,3.7-6,7.3-6H112c3.6,0,6.8,2.5,7.3,6l1.3,28.4
				C120.8,62.7,116.6,67.1,111.4,67.1z"/>
		</g>
	</g>
	<g>
		<g>
			<g>
				<g>
					<path fill="#FFFFFF" d="M11.9,94.5l14.6,3c3.5,0.7,6.9-1.5,7.6-5l1-4.7c0.7-3.5-1.5-6.9-5-7.6l-14.6-3c-3.5-0.7-6.9,1.5-7.6,5
						l-1,4.7C6.2,90.4,8.4,93.8,11.9,94.5z"/>
					<circle fill="#CCCCCC" cx="22.7" cy="88" r="3.6"/>
					
						<rect x="30.5" y="82.3" transform="matrix(0.3298 -0.9441 0.9441 0.3298 -65.3255 91.409)" fill="#CCCCCC" width="2.5" height="18.9"/>
					<g>
						<path fill="#CCCCCC" d="M44.5,97.5c0,0.7-0.6,1.3-1.3,1.3h-3c-0.7,0-1.3-0.6-1.3-1.3v-4.7c0-0.7,0.6-1.3,1.3-1.3h3
							c0.7,0,1.3,0.6,1.3,1.3V97.5z"/>
						<rect x="42" y="92.2" fill="#CCCCCC" width="5.5" height="6"/>
					</g>
				</g>
				<g>
					<path fill="#FFFFFF" d="M293.2,94.5l-14.6,3c-3.5,0.7-6.9-1.5-7.6-5l-1-4.7c-0.7-3.5,1.5-6.9,5-7.6l14.6-3
						c3.5-0.7,6.9,1.5,7.6,5l1,4.7C298.9,90.4,296.6,93.8,293.2,94.5z"/>
					<circle fill="#CCCCCC" cx="282.3" cy="88" r="3.6"/>
					
						<rect x="272.1" y="82.3" transform="matrix(-0.3298 -0.944 0.944 -0.3298 276.8515 379.9638)" fill="#CCCCCC" width="2.5" height="18.9"/>
					<g>
						<path fill="#CCCCCC" d="M260.5,97.5c0,0.7,0.6,1.3,1.3,1.3h3c0.7,0,1.3-0.6,1.3-1.3v-4.7c0-0.7-0.6-1.3-1.3-1.3h-3
							c-0.7,0-1.3,0.6-1.3,1.3V97.5z"/>
						<rect x="257.5" y="92.2" fill="#CCCCCC" width="5.5" height="6"/>
					</g>
				</g>
			</g>
			<path fill="#F7323F" d="M251.1,45.4c-2.9-12.3-10.4-34.2-32.1-39.1S170.8,0,152.5,0C134.2,0,107.7,1.2,86,6.2
				c-21.7,5-29.1,26.8-32.1,39.1c-3.6,15.1-10.7,61.2-10.7,61.2l109.3,91l109.3-91C261.8,106.6,254.7,60.5,251.1,45.4z M238,87.5
				c-31.5-5.4-85.5-4.8-85.5-4.8s-54-0.6-85.5,4.8c-6.5,1.1-12.2-4.3-11.4-10.8l2.9-26.3c0,0,3.1-30.3,29.3-38.6
				c26.2-8.2,64.7-7.4,64.7-7.4s38.5-0.8,64.7,7.4c26.2,8.2,29.3,38.6,29.3,38.6l2.9,26.3C250.2,83.3,244.5,88.6,238,87.5z"/>
			<g opacity="0.5">
				
					<path fill="#9A1F27" stroke="#D82C37" stroke-width="1.5115" stroke-linecap="round" stroke-linejoin="round" stroke-miterlimit="10" d="
					M246.5,50.5c0,0-3.1-30.3-29.3-38.6c-26.2-8.2-64.7-7.4-64.7-7.4S114,3.7,87.8,11.9c-26.2,8.2-29.3,38.6-29.3,38.6l-2.9,26.3
					c-0.7,6.5,5,11.9,11.4,10.8c31.5-5.4,85.5-4.8,85.5-4.8s54-0.6,85.5,4.8c6.5,1.1,12.2-4.3,11.4-10.8L246.5,50.5z"/>
				<path fill="#72D0EB" d="M243.5,50.2c0,0-3-27.8-28.3-35.3c-25.4-7.5-62.6-6.8-62.6-6.8s-37.3-0.8-62.6,6.8
					c-25.4,7.5-28.3,35.3-28.3,35.3l-2.7,23c-0.8,6.5,4.9,11.9,11.3,10.8c30.5-4.9,82.4-4.4,82.4-4.4s51.8-0.5,82.4,4.4
					c6.5,1,12.1-4.4,11.3-10.8L243.5,50.2z"/>
				<path opacity="0.5" fill="#FFFFFF" d="M125,11.6c-11,0.8-23.4,2.4-33.5,5.4c-24.1,7-26.9,33-26.9,33l-2.2,18
					c-0.2,1.9,0.1,3.8,0.8,5.3L125,11.6z"/>
				<path opacity="0.5" fill="#FFFFFF" d="M66.2,76.9C88,55,109.9,33.1,131.8,11.2c-1.4,0.1-2.9,0.2-4.4,0.3
					c-21.1,21.1-42.2,42.2-63.3,63.3C64.7,75.6,65.4,76.3,66.2,76.9z"/>
				<path opacity="0.5" fill="#FFFFFF" d="M220.4,21.7c-2.8-1.9-6.2-3.5-10-4.7c-8.5-2.5-18.1-4-27.1-4.9
					c-13.2,13.2-26.4,26.4-39.6,39.6C182.6,36.5,220.4,21.7,220.4,21.7z"/>
				<path opacity="0.5" fill="#FFFFFF" d="M176.1,11.5c-2.8-0.2-5.6-0.4-8.1-0.5c-17.1,17.1-34.2,34.2-51.3,51.3
					c4.6-1.8,9.3-3.6,14-5.5C145.9,41.7,161,26.6,176.1,11.5z"/>
				<path opacity="0.5" fill="#FFFFFF" d="M160.4,10.8c-4.9-0.1-7.9,0-7.9,0s-1.3,0-3.5,0c-21.3,21.3-42.7,42.7-64,64
					c5.6-2.2,12-4.7,18.8-7.4L160.4,10.8z"/>
				<path opacity="0.5" fill="#FFFFFF" d="M72.9,79c22.7-22.7,45.4-45.4,68.1-68.1c-2.1,0.1-4.4,0.1-6.8,0.2L67.5,77.8
					C69.1,78.7,71,79.1,72.9,79z"/>
			</g>
			<g>
				<path fill="#F7323F" d="M110.2,218.8H90.5c0,0-45.3,0.5-55-2.1c-9.7-2.7-23.7-2.7-26.1-18c-2.4-15.4-5-34.2-2.6-50.9
					c2.4-16.7,9.5-31.6,17.1-35.8c7.6-4.2,32.7-17.8,63.1,2.4c30.4,20.2,47.4,23.3,47.4,23.3h18v81.2L110.2,218.8z"/>
				<path fill="#B9262F" d="M44.5,104.4c0.1,0.1,0.1,0.3,0.2,0.4l70.4,113.9l2.1,0l-68.1-115C47.6,103.9,46,104.1,44.5,104.4z"/>
				<path fill="#F7323F" d="M194.8,218.8h19.7c0,0,45.3,0.5,55-2.1c9.7-2.7,23.7-2.7,26.1-18c2.4-15.4,5-34.2,2.6-50.9
					c-2.4-16.7-9.5-31.6-17.1-35.8c-7.6-4.2-32.7-17.8-63.1,2.4c-30.4,20.2-47.4,23.3-47.4,23.3h-18v81.2L194.8,218.8z"/>
				<path fill="#B9262F" d="M260.5,104.4c-0.1,0.1-0.1,0.3-0.2,0.4l-70.4,113.9l-2.1,0l68.1-115C257.4,103.9,259,104.1,260.5,104.4z
					"/>
			</g>
			<path fill="#D82C37" d="M258.3,101c-0.6-1.2-1.7-2.2-3.1-2.5c-1.4-0.3-34-8.4-54.5-9.6c-20.1-1.2-37.8-1.9-40.4-1.9h-15.8
				c-2.5,0-20.3,0.6-40.4,1.9c-20.5,1.2-53.1,9.3-54.5,9.6c-1.4,0.3-2.5,1.3-3.1,2.5c-0.6,1.2-0.5,2.7,0.3,3.8l72.1,116.7
				c0.8,1.3,2.3,2.2,4,2.2H182c1.6,0,3.2-0.8,4-2.2L258,104.8C258.8,103.7,258.9,102.2,258.3,101z"/>
			<path fill="#B9262F" d="M152.5,211.3L152.5,211.3c-0.9,0-1.6-0.8-1.6-1.7V86.9c0-0.9,0.7-1.7,1.6-1.7l0,0c0.9,0,1.6,0.8,1.6,1.7
				v122.7C154.1,210.6,153.4,211.3,152.5,211.3z"/>
			<path fill="#CCCCCC" d="M286.1,227.8H18.9c-5.5,0-10-4.5-10-10v-1c0-5.5,4.5-10,10-10h267.2c5.5,0,10,4.5,10,10v1
				C296.1,223.2,291.6,227.8,286.1,227.8z"/>
			<g>
				<g>
					<circle fill="#CCCCCC" cx="39.1" cy="172.4" r="20.1"/>
					<circle fill="#E5E5E5" cx="39.1" cy="172.4" r="17.1"/>
					<linearGradient id="SVGID_1_" gradientUnits="userSpaceOnUse" x1="30.0708" y1="166.5215" x2="48.1134" y2="184.5641">
						<stop  offset="0" style="stop-color:#B3B3B3"/>
						<stop  offset="0.4861" style="stop-color:#CCE0F4"/>
						<stop  offset="0.5555" style="stop-color:#C7D9EB"/>
						<stop  offset="0.671" style="stop-color:#B8C5D1"/>
						<stop  offset="0.8173" style="stop-color:#A1A5A8"/>
						<stop  offset="0.8652" style="stop-color:#999999"/>
						<stop  offset="0.9944" style="stop-color:#808080"/>
					</linearGradient>
					<path opacity="0.5" fill="url(#SVGID_1_)" d="M54,172.4c0,8.3-6.7,14.9-14.9,14.9c-8.3,0-14.9-6.7-14.9-14.9H54z"/>
					<g>
						<g>
							<g>
								<path fill="#FFFFFF" d="M31.2,164.1c5.1,0,10.2,0,15.3,0c1.5,0,1.5-2.3,0-2.3c-5.1,0-10.2,0-15.3,0
									C29.8,161.8,29.8,164.1,31.2,164.1L31.2,164.1z"/>
							</g>
						</g>
						<g>
							<g>
								<path fill="#FFFFFF" d="M29.2,168.8c6.6,0,13.2,0,19.8,0c1.5,0,1.5-2.3,0-2.3c-6.6,0-13.2,0-19.8,0
									C27.7,166.6,27.7,168.8,29.2,168.8L29.2,168.8z"/>
							</g>
						</g>
						<g>
							<g>
								<path fill="#FFFFFF" d="M27.7,173.6c7.6,0,15.2,0,22.8,0c1.5,0,1.5-2.3,0-2.3c-7.6,0-15.2,0-22.8,0
									C26.2,171.3,26.2,173.6,27.7,173.6L27.7,173.6z"/>
							</g>
						</g>
						<g>
							<g>
								<path fill="#FFFFFF" d="M29.2,178.3c6.6,0,13.2,0,19.8,0c1.5,0,1.5-2.3,0-2.3c-6.6,0-13.2,0-19.8,0
									C27.7,176.1,27.7,178.3,29.2,178.3L29.2,178.3z"/>
							</g>
						</g>
						<g>
							<g>
								<path fill="#FFFFFF" d="M31.2,183.1c5.1,0,10.2,0,15.3,0c1.5,0,1.5-2.3,0-2.3c-5.1,0-10.2,0-15.3,0
									C29.8,180.8,29.8,183.1,31.2,183.1L31.2,183.1z"/>
							</g>
						</g>
					</g>
					<linearGradient id="SVGID_2_" gradientUnits="userSpaceOnUse" x1="22.4207" y1="155.7757" x2="55.7635" y2="189.1186">
						<stop  offset="0" style="stop-color:#B3B3B3"/>
						<stop  offset="0.4861" style="stop-color:#CCE0F4"/>
						<stop  offset="0.5555" style="stop-color:#C7D9EB"/>
						<stop  offset="0.671" style="stop-color:#B8C5D1"/>
						<stop  offset="0.8173" style="stop-color:#A1A5A8"/>
						<stop  offset="0.8652" style="stop-color:#999999"/>
						<stop  offset="0.9944" style="stop-color:#808080"/>
					</linearGradient>
					<circle opacity="0.5" fill="url(#SVGID_2_)" cx="39.1" cy="172.4" r="23.6"/>
				</g>
			</g>
			<g>
				<g>
					<circle fill="#CCCCCC" cx="265.9" cy="172.4" r="20.1"/>
					<circle fill="#E5E5E5" cx="265.9" cy="172.4" r="17.1"/>
					<linearGradient id="SVGID_3_" gradientUnits="userSpaceOnUse" x1="256.8975" y1="166.5215" x2="274.9401" y2="184.5641">
						<stop  offset="0" style="stop-color:#B3B3B3"/>
						<stop  offset="0.4861" style="stop-color:#CCE0F4"/>
						<stop  offset="0.5555" style="stop-color:#C7D9EB"/>
						<stop  offset="0.671" style="stop-color:#B8C5D1"/>
						<stop  offset="0.8173" style="stop-color:#A1A5A8"/>
						<stop  offset="0.8652" style="stop-color:#999999"/>
						<stop  offset="0.9944" style="stop-color:#808080"/>
					</linearGradient>
					<path opacity="0.5" fill="url(#SVGID_3_)" d="M280.9,172.4c0,8.3-6.7,14.9-14.9,14.9c-8.3,0-14.9-6.7-14.9-14.9H280.9z"/>
					<g>
						<g>
							<g>
								<g>
									<path fill="#FFFFFF" d="M258.1,164.1c5.1,0,10.2,0,15.3,0c1.5,0,1.5-2.3,0-2.3c-5.1,0-10.2,0-15.3,0
										C256.6,161.8,256.6,164.1,258.1,164.1L258.1,164.1z"/>
								</g>
							</g>
							<g>
								<g>
									<path fill="#FFFFFF" d="M256,168.8c6.6,0,13.2,0,19.8,0c1.5,0,1.5-2.3,0-2.3c-6.6,0-13.2,0-19.8,0
										C254.6,166.6,254.6,168.8,256,168.8L256,168.8z"/>
								</g>
							</g>
							<g>
								<g>
									<path fill="#FFFFFF" d="M254.5,173.6c7.6,0,15.2,0,22.8,0c1.5,0,1.5-2.3,0-2.3c-7.6,0-15.2,0-22.8,0
										C253,171.3,253,173.6,254.5,173.6L254.5,173.6z"/>
								</g>
							</g>
							<g>
								<g>
									<path fill="#FFFFFF" d="M256,178.3c6.6,0,13.2,0,19.8,0c1.5,0,1.5-2.3,0-2.3c-6.6,0-13.2,0-19.8,0
										C254.6,176.1,254.6,178.3,256,178.3L256,178.3z"/>
								</g>
							</g>
							<g>
								<g>
									<path fill="#FFFFFF" d="M258.1,183.1c5.1,0,10.2,0,15.3,0c1.5,0,1.5-2.3,0-2.3c-5.1,0-10.2,0-15.3,0
										C256.6,180.8,256.6,183.1,258.1,183.1L258.1,183.1z"/>
								</g>
							</g>
						</g>
					</g>
					<linearGradient id="SVGID_4_" gradientUnits="userSpaceOnUse" x1="249.2473" y1="155.7757" x2="282.5903" y2="189.1187">
						<stop  offset="0" style="stop-color:#B3B3B3"/>
						<stop  offset="0.4861" style="stop-color:#CCE0F4"/>
						<stop  offset="0.5555" style="stop-color:#C7D9EB"/>
						<stop  offset="0.671" style="stop-color:#B8C5D1"/>
						<stop  offset="0.8173" style="stop-color:#A1A5A8"/>
						<stop  offset="0.8652" style="stop-color:#999999"/>
						<stop  offset="0.9944" style="stop-color:#808080"/>
					</linearGradient>
					<circle opacity="0.5" fill="url(#SVGID_4_)" cx="265.9" cy="172.4" r="23.6"/>
				</g>
			</g>
		</g>
		<g>
			<path fill="#CCCCCC" d="M23.1,138.1h-2.5c-1.6,0-2.9-1.3-2.9-2.9v-3.7c0-2.3,1.8-4.1,4.1-4.1h0c2.3,0,4.1,1.8,4.1,4.1v3.7
				C26,136.8,24.7,138.1,23.1,138.1z"/>
			<path fill="#FF931E" d="M22.4,139.1h-0.9c-1.6,0-2.9-1.3-2.9-2.9v-2.7c0-1.9,1.6-3.4,3.5-3.4h0.1c1.9,0,3.4,1.5,3.4,3.4v2.7
				C25.5,137.8,24,139.1,22.4,139.1z"/>
		</g>
		<path fill="#CCCCCC" d="M285.1,138.1h-3.9c-1.2,0-2.2-1-2.2-2.2v-4.5c0-2.3,1.8-4.1,4.1-4.1l0,0c2.3,0,4.1,1.8,4.1,4.1v4.5
			C287.2,137.2,286.2,138.1,285.1,138.1z"/>
		<path fill="#FF931E" d="M283.6,139.1h-0.9c-1.6,0-3.1-1.5-3.1-3.1v-2.7c0-1.9,1.6-3.2,3.5-3.2h-0.1c1.9,0,3.6,1.3,3.6,3.2v2.7
			C286.5,137.6,285.2,139.1,283.6,139.1z"/>
		
			<line fill="none" stroke="#CCCCCC" stroke-width="5" stroke-linecap="round" stroke-linejoin="round" stroke-miterlimit="10" x1="152" y1="145.1" x2="152" y2="175.1"/>
		<g>
			
				<polyline fill="none" stroke="#1A1A1A" stroke-width="3.023" stroke-linecap="round" stroke-linejoin="round" stroke-miterlimit="10" points="
				127.1,83.3 190.9,74.4 153.2,81.5 142.9,81.1 			"/>
			<circle fill="#1A1A1A" cx="126.4" cy="83.4" r="3.5"/>
		</g>
		<g>
			
				<polyline fill="none" stroke="#1A1A1A" stroke-width="3.023" stroke-linecap="round" stroke-linejoin="round" stroke-miterlimit="10" points="
				180.3,83.3 244.2,74.4 206.4,81.5 196.1,81.1 			"/>
			<circle fill="#1A1A1A" cx="179.6" cy="83.4" r="3.5"/>
		</g>
	</g>
</g>
</svg>
