<!-- Generator: Adobe Illustrator 18.0.0, SVG Export Plug-In  -->
<svg version="1.1"
	 xmlns="http://www.w3.org/2000/svg" xmlns:xlink="http://www.w3.org/1999/xlink" xmlns:a="http://ns.adobe.com/AdobeSVGViewerExtensions/3.0/"
	 x="0px" y="0px" width="242.2px" height="96.2px" viewBox="0 0 242.2 96.2" enable-background="new 0 0 242.2 96.2"
	 xml:space="preserve">
<defs>
</defs>
<g>
	<g>
		<path fill="#1A1A1A" d="M116.2,43.4l-9.2,1.8l-3.9-20c-0.5-2.5,1.2-5,3.7-5.5l0,0c2.5-0.5,5,1.2,5.5,3.7L116.2,43.4z"/>
		<path fill="#1A1A1A" d="M112.2,18.8c0,1.9-1.6,3.5-3.5,3.5l0,0c-1.9,0-3.5-1.6-3.5-3.5v-7c0-1.9,1.6-3.5,3.5-3.5l0,0
			c1.9,0,3.5,1.6,3.5,3.5V18.8z"/>
		<path fill="#4D4D4D" d="M117,24.7c-0.6-0.2-4.5-5.9-2.2-8.9c0,0-1.5-3.6,3.8-3.6s7.9,2.3,9.3,9.2s-4,7.8-6.9,8.1s1.4,7.2,1.4,7.2
			l-9.5,1.1L117,24.7z"/>
	</g>
	<path fill="#F7323F" d="M26.9,33.7c0,0-6.6,2.4-7.8,5.1c-0.9,2.1,3.1,3,3.1,3L26.9,33.7z"/>
	
		<path opacity="0.5" fill="#9A1F27" stroke="#D82C37" stroke-width="1.5115" stroke-linecap="round" stroke-linejoin="round" stroke-miterlimit="10" d="
		M97.9,32.2H67.2h-4.5c0,0-5.9-0.3-5.9-4c0-7.6,8.6-12.2,14.7-14.4c6.7-2.5,14.7-4.9,21.9-4.9c2.8,0,7.4-0.4,7.4,2.1
		c0,2.5,0,17.7,0,17.7S101,32.2,97.9,32.2z"/>
	
		<path opacity="0.5" fill="#9A1F27" stroke="#D82C37" stroke-width="1.5115" stroke-linecap="round" stroke-linejoin="round" stroke-miterlimit="10" d="
		M121.6,32.2h-11.3c0,0-3.6-0.3-3.6-2.9c0-2.6,0-17,0-17s-0.2-3.4,3.1-3.4c3.3,0,19.6,0.2,25.4,1.1c5.8,0.9,12.5,2.5,16.2,8.8
		c3.7,6.3,7.9,13.4,1.5,13.4C146.4,32.2,121.6,32.2,121.6,32.2z"/>
	<g opacity="0.5">
		<path fill="#72D0EB" d="M36.5,27.3c-0.1,0-0.2,0-0.2,0l-0.4-0.4c6-5.2,11.7-9.4,17.1-12.9c-5.1,4.7-11.3,9.9-13.8,12
			C37.8,27.2,36.9,27.3,36.5,27.3C36.5,27.3,36.5,27.3,36.5,27.3z"/>
		<path fill="#0098CE" d="M59.7,8.8c-9.4,5-18.1,11.8-25.2,18l1.3,1.3c0,0,0.3,0.2,0.8,0.2c0.7,0,1.7-0.3,3.3-1.6
			C42.2,24.7,54.6,14.3,59.7,8.8L59.7,8.8z"/>
	</g>
	<g>
		<path fill="#D82C37" d="M222,43.1c-8.4-8.1-27-13.7-41.1-15.3c-14.1-1.6-13.9-1.9-22-11.9c-8.2-10-17.1-13.3-20.1-14.3
			c-3-1-45.3-3.7-63.9,1.1C69.7,4.1,64.5,6.3,59.5,9c-5.1,5.5-17.3,15.8-19.7,17.8c-2.9,2.4-4.1,1.4-4.1,1.4l-1.2-1.2
			c-2.5,2.1-4.7,4.2-6.8,6C16.7,43,11.9,55.7,10.9,60.2c-1,4.4-5.9,13.6-5.2,15.1c0.7,1.5,2.5,2,2.5,2h6.6c9.9,0,14.4-25.6,35-25.6
			c20.7,0,22.8,24.6,23.3,27c0.5,2.4,2.5,2.6,2.5,2.6h46.2c0,0,50.5,0,54.1,0c3.6,0,5.4-7.4,6.4-13c1-5.7,8.9-18.1,22.5-18.1
			c13.6,0,18.7,10.7,21.4,16.9c2.7,6.2,1.8,8.3,1.8,8.3h4.4C236.5,75.3,230.4,51.2,222,43.1z M97.9,32.3H62.8c0,0-5.9-0.4-5.9-4.1
			c0-7.6,8.6-12.2,14.7-14.4c6.7-2.5,14.9-4.9,22.1-4.9c2.8,0,7.5-0.4,7.5,2.1c0,2.5,0,17.7,0,17.7S101,32.3,97.9,32.3z M152.9,32.3
			c-6.4,0-31.3,0-31.3,0h-11.3c0,0-3.1-0.4-3.1-3.1c0-2.6,0-17,0-17s-0.5-3.4,2.8-3.4c3.3,0,19.4,0.2,25.2,1.1s12.4,2.6,16.2,8.9
			C155.2,25.2,159.3,32.3,152.9,32.3z"/>
		<rect x="17.6" y="49.3" width="210.7" height="24"/>
		<path fill="#D12031" d="M15,77.3c9.9,0,14.4-25.6,35-25.6c20.7,0,22.8,24.4,23.3,26.8c0.5,2.4,2.5,2.4,2.5,2.4H122
			c0,0,50.5,0,54.1,0c3.6,0,5.4-7.2,6.4-12.9c1-5.7,8.9-18,22.5-18c13.6,0,18.4,10.6,21.1,16.8c2.7,6.2,2.1,8.2,2.1,8.2h4.4
			c2.9,0,0.8-11.7-3.6-21.5c-8.1-4.8-20.6-11.9-27.5-14.5c-10.7-4-36.8-3.7-36.8-3.7s-73.5,0-93.8,0c-20.3,0-32.9,8.1-38,12.4
			c-4,3.4-15.4,21.6-20.2,29.5H15z"/>
		<path fill="#B9262F" d="M147.3,10.3c-6.2-4-19.5-4.7-41.8-4.7C82.2,5.5,71.8,9.3,56,18.3c-16,9.1-30.2,32.4-30.3,32.6l0,0.1
			l-3.2,21.2c0.3-0.4,0.6-0.8,0.9-1.2l3-19.8c0.8-1.4,14.6-23.5,30-32.3c15.7-8.9,26-12.6,49.1-12.6c21.6,0,35.4,0.8,41.4,4.6
			c5.9,3.8,14.2,16.6,15.7,20.1c1.6,3.7,1.5,10.2,1.5,10.3V81c0.2,0,0.5,0,0.7,0V41.3c0-0.3,0.1-6.8-1.5-10.6
			C161.7,27.1,153.4,14.1,147.3,10.3z"/>
		<path fill="none" stroke="#B9262F" stroke-width="2" stroke-miterlimit="10" d="M170.5,26.1c0,0-6.1,8.7,4.5,9.4
			c12.5,0.8,23.8,0.3,48.9,11.8"/>
		<path opacity="0.5" fill="#72D0EB" d="M96.3,30.9H68.6h-4c0,0-5.3-0.3-5.3-3.6c0-6.8,7.8-10.9,13.3-12.8
			c6.1-2.2,13.3-4.3,19.8-4.3c2.5,0,6.7-0.4,6.7,1.9c0,2.3,0,15.8,0,15.8S99.1,30.9,96.3,30.9z"/>
		<path opacity="0.5" fill="#72D0EB" d="M122.3,30.7h-10.4c0,0-3.3-0.2-3.3-2.5c0-2.3,0-14.9,0-14.9s-0.2-3,2.9-3
			c3.1,0,18.1,0.2,23.5,1c5.4,0.8,11.6,2.2,15,7.7c3.4,5.5,7.3,11.7,1.4,11.7C145.3,30.7,122.3,30.7,122.3,30.7z"/>
		<rect x="103.9" y="6.3" fill="#B9262F" width="0.5" height="70.9"/>
		<path fill="#CCCCCC" d="M122,81c0,0,31.9,0,46.8,0c0-0.1,0-0.2-0.1-0.3l-1.9-4.6c-0.1-0.3-0.4-0.5-0.7-0.5H80.3
			c-0.3,0-0.6,0.2-0.7,0.5l-1.9,4.6c0,0.1-0.1,0.2-0.1,0.3H122z"/>
		<path fill="#FFFFFF" d="M230.4,57.5C230.4,57.5,230.4,57.5,230.4,57.5c0.8,0,1.4-2.5,1.4-5.5c0-3-0.6-5.5-1.4-5.5c0,0,0,0,0,0
			l-8.8-0.6V52v6.2L230.4,57.5z"/>
		<g>
			<path fill="#CCCCCC" d="M200.7,41.5c0,0,5.2-4.7,6-1.7c0.6,2.2-0.6,2.1-0.6,2.1L200.7,41.5z"/>
			<path fill="#FF931E" d="M206.5,41.7h0.2c-0.3,0-0.4-0.3-0.4-0.6v-1.4c0-0.3,0.1-0.6,0.4-0.6h-0.1c0.4,0,0.7,0.4,0.7,0.8v1
				C207.2,41.3,206.9,41.7,206.5,41.7z"/>
		</g>
		<path fill="#F7323F" d="M204.8,50.1c13.6,0,18.7,10.6,21.4,16.8C228.9,73,228,75,228,75h4.4c3.6,0-0.8-18.9-7.7-28.8
			c-11.7-6-23-4.8-23-4.8C183.5,41.4,175,54,171,61.1c-2.8,4.9-4.5,14.5-5.3,19.9c5.3,0,9.2,0,10.1,0c3.6,0,5.4-7.2,6.4-12.9
			C183.3,62.4,191.2,50.1,204.8,50.1z"/>
		<g>
			<circle fill="#1A1A1A" cx="204" cy="75.2" r="21"/>
			<circle fill="#E8E2DD" cx="204" cy="75.2" r="16.6"/>
			<circle fill="#F7323F" cx="204" cy="75.2" r="13.3"/>
			<circle fill="#CCCCCC" cx="204" cy="75.2" r="10"/>
			<circle fill="#F2F2F2" cx="204" cy="75.2" r="7"/>
			<circle fill="#E8E2DD" cx="204" cy="75.2" r="2.9"/>
			<circle fill="#CCCCCC" cx="204" cy="75.2" r="1.7"/>
		</g>
		<g>
			<circle fill="#1A1A1A" cx="49.5" cy="75.2" r="21"/>
			<circle fill="#E8E2DD" cx="49.5" cy="75.2" r="16.6"/>
			<circle fill="#F7323F" cx="49.5" cy="75.2" r="13.3"/>
			<circle fill="#CCCCCC" cx="49.5" cy="75.2" r="10"/>
			<circle fill="#F2F2F2" cx="49.5" cy="75.2" r="7"/>
			<circle fill="#E8E2DD" cx="49.5" cy="75.2" r="2.9"/>
			<circle fill="#CCCCCC" cx="49.5" cy="75.2" r="1.7"/>
		</g>
		<path fill="#800D15" d="M16.2,47.2C16.2,47.2,16.2,47.2,16.2,47.2c-1,0-1.7,2.5-1.7,5.6c0,3.1,0.8,5.6,1.7,5.6c0,0,0,0,0,0
			L26.9,59v-6.2v-6.2L16.2,47.2z"/>
		<path fill="#F7323F" d="M75,56c-5.1-6.7-12.9-15.6-28.4-15.6c-15.5,0-21,4.5-25.1,9.8c-4.1,5.4-6.7,12.7-9.7,14.3
			c-0.6,0.3-1.6,0.7-2.8,1.1c-1.7,4.1-3.7,8.6-3.2,9.6c0.7,1.5,2.5,2,2.5,2h6.6c9.9,0,14.4-25.6,35-25.6c20.7,0,22.8,24.4,23.3,26.8
			c0.5,2.4,2.5,2.4,2.5,2.4h5C80.3,76.3,79.3,61.7,75,56z"/>
		<path fill="#CCCCCC" d="M238.7,70.2h-8.9c-2,0-3.5,1.6-3.5,3.5v0c0,2,1.6,3.5,3.5,3.5h8.9c1.4,0,2.5-1.1,2.5-2.5v-2
			C241.2,71.3,240,70.2,238.7,70.2z"/>
		<path fill="#CCCCCC" d="M11.7,77.3H1.3c-0.7,0-1.3-0.6-1.3-1.3v-5.2c0-0.7,0.6-1.3,1.3-1.3h10.4c2.2,0,4,1.8,4,4v0
			C15.7,75.5,13.9,77.3,11.7,77.3z"/>
		<g>
			<ellipse fill="#B9262F" cx="116.3" cy="43.9" rx="6" ry="4.1"/>
			<path fill="#FFFFFF" d="M119.2,44.7c0,0.3-0.3,0.6-0.6,0.6h-10.8c-0.3,0-0.6-0.3-0.6-0.6v-1.8c0-0.3,0.3-0.6,0.6-0.6h10.8
				c0.3,0,0.6,0.3,0.6,0.6V44.7z"/>
		</g>
		<path opacity="0.5" fill="#FFFFFF" d="M62.3,30l36.2-17.8c-0.8-1.4-4.1-1.1-6.3-1.1c-6.2,0-13.1,2-18.9,4.1
			c-5.2,1.9-12.7,5.8-12.7,12.3C60.6,28.7,61.4,29.5,62.3,30z"/>
		<path opacity="0.5" fill="#FFFFFF" d="M109.2,27.5c0,1.1,1.1,1.7,1.9,2l31.2-15.3c-2.7-1.3-5.6-1.9-8.4-2.3
			c-5-0.7-19-0.9-21.8-0.9c-2.8,0-2.9,2.7-2.9,2.7S109.2,25.4,109.2,27.5z"/>
	</g>
	<rect x="241.2" y="66.3" fill="#FF931E" width="1" height="14"/>
	<rect x="7.2" y="55.3" fill="#FF931E" width="1" height="14"/>
	<g>
		<circle fill="#CCCCCC" cx="157.8" cy="26.7" r="2"/>
		<path fill="#FFFFFF" d="M157.6,32L157.6,32c-0.4,0-0.7-0.3-0.8-0.7l-0.7-9.2c0-0.4,0.3-0.7,0.7-0.8l0,0c0.8-0.1,1.5,0.5,1.5,1.3
			l0.6,7.7C159,31.3,158.4,32,157.6,32z"/>
	</g>
</g>
</svg>
