<!-- Generator: Adobe Illustrator 18.0.0, SVG Export Plug-In  -->
<svg version="1.1"
	 xmlns="http://www.w3.org/2000/svg" xmlns:xlink="http://www.w3.org/1999/xlink" xmlns:a="http://ns.adobe.com/AdobeSVGViewerExtensions/3.0/"
	 x="0px" y="0px" width="826.2px" height="328.9px" viewBox="0 0 826.2 328.9" enable-background="new 0 0 826.2 328.9"
	 xml:space="preserve">
<defs>
</defs>
<g>
	<g>
		<path fill="#1A1A1A" d="M396.6,148.2l-31.5,6.2l-13.4-68.4c-1.7-8.7,4-17.1,12.7-18.8l0,0c8.7-1.7,17.1,4,18.8,12.7L396.6,148.2z"
			/>
		<path fill="#1A1A1A" d="M384.2,65.4c0,6.9-5.6,12.5-12.5,12.5l0,0c-6.9,0-12.5-5.6-12.5-12.5v-23c0-6.9,5.6-12.5,12.5-12.5l0,0
			c6.9,0,12.5,5.6,12.5,12.5V65.4z"/>
		<path fill="#4D4D4D" d="M399.4,84.5c-2-0.6-15.5-20-7.5-30.3c0,0-5-12.3,13-12.3s26.8,8,31.7,31.3c4.8,23.2-13.5,26.6-23.6,27.7
			c-10.1,1.1,4.7,24.4,4.7,24.4l-32.4,3.6L399.4,84.5z"/>
	</g>
	<path opacity="0.33" fill="#333333" d="M817.4,328.9H9.1c-3.4,0-5-4.2-2.6-6.6l0.4-0.5c16-15.9,37.7-24.9,60.3-24.9h692.1
		c22.8,0,44.9,9.1,60.9,25.3v0.2C822.2,324.7,820.8,328.9,817.4,328.9z"/>
	<path fill="#F7323F" d="M91.7,115.2c0,0-22.6,8.1-26.6,17.3c-3.1,7.2,10.7,10.1,10.7,10.1L91.7,115.2z"/>
	
		<path opacity="0.5" fill="#9A1F27" stroke="#D82C37" stroke-width="1.5115" stroke-linecap="round" stroke-linejoin="round" stroke-miterlimit="10" d="
		M334.1,109.8H229.5h-15.2c0,0-20-1.1-20-13.8c0-26.1,29.5-41.6,50.2-49.1c23-8.4,50.2-16.6,74.9-16.6c9.6,0,25.4-1.4,25.4,7.2
		c0,8.6,0,60.3,0,60.3S344.8,109.8,334.1,109.8z"/>
	
		<path opacity="0.5" fill="#9A1F27" stroke="#D82C37" stroke-width="1.5115" stroke-linecap="round" stroke-linejoin="round" stroke-miterlimit="10" d="
		M415,109.8h-38.5c0,0-12.3-0.9-12.3-9.9c0-9,0-58.1,0-58.1s-0.8-11.6,10.6-11.6c11.4,0,66.8,0.8,86.7,3.8s42.7,8.6,55.4,30.1
		c12.7,21.5,27.1,45.6,5.1,45.6C500,109.8,415,109.8,415,109.8z"/>
	<g opacity="0.5">
		<path fill="#72D0EB" d="M124.7,95.8c-1.3,0-2-0.4-2.1-0.5l-3.5-3.6c28.7-24.7,54.7-43.6,79.4-57.4c-17.9,18-51.7,46.8-63.1,56.3
			C130.1,94.9,126.7,95.8,124.7,95.8C124.7,95.8,124.7,95.8,124.7,95.8z"/>
		<path fill="#0098CE" d="M192.1,39.1C173.5,57,145,81.2,134.7,89.8c-5.2,4.3-8.5,5-10,5c-0.9,0-1.3-0.2-1.5-0.3l-2.7-2.7
			C146.1,69.7,169.7,52.3,192.1,39.1 M203.7,30.3c-32.2,17.2-61.9,40.4-86.2,61.4l4.3,4.4c0,0,0.9,0.7,2.8,0.7c2.3,0,6-1,11.3-5.5
			C144.2,84.5,186.4,48.9,203.7,30.3L203.7,30.3z"/>
	</g>
	<g>
		<path fill="#D82C37" d="M757.9,146.7c-28.7-27.6-92.2-46.4-140.3-52c-48.2-5.6-47.3-6.4-75.2-40.4C514.5,20.2,484,9,473.9,5.6
			C463.7,2.2,319.2-6.9,255.7,9.5c-17.9,4.6-35.5,12.1-52.5,21.2c-17.5,18.7-59.2,53.9-67.3,60.6c-9.9,8.2-14.1,4.7-14.1,4.7
			l-4.1-4.2c-8.4,7.2-16.1,14.2-23.1,20.6c-37.6,34.5-54.1,77.9-57.5,93c-3.4,15.1-20.3,46.5-17.8,51.6c2.5,5.2,8.5,6.9,8.5,6.9
			h22.4c33.8,0,49-87.4,119.6-87.4c70.6,0,77.8,83.6,79.5,91.8c1.7,8.2,8.5,8.6,8.5,8.6h157.7c0,0,172.5,0,184.7,0
			s18.6-24.8,22-44.1c3.4-19.4,30.4-61.7,76.9-61.7c46.5,0,63.7,36,73,57.1c9.3,21.1,6.3,27.8,6.3,27.8h15
			C807.4,255.9,786.7,174.3,757.9,146.7z M334.1,109.9H214.3c0,0-20-1.2-20.1-13.8c0-26.1,29.5-41.6,50.2-49.2
			c23-8.4,50-16.6,74.7-16.6c9.6,0,25.1-1.4,25.1,7.2c0,8.6,0,60.3,0,60.3S344.8,109.9,334.1,109.9z M522,109.9c-22,0-107,0-107,0
			h-38.5c0,0-12.3-1-12.3-10c0-9,0-58.1,0-58.1s-0.8-11.6,10.6-11.6c11.4,0,66.8,0.8,86.6,3.8s42.7,8.7,55.4,30.2
			C529.6,85.8,544,109.9,522,109.9z"/>
		<rect x="59.9" y="168.4" width="719.2" height="81.9"/>
		<path fill="#D12031" d="M51.1,264c33.8,0,49-87.4,119.6-87.4c70.6,0,77.8,83.4,79.5,91.6c1.7,8.2,8.5,8.3,8.5,8.3h157.7
			c0,0,172.5,0,184.7,0s18.6-24.5,22-43.9S653.5,171,700,171s62.9,36.2,72.2,57.3c9.3,21.1,7.1,28,7.1,28h15
			c9.7,0,2.6-39.9-12.4-73.3c-27.6-16.3-70.5-40.7-94-49.6c-36.6-13.8-125.7-12.6-125.7-12.6s-250.8,0-320.1,0
			c-69.3,0-112.2,27.6-129.6,42.5C98.8,174.9,59.9,237,43.4,264H51.1z"/>
		<path fill="#B9262F" d="M502.9,35.1C481.6,21.5,436.3,19,360.2,19c-79.5,0-114.9,12.8-168.9,43.4C136.7,93.4,88.2,173,87.7,173.8
			l-0.1,0.2l-11,72.5c1.1-1.3,2.1-2.6,3.2-4L90,174.9c2.9-4.7,49.9-80.4,102.6-110.2c53.5-30.4,88.7-43.1,167.6-43.1
			c73.9,0,120.7,2.6,141.4,15.7c20.3,12.9,48.4,56.5,53.6,68.7c5.3,12.5,5,34.8,5,35.1v135.4c0.9,0,1.7,0,2.5,0V141.1
			c0-0.9,0.4-23.1-5.2-36.1C552.2,92.6,523.6,48.3,502.9,35.1z"/>
		<path fill="none" stroke="#B9262F" stroke-width="2" stroke-miterlimit="10" d="M582.2,89.1c0,0-21,29.8,15.5,32.2
			c42.5,2.8,81.1,0.9,166.9,40.2"/>
		<path opacity="0.5" fill="#72D0EB" d="M328.8,105.6h-94.4h-13.7c0,0-18.1-1-18.1-12.3c0-23.3,26.7-37.1,45.3-43.9
			c20.8-7.5,45.4-14.8,67.7-14.8c8.7,0,22.9-1.3,22.9,6.4c0,7.7,0,53.8,0,53.8S338.4,105.6,328.8,105.6z"/>
		<path opacity="0.5" fill="#72D0EB" d="M417.6,104.9H382c0,0-11.3-0.8-11.3-8.7c0-7.9,0-50.9,0-50.9s-0.8-10.1,9.8-10.1
			c10.6,0,61.7,0.7,80.1,3.3c18.4,2.6,39.5,7.5,51.2,26.4c11.7,18.9,25,40,4.7,40S417.6,104.9,417.6,104.9z"/>
		<rect x="354.8" y="21.6" fill="#B9262F" width="1.7" height="242.1"/>
		<path fill="#CCCCCC" d="M416.4,276.5c0,0,108.8,0,159.7,0c0-0.3,0-0.7-0.2-1l-6.3-15.6c-0.4-1-1.3-1.6-2.3-1.6H274
			c-1,0-2,0.6-2.3,1.6l-6.3,15.6c-0.1,0.3-0.2,0.7-0.2,1H416.4z"/>
		<path fill="#FFFFFF" d="M786.6,196.4C786.6,196.4,786.7,196.4,786.6,196.4c2.7,0,4.9-8.4,4.9-18.8c0-10.4-2.1-18.8-4.8-18.8
			c0,0-0.1,0-0.1,0l-29.9-2.2v21v21L786.6,196.4z"/>
		<g>
			<path fill="#CCCCCC" d="M685,141.7c0,0,17.9-15.9,20.4-5.9c1.9,7.6-2,7.2-2,7.2L685,141.7z"/>
			<path fill="#FF931E" d="M704.8,142.3h0.2c-1.1,0-1.8-0.9-1.8-2v-4.9c0-1.1,0.8-2,1.9-2h-0.3c1.5,0,2.4,1.2,2.4,2.7v3.5
				C707.2,141.1,706.2,142.3,704.8,142.3z"/>
		</g>
		<path fill="#F7323F" d="M699.2,171c46.5,0,63.7,36.2,73,57.3c9.3,21.1,6.3,28,6.3,28h15c12.4,0-2.6-64.7-26.3-98.4
			c-40.1-20.4-78.4-16.5-78.4-16.5c-62.4,0-91.3,43.1-104.8,67.2c-9.4,16.8-15.4,49.5-18.2,67.9c18.1,0,31.4,0,34.5,0
			c12.3,0,18.6-24.5,22-43.9C625.6,213.2,652.7,171,699.2,171z"/>
		<g>
			<circle fill="#1A1A1A" cx="696.5" cy="256.8" r="71.8"/>
			<circle fill="#E8E2DD" cx="696.5" cy="256.8" r="56.7"/>
			<circle fill="#F7323F" cx="696.5" cy="256.8" r="45.5"/>
			<circle fill="#CCCCCC" cx="696.5" cy="256.8" r="34.1"/>
			<circle fill="#F2F2F2" cx="696.5" cy="256.8" r="24"/>
			<circle fill="#E8E2DD" cx="696.5" cy="256.8" r="10"/>
			<circle fill="#CCCCCC" cx="696.5" cy="256.8" r="5.7"/>
		</g>
		<g>
			<circle fill="#1A1A1A" cx="169" cy="256.8" r="71.8"/>
			<circle fill="#E8E2DD" cx="169" cy="256.8" r="56.7"/>
			<circle fill="#F7323F" cx="169" cy="256.8" r="45.5"/>
			<circle fill="#CCCCCC" cx="169" cy="256.8" r="34.1"/>
			<circle fill="#F2F2F2" cx="169" cy="256.8" r="24"/>
			<circle fill="#E8E2DD" cx="169" cy="256.8" r="10"/>
			<circle fill="#CCCCCC" cx="169" cy="256.8" r="5.7"/>
		</g>
		<path fill="#800D15" d="M55.4,161.3c0,0-0.1,0-0.1,0c-3.2,0-5.8,8.5-5.8,19c0,10.5,2.6,19,5.8,19c0,0,0.1,0,0.1,0l36.3,2.2v-21.2
			V159L55.4,161.3z"/>
		<path fill="#F7323F" d="M256.1,191.4c-17.5-23-44-53.1-96.9-53.1c-53,0-71.6,15.2-85.7,33.6c-14.1,18.4-23,43.3-33.3,48.8
			c-2.2,1.2-5.6,2.5-9.5,3.8c-5.8,14.1-12.7,29.2-11.1,32.7c2.5,5.2,8.5,6.9,8.5,6.9h22.4c33.8,0,49-87.4,119.6-87.4
			c70.6,0,77.8,83.4,79.5,91.6c1.7,8.2,8.5,8.3,8.5,8.3h17C274.3,260.5,270.7,210.5,256.1,191.4z"/>
		<path fill="#CCCCCC" d="M814.9,239.6h-30.3c-6.7,0-12.1,5.4-12.1,12.1v0c0,6.7,5.4,12.1,12.1,12.1h30.3c4.6,0,8.5-3.9,8.5-8.6v-7
			C823.3,243.5,819.5,239.6,814.9,239.6z"/>
		<path fill="#CCCCCC" d="M40,263.8H4.5c-2.5,0-4.5-2-4.5-4.5v-17.9c0-2.5,2-4.5,4.5-4.5H40c7.4,0,13.5,6.1,13.5,13.5v0
			C53.5,257.7,47.5,263.8,40,263.8z"/>
		<g>
			<ellipse fill="#B9262F" cx="397.1" cy="149.8" rx="20.6" ry="14.1"/>
			<path fill="#FFFFFF" d="M406.2,152c0,1.1-0.9,2-2,2h-38c-1.1,0-2-0.9-2-2v-5c0-1.1,0.9-2,2-2h38c1.1,0,2,0.9,2,2V152z"/>
		</g>
		<path opacity="0.5" fill="#FFFFFF" d="M212.6,102.4l123.7-60.8c-2.6-4.8-14-3.9-21.3-3.9c-21.3,0-44.8,7-64.7,14.2
			c-17.9,6.5-43.3,19.7-43.3,41.9C206.9,98,209.5,100.7,212.6,102.4z"/>
		<path opacity="0.5" fill="#FFFFFF" d="M374.2,94c0,3.9,3.1,5.9,5.9,6.9l106.1-52.1c-9.1-4.6-19.4-6.6-28.9-8
			c-16.9-2.4-64.2-3.1-74-3.1c-9.7,0-9.2,9.3-9.2,9.3S374.2,86.7,374.2,94z"/>
	</g>
	<rect x="823.2" y="227.9" fill="#FF931E" width="3" height="48"/>
	<rect x="24.2" y="188.9" fill="#FF931E" width="3" height="48"/>
	<g>
		<circle fill="#CCCCCC" cx="538.6" cy="91.4" r="6.8"/>
		<path fill="#FFFFFF" d="M538.2,109.3L538.2,109.3c-1.4,0.1-2.5-0.9-2.6-2.3l-2.3-31.3c-0.1-1.4,0.9-2.5,2.3-2.6l0,0
			c2.7-0.2,5,1.8,5.2,4.5l1.9,26.4C542.9,106.8,540.9,109.1,538.2,109.3z"/>
	</g>
</g>
</svg>
