<!-- Generator: Adobe Illustrator 18.0.0, SVG Export Plug-In  -->
<svg version="1.1"
	 xmlns="http://www.w3.org/2000/svg" xmlns:xlink="http://www.w3.org/1999/xlink" xmlns:a="http://ns.adobe.com/AdobeSVGViewerExtensions/3.0/"
	 x="0px" y="0px" width="163.2px" height="109.4px" viewBox="0 0 163.2 109.4" enable-background="new 0 0 163.2 109.4"
	 xml:space="preserve">
<defs>
</defs>
<g>
	<polygon fill="#FFCE00" points="87.7,26.3 92,1.9 68.4,0 68.8,35.9 69,48.8 79.5,44.8 81.1,44.2 79,58.5 77.9,66.7 84.8,64.1 
		89.8,62.2 88.1,94.7 97.3,57.4 98.6,52.3 92.8,53.3 90.5,53.7 96.9,34.9 100.7,24 88,26.2 	"/>
</g>
<g>
	<polygon fill="#FFCE00" points="142,64.1 163.2,51.4 149.1,32.2 122.3,56.2 112.7,64.8 122.6,70.1 124.1,70.9 112,78.8 105,83.3 
		111.6,86.7 116.3,89.3 90.7,109.4 124.9,91.8 129.5,89.4 124.9,85.7 123.1,84.2 141.6,76.7 152.2,72.4 142.2,64.3 	"/>
</g>
<g>
	<polygon fill="#FFCE00" points="30.6,41.1 20.8,18.4 0,29.9 20.3,59.6 27.5,70.2 34,61.1 35,59.8 41.2,72.8 44.7,80.3 49.1,74.3 
		52.2,69.9 68.8,98 55.8,61.7 54.1,56.8 49.8,60.9 48.1,62.5 43.1,43.2 40.2,32.1 30.9,40.9 	"/>
</g>
</svg>
