<!-- Generator: Adobe Illustrator 18.0.0, SVG Export Plug-In  -->
<svg version="1.1"
	 xmlns="http://www.w3.org/2000/svg" xmlns:xlink="http://www.w3.org/1999/xlink" xmlns:a="http://ns.adobe.com/AdobeSVGViewerExtensions/3.0/"
	 x="0px" y="0px" width="468.1px" height="233.5px" viewBox="0 0 468.1 233.5" enable-background="new 0 0 468.1 233.5"
	 xml:space="preserve">
<defs>
</defs>
<g>
	<g>
		<rect x="54.1" y="1" fill="#327E3E" width="414" height="158"/>
		<linearGradient id="SVGID_1_" gradientUnits="userSpaceOnUse" x1="54.0743" y1="78.5" x2="468.0743" y2="78.5">
			<stop  offset="0" style="stop-color:#42A047"/>
			<stop  offset="1" style="stop-color:#66BB6A"/>
		</linearGradient>
		<rect x="54.1" fill="url(#SVGID_1_)" width="414" height="157"/>
		<path fill="#327E3E" d="M445.1,116.2v-75C425.1,41.3,408,30,408,16H114.2c0,14-17.1,25.3-37.1,25.3v75c20,0,37.1,11.8,37.1,25.8
			H408C408,128,425.1,116.2,445.1,116.2z"/>
		<linearGradient id="SVGID_2_" gradientUnits="userSpaceOnUse" x1="197.4987" y1="78.7651" x2="324.6499" y2="78.7651">
			<stop  offset="0" style="stop-color:#42A047"/>
			<stop  offset="1" style="stop-color:#66BB6A"/>
		</linearGradient>
		<ellipse fill="url(#SVGID_2_)" cx="261.1" cy="78.8" rx="63.6" ry="43.8"/>
	</g>
	<path fill="#FFFAD1" d="M240.4,87.2c2.9,0.9,5.6,1.5,8,2c2.4,0.4,4.5,0.6,6.2,0.6c1.5,0,2.9-0.3,3.9-0.8c1.1-0.5,1.6-1.2,1.6-2.2
		c0-0.2,0-0.5-0.1-0.7c-0.1-0.2-0.2-0.5-0.3-0.7c-0.1-0.2-0.4-0.5-0.7-0.8c-0.3-0.3-0.6-0.6-0.8-0.7c-0.2-0.2-1.2-0.8-2.8-1.9
		c-4.7-3.2-7.9-5.4-9.4-6.7c-1.2-1-2.1-2.2-2.8-3.4c-0.7-1.3-1-2.5-1-3.7c0-0.9,0.2-1.9,0.6-2.8c0.4-0.9,1-1.8,1.8-2.6
		c0.8-0.8,1.7-1.5,2.8-2.2c1.1-0.7,2.3-1.2,3.5-1.6c1.3-0.4,3.2-0.9,5.7-1.3c0.1-0.7-0.1-1-0.1-1.2l-0.3-2v-3.5c4,0,6.1,0.1,8.2,0.1
		c2.4,0,5,0,8-0.1c-0.1,2.3-0.2,3.6-0.2,4v2.6c3,0.3,5.9,0.7,8.8,1.3c0.2,3.3,0.5,6.7,0.9,10.2c-2.4-0.8-4.6-1.3-6.6-1.6
		c-2-0.3-3.7-0.5-5-0.5c-1.5,0-2.7,0.2-3.7,0.7c-1,0.5-1.5,1.1-1.5,1.8c0,0.7,0.3,1.3,0.9,1.8c0.6,0.6,1.4,1.2,2.5,1.9
		c3.8,2.5,6.7,4.5,8.5,6c1.8,1.5,3.1,2.9,3.8,4.2c0.7,1.3,1.1,2.7,1.1,4c0,1.1-0.2,2.1-0.6,3c-0.4,0.9-1,1.8-1.8,2.6
		c-0.8,0.8-1.7,1.5-2.7,2.1c-1,0.6-2,1.2-3.1,1.6c-1.1,0.4-2.6,1-4.7,1.6l-0.1,3.9c0,1.3,0,2.5,0,3.7c-3.2,0-5.8-0.1-7.7-0.1
		c-1.9,0-4.6,0-8.3,0.1c0.1-1.4,0.3-3.2,0.3-5.4v-1.3c-2-0.2-4.4-0.5-6-0.7c-1.6-0.2-3.6-0.6-5.9-1.2
		C240.9,92.6,240.6,89.1,240.4,87.2z"/>
</g>
<g>
	<path fill="#C99B36" d="M88.3,157.5c-8-4.8-20.2-7.8-34-7.8s-26,3-34,7.8h-9.7v13.1c0,11.6,19.5,20.9,43.6,20.9S98,182.2,98,170.7
		v-13.1H88.3z"/>
	<g>
		<g>
			<g>
				<g>
					<g>
						<ellipse fill="#F7CA41" cx="54.3" cy="157.5" rx="43.6" ry="20.9"/>
					</g>
				</g>
			</g>
			<path fill="#FFFAD1" d="M40.1,161.6c2,0.4,3.8,0.7,5.5,0.9c1.7,0.2,3.1,0.3,4.3,0.3c1.1,0,2-0.1,2.7-0.4c0.7-0.2,1.1-0.6,1.1-1
				c0-0.1,0-0.2-0.1-0.3c-0.1-0.1-0.1-0.2-0.2-0.3c-0.1-0.1-0.3-0.2-0.5-0.4c-0.2-0.2-0.4-0.3-0.6-0.3c-0.2-0.1-0.8-0.4-1.9-0.9
				c-3.2-1.5-5.4-2.6-6.5-3.2c-0.8-0.5-1.5-1-1.9-1.6c-0.5-0.6-0.7-1.2-0.7-1.8c0-0.4,0.1-0.9,0.4-1.3c0.3-0.4,0.7-0.8,1.2-1.2
				c0.5-0.4,1.2-0.7,1.9-1.1c0.7-0.3,1.6-0.6,2.4-0.8c0.9-0.2,2.2-0.4,3.9-0.6c0-0.3,0-0.5,0-0.6l-0.1-0.9v-1.7c2,0,4.1,0,5.6,0
				c1.6,0,3.5,0,5.5,0c-0.1,1.1-0.1,1.7-0.1,1.9v1.3c2,0.1,4,0.3,5.9,0.6c0.1,1.6,0.3,3.2,0.6,4.9c-1.6-0.4-3.2-0.6-4.5-0.8
				c-1.4-0.2-2.5-0.2-3.5-0.2c-1,0-1.9,0.1-2.6,0.3c-0.7,0.2-1,0.5-1,0.9c0,0.3,0.2,0.6,0.6,0.9c0.4,0.3,1,0.6,1.7,0.9
				c2.6,1.2,4.6,2.1,5.8,2.8c1.2,0.7,2.1,1.4,2.6,2c0.5,0.6,0.8,1.3,0.8,1.9c0,0.5-0.1,1-0.4,1.5c-0.3,0.5-0.7,0.9-1.2,1.2
				c-0.5,0.4-1.1,0.7-1.8,1c-0.7,0.3-1.4,0.6-2.1,0.8c-0.7,0.2-1.8,0.5-3.2,0.7l-0.1,1.9c0,0.6,0,1.2,0,1.8c-2.2,0-4,0-5.3,0
				c-1.3,0-3.1,0-5.6,0c0.1-0.7,0.3-1.5,0.3-2.6v-0.6c-2-0.1-3.2-0.2-4.3-0.3c-1.1-0.1-2.5-0.3-4.1-0.6
				C40.5,164.2,40.3,162.5,40.1,161.6z"/>
		</g>
	</g>
</g>
<g>
	<path fill="#C99B36" d="M167.6,175c-8-4.8-20.2-7.8-34-7.8c-13.7,0-26,3-34,7.8H90v13.1c0,11.6,19.5,20.9,43.6,20.9
		c24.1,0,43.6-9.4,43.6-20.9V175H167.6z"/>
	<g>
		<g>
			<g>
				<g>
					<g>
						<ellipse fill="#F7CA41" cx="133.6" cy="175" rx="43.6" ry="20.9"/>
					</g>
				</g>
			</g>
			<path fill="#FFFAD1" d="M119.4,179.1c2,0.4,3.8,0.7,5.5,0.9c1.7,0.2,3.1,0.3,4.3,0.3c1.1,0,2-0.1,2.7-0.4c0.7-0.2,1.1-0.6,1.1-1
				c0-0.1,0-0.2-0.1-0.3c-0.1-0.1-0.1-0.2-0.2-0.3c-0.1-0.1-0.3-0.2-0.5-0.4c-0.2-0.2-0.4-0.3-0.6-0.3c-0.2-0.1-0.8-0.4-1.9-0.9
				c-3.2-1.5-5.4-2.6-6.5-3.2c-0.8-0.5-1.5-1-1.9-1.6c-0.5-0.6-0.7-1.2-0.7-1.8c0-0.4,0.1-0.9,0.4-1.3c0.3-0.4,0.7-0.8,1.2-1.2
				c0.5-0.4,1.2-0.7,1.9-1.1c0.7-0.3,1.6-0.6,2.4-0.8c0.9-0.2,2.2-0.4,3.9-0.6c0-0.3-0.1-0.5-0.1-0.6l-0.2-0.9v-1.7c3,0,4.2,0,5.7,0
				c1.6,0,3.4,0,5.5,0c-0.1,1.1-0.2,1.7-0.2,1.9v1.3c2,0.1,4.1,0.3,6,0.6c0.1,1.6,0.4,3.2,0.6,4.9c-1.6-0.4-3.1-0.6-4.5-0.8
				c-1.4-0.2-2.5-0.2-3.4-0.2c-1,0-1.9,0.1-2.6,0.3c-0.7,0.2-1,0.5-1,0.9c0,0.3,0.2,0.6,0.6,0.9c0.4,0.3,1,0.6,1.7,0.9
				c2.6,1.2,4.6,2.1,5.8,2.8c1.2,0.7,2.1,1.4,2.6,2c0.5,0.6,0.8,1.3,0.8,1.9c0,0.5-0.1,1-0.4,1.5c-0.3,0.5-0.7,0.9-1.2,1.2
				c-0.5,0.4-1.1,0.7-1.8,1c-0.7,0.3-1.4,0.6-2.1,0.8c-0.7,0.2-1.8,0.5-3.2,0.7l-0.1,1.9c0,0.6,0,1.2,0,1.8c-2.2,0-4,0-5.3,0
				c-1.3,0-3.2,0-5.7,0c0.1-0.7,0.2-1.5,0.2-2.6V185c-2-0.1-3-0.2-4.1-0.3c-1.1-0.1-2.5-0.3-4.1-0.6
				C119.7,181.7,119.6,180,119.4,179.1z"/>
		</g>
	</g>
</g>
<g>
	<path fill="#C99B36" d="M77.6,199.4c-8-4.8-20.2-7.8-34-7.8c-13.7,0-26,3-34,7.8H0v13.1c0,11.6,19.5,20.9,43.6,20.9
		c24.1,0,43.6-9.4,43.6-20.9v-13.1H77.6z"/>
	<g>
		<g>
			<g>
				<g>
					<g>
						<ellipse fill="#F7CA41" cx="43.6" cy="199.4" rx="43.6" ry="20.9"/>
					</g>
				</g>
			</g>
			<path fill="#FFFAD1" d="M29.4,203.4c2,0.4,3.8,0.7,5.5,0.9c1.7,0.2,3.1,0.3,4.3,0.3c1.1,0,2-0.1,2.7-0.4c0.7-0.2,1.1-0.6,1.1-1
				c0-0.1,0-0.2-0.1-0.3c-0.1-0.1-0.1-0.2-0.2-0.3c-0.1-0.1-0.3-0.2-0.5-0.4c-0.2-0.2-0.4-0.3-0.6-0.3c-0.2-0.1-0.8-0.4-1.9-0.9
				c-3.2-1.5-5.4-2.6-6.5-3.2c-0.8-0.5-1.5-1-1.9-1.6c-0.5-0.6-0.7-1.2-0.7-1.8c0-0.4,0.1-0.9,0.4-1.3c0.3-0.4,0.7-0.8,1.2-1.2
				c0.5-0.4,1.2-0.7,1.9-1c0.7-0.3,1.6-0.6,2.4-0.8c0.9-0.2,2.2-0.4,3.9-0.6c0-0.3-0.2-0.5-0.2-0.6l-0.3-0.9v-1.7c3,0,4.3,0,5.7,0
				c1.6,0,3.4,0,5.4,0c-0.1,1.1-0.2,1.7-0.2,1.9v1.3c2,0.1,4.1,0.3,6.1,0.6c0.1,1.6,0.4,3.2,0.6,4.9c-1.6-0.4-3.1-0.6-4.5-0.8
				c-1.4-0.2-2.5-0.2-3.4-0.2c-1,0-1.9,0.1-2.6,0.3c-0.7,0.2-1,0.5-1,0.9c0,0.3,0.2,0.6,0.6,0.9c0.4,0.3,1,0.6,1.7,0.9
				c2.6,1.2,4.6,2.1,5.8,2.8c1.2,0.7,2.1,1.4,2.6,2c0.5,0.6,0.8,1.3,0.8,1.9c0,0.5-0.1,1-0.4,1.5c-0.3,0.5-0.7,0.9-1.2,1.2
				c-0.5,0.4-1.1,0.7-1.8,1c-0.7,0.3-1.4,0.6-2.1,0.8c-0.7,0.2-1.8,0.5-3.2,0.7l-0.1,1.9c0,0.6,0,1.2,0,1.8c-2.2,0-4,0-5.3,0
				c-1.3,0-3.2,0-5.8,0c0.1-0.7,0.1-1.5,0.1-2.6v-0.6c-2-0.1-3-0.2-4.1-0.3c-1.1-0.1-2.5-0.3-4.1-0.6
				C29.8,206,29.6,204.4,29.4,203.4z"/>
		</g>
	</g>
</g>
</svg>
