<!-- Generator: Adobe Illustrator 18.0.0, SVG Export Plug-In  -->
<svg version="1.1"
	 xmlns="http://www.w3.org/2000/svg" xmlns:xlink="http://www.w3.org/1999/xlink" xmlns:a="http://ns.adobe.com/AdobeSVGViewerExtensions/3.0/"
	 x="0px" y="0px" width="457.4px" height="161.9px" viewBox="0 0 457.4 161.9" enable-background="new 0 0 457.4 161.9"
	 xml:space="preserve">
<defs>
</defs>
<g>
	<g>
		<rect x="43.4" y="1" fill="#327E3E" width="414" height="157"/>
		<linearGradient id="SVGID_1_" gradientUnits="userSpaceOnUse" x1="43.3726" y1="78.5" x2="457.3727" y2="78.5">
			<stop  offset="0" style="stop-color:#42A047"/>
			<stop  offset="1" style="stop-color:#66BB6A"/>
		</linearGradient>
		<rect x="43.4" fill="url(#SVGID_1_)" width="414" height="157"/>
		<path fill="#327E3E" d="M434.4,115.9V41c-20,0-37.1-12-37.1-26H103.5c0,14-17.1,26-37.1,26v75c20,0,37.1,11.1,37.1,26.1h293.8
			C397.3,127,414.4,115.9,434.4,115.9z"/>
		<ellipse fill="#42A047" cx="250.4" cy="78.4" rx="63.6" ry="43.8"/>
	</g>
	<path fill="#FFFAD1" d="M229.7,86.9c2.9,0.9,5.6,1.5,8,2c2.4,0.4,4.5,0.6,6.2,0.6c1.5,0,2.9-0.3,3.9-0.8c1.1-0.5,1.6-1.2,1.6-2.2
		c0-0.2,0-0.5-0.1-0.7c-0.1-0.2-0.2-0.5-0.3-0.7c-0.1-0.2-0.4-0.5-0.7-0.8c-0.3-0.3-0.6-0.6-0.8-0.7c-0.2-0.2-1.2-0.8-2.8-1.9
		c-4.7-3.2-7.9-5.4-9.4-6.7c-1.2-1-2.1-2.2-2.8-3.4c-0.7-1.3-1-2.5-1-3.7c0-0.9,0.2-1.9,0.6-2.8c0.4-0.9,1-1.8,1.8-2.6
		c0.8-0.8,1.7-1.5,2.8-2.2c1.1-0.7,2.3-1.2,3.5-1.6c1.3-0.4,3.2-0.9,5.7-1.3c0.1-0.7-0.1-1-0.1-1.2l-0.3-2v-3.5c4,0,6.1,0.1,8.2,0.1
		c2.4,0,5,0,8-0.1c-0.1,2.3-0.2,3.6-0.2,4v2.6c3,0.3,5.9,0.7,8.8,1.3c0.2,3.3,0.5,6.7,0.9,10.2c-2.4-0.8-4.6-1.3-6.6-1.6
		c-2-0.3-3.7-0.5-5-0.5c-1.5,0-2.7,0.2-3.7,0.7c-1,0.5-1.5,1.1-1.5,1.8c0,0.7,0.3,1.3,0.9,1.8c0.6,0.6,1.4,1.2,2.5,1.9
		c3.8,2.5,6.7,4.5,8.5,6c1.8,1.5,3.1,2.9,3.8,4.2c0.7,1.3,1.1,2.7,1.1,4c0,1.1-0.2,2.1-0.6,3c-0.4,0.9-1,1.8-1.8,2.6
		c-0.8,0.8-1.7,1.5-2.7,2.1c-1,0.6-2,1.2-3.1,1.6c-1.1,0.4-2.6,1-4.7,1.6l-0.1,3.9c0,1.3,0,2.5,0,3.7c-3.2,0-5.8-0.1-7.7-0.1
		c-1.9,0-4.6,0-8.3,0.1c0.1-1.4,0.3-3.2,0.3-5.4v-1.3c-2-0.2-4.4-0.5-6-0.7c-1.6-0.2-3.6-0.6-5.9-1.2
		C230.2,92.3,229.9,88.8,229.7,86.9z"/>
</g>
<g>
	<path fill="#C99B36" d="M77.6,127.8c-8-4.8-20.2-7.8-34-7.8s-26,3-34,7.8H0V141c0,11.6,19.5,20.9,43.6,20.9s43.6-9.4,43.6-20.9
		v-13.1H77.6z"/>
	<g>
		<g>
			<g>
				<g>
					<g>
						<ellipse fill="#F7CA41" cx="43.6" cy="127.8" rx="43.6" ry="20.9"/>
					</g>
				</g>
			</g>
			<path fill="#FFFAD1" d="M29.4,131.9c2,0.4,3.8,0.7,5.5,0.9c1.7,0.2,3.1,0.3,4.3,0.3c1.1,0,2-0.1,2.7-0.4c0.7-0.2,1.1-0.6,1.1-1
				c0-0.1,0-0.2-0.1-0.3c-0.1-0.1-0.1-0.2-0.2-0.3c-0.1-0.1-0.3-0.2-0.5-0.4c-0.2-0.2-0.4-0.3-0.6-0.3c-0.2-0.1-0.8-0.4-1.9-0.9
				c-3.2-1.5-5.4-2.6-6.5-3.2c-0.8-0.5-1.5-1-1.9-1.6c-0.5-0.6-0.7-1.2-0.7-1.8c0-0.4,0.1-0.9,0.4-1.3c0.3-0.4,0.7-0.8,1.2-1.2
				c0.5-0.4,1.2-0.7,1.9-1c0.7-0.3,1.6-0.6,2.4-0.8c0.9-0.2,2.2-0.4,3.9-0.6c0-0.3,0-0.5,0-0.6l-0.1-0.9v-1.7c2,0,4.1,0,5.6,0
				c1.6,0,3.5,0,5.5,0c-0.1,1.1-0.1,1.7-0.1,1.9v1.3c2,0.1,4,0.3,5.9,0.6c0.1,1.6,0.3,3.2,0.6,4.9c-1.6-0.4-3.2-0.6-4.5-0.8
				c-1.4-0.2-2.5-0.2-3.5-0.2c-1,0-1.9,0.1-2.6,0.3c-0.7,0.2-1,0.5-1,0.9c0,0.3,0.2,0.6,0.6,0.9c0.4,0.3,1,0.6,1.7,0.9
				c2.6,1.2,4.6,2.1,5.8,2.8c1.2,0.7,2.1,1.4,2.6,2c0.5,0.6,0.8,1.3,0.8,1.9c0,0.5-0.1,1-0.4,1.5c-0.3,0.5-0.7,0.9-1.2,1.2
				c-0.5,0.4-1.1,0.7-1.8,1c-0.7,0.3-1.4,0.6-2.1,0.8c-0.7,0.2-1.8,0.5-3.2,0.7l-0.1,1.9c0,0.6,0,1.2,0,1.8c-2.2,0-4,0-5.3,0
				c-1.3,0-3.1,0-5.6,0c0.1-0.7,0.3-1.5,0.3-2.6v-0.6c-2-0.1-3.2-0.2-4.3-0.3c-1.1-0.1-2.5-0.3-4.1-0.6
				C29.8,134.5,29.6,132.8,29.4,131.9z"/>
		</g>
	</g>
</g>
</svg>
