<!-- Generator: Adobe Illustrator 18.0.0, SVG Export Plug-In  -->
<svg version="1.1"
	 xmlns="http://www.w3.org/2000/svg" xmlns:xlink="http://www.w3.org/1999/xlink" xmlns:a="http://ns.adobe.com/AdobeSVGViewerExtensions/3.0/"
	 x="0px" y="0px" width="1920px" height="720.7px" viewBox="0 0 1920 720.7" enable-background="new 0 0 1920 720.7"
	 xml:space="preserve">
<defs>
</defs>
<g id="Ciudad_1_">
	<g opacity="0.3">
		<path id="XMLID_1548_" d="M423.5,212.8v148.7h-21.7V249.4c0-15.3,8.7-28.6,22.4-36.6H423.5z"/>
		<polygon id="XMLID_1547_" points="465.8,250.5 480.6,248.9 542.5,250.4 542.5,158 542.5,156.3 542.5,141.8 552.8,141.8 
			552.8,85.8 558.5,85.8 558.5,141.8 569.9,141.8 569.9,156.7 597.4,156.7 597.4,361.5 423.5,361.5 423.5,228.8 465.8,228.8 		"/>
		<path id="XMLID_1546_" d="M1521.7,361.5h-19.4V257.4h0.8c10.8,4.6,18.6,15.9,18.6,27.5V361.5z"/>
		<polygon id="XMLID_1545_" points="1482.8,275.7 1502.2,275.7 1502.2,361.5 1482.4,361.5 1467.2,361.5 1465.6,361.5 1465.6,261.6 
			1482.8,270.1 		"/>
		<path id="XMLID_1544_" d="M1383.3,190.8l22.8-34.1c-1.2-0.3-2.3-1-2.3-2.2c0-1.5,0.9-2.3,2.4-2.3h0V127h3.4v25.2h1
			c1.5,0,2.7,0.8,2.7,2.3c0,1.3-0.9,2.2-2.1,2.4l20.1,33.9V262h34.3v99.5h-34.4h-5.3h0.5l0,0h-4.9l0,0h-2.9l0,0h-4.9l0,0h-3.9l0,0
			h-3.9l0,0h-6.5h-8.8h-8.5h-5.8v-84.6l6.9,2.9V190.8z"/>
		<polygon id="XMLID_1543_" points="1331.7,275.7 1350.1,284.1 1350.1,275.7 1376.4,275.7 1376.4,361.5 1349.6,361.5 1349.6,361.5 
			1331.7,361.5 1296.3,361.5 1296.3,275.7 1331.7,275.7 		"/>
		<polygon id="XMLID_1542_" fill="#A8B9C9" points="1011.5,262 1011.5,361.5 829.6,361.5 829.6,228.8 825,228.8 825,115.5 
			882.2,115.5 882.2,262 		"/>
		<polygon id="XMLID_1541_" points="908.5,122.4 1038.9,122.4 1038.9,361.5 865.7,361.5 865.7,361.5 720.9,361.5 720.9,199 
			908.5,199 		"/>
		<polygon id="XMLID_1540_" points="961.1,232.2 961.1,361.5 727.8,361.5 727.8,189.9 720.9,189.9 720.9,43.5 795.3,43.5 
			795.3,232.2 		"/>
		<rect id="XMLID_1539_" x="615.7" y="175" width="72.1" height="186.5"/>
	</g>
	<g>
		<rect x="595.1" y="215.1" fill="#B3B3B3" width="37.8" height="146.4"/>
		<rect x="599.7" y="219.6" fill="#717277" width="28.6" height="12.6"/>
		<rect x="599.7" y="236.8" fill="#717277" width="28.6" height="13.7"/>
		<rect x="599.7" y="255.1" fill="#717277" width="28.6" height="12.6"/>
		<rect x="599.7" y="273.4" fill="#717277" width="28.6" height="13.7"/>
		<rect x="599.7" y="289.4" fill="#717277" width="28.6" height="13.7"/>
		<rect x="599.7" y="308.9" fill="#717277" width="28.6" height="13.7"/>
		<rect x="599.7" y="326" fill="#717277" width="28.6" height="13.7"/>
		<rect x="599.7" y="345.5" fill="#717277" width="28.6" height="16"/>
		<polygon id="XMLID_1538_" fill="#717277" points="585.9,361.5 595.1,361.5 595.1,214.6 585.9,218.7 		"/>
	</g>
	<path fill="#327E3E" d="M415.5,344.3h1088.9c9.1,0,17.2,8,17.2,17.2l0,0H398.3l0,0C398.3,352.4,406.4,344.3,415.5,344.3z"/>
	<g>
		<g id="XMLID_1537_">
			<rect x="1255.1" y="54.9" fill="#D6C994" width="106.4" height="306.6"/>
			<rect x="1214" y="54.9" fill="#B7B08E" width="41.2" height="306.6"/>
		</g>
		<g id="XMLID_1529_">
			
				<line id="XMLID_1536_" opacity="0.4" fill="none" stroke="#F2EFE4" stroke-width="3" stroke-miterlimit="10" x1="1350.7" y1="54.9" x2="1350.7" y2="361.5"/>
			
				<line id="XMLID_1535_" opacity="0.4" fill="none" stroke="#F2EFE4" stroke-width="3" stroke-miterlimit="10" x1="1336.9" y1="54.9" x2="1336.9" y2="361.5"/>
			
				<line id="XMLID_1534_" opacity="0.4" fill="none" stroke="#F2EFE4" stroke-width="3" stroke-miterlimit="10" x1="1323.2" y1="54.9" x2="1323.2" y2="361.5"/>
			
				<line id="XMLID_1533_" opacity="0.4" fill="none" stroke="#F2EFE4" stroke-width="3" stroke-miterlimit="10" x1="1308.3" y1="54.9" x2="1308.3" y2="361.5"/>
			
				<line id="XMLID_1532_" opacity="0.4" fill="none" stroke="#F2EFE4" stroke-width="3" stroke-miterlimit="10" x1="1294.6" y1="54.9" x2="1294.6" y2="361.5"/>
			
				<line id="XMLID_1531_" opacity="0.4" fill="none" stroke="#F2EFE4" stroke-width="3" stroke-miterlimit="10" x1="1280.9" y1="54.9" x2="1280.9" y2="361.5"/>
			
				<line id="XMLID_1530_" opacity="0.4" fill="none" stroke="#F2EFE4" stroke-width="3" stroke-miterlimit="10" x1="1267.1" y1="54.9" x2="1267.1" y2="361.5"/>
		</g>
		<g id="XMLID_1525_">
			
				<line id="XMLID_1528_" opacity="0.4" fill="none" stroke="#CBC8BF" stroke-width="3" stroke-miterlimit="10" x1="1248.8" y1="54.9" x2="1248.8" y2="361.5"/>
			
				<line id="XMLID_1527_" opacity="0.4" fill="none" stroke="#CBC8BF" stroke-width="3" stroke-miterlimit="10" x1="1234" y1="54.9" x2="1234" y2="361.5"/>
			
				<line id="XMLID_1526_" opacity="0.4" fill="none" stroke="#CBC8BF" stroke-width="3" stroke-miterlimit="10" x1="1221.4" y1="54.9" x2="1221.4" y2="361.5"/>
		</g>
		<g id="XMLID_1515_">
			
				<line id="XMLID_1524_" opacity="0.4" fill="none" stroke="#F2EFE4" stroke-miterlimit="10" x1="1361.5" y1="74.9" x2="1255.1" y2="74.9"/>
			
				<line id="XMLID_1523_" opacity="0.4" fill="none" stroke="#F2EFE4" stroke-miterlimit="10" x1="1361.5" y1="108.1" x2="1255.1" y2="108.1"/>
			
				<line id="XMLID_1522_" opacity="0.4" fill="none" stroke="#F2EFE4" stroke-miterlimit="10" x1="1361.5" y1="141.3" x2="1255.1" y2="141.3"/>
			
				<line id="XMLID_1521_" opacity="0.4" fill="none" stroke="#F2EFE4" stroke-miterlimit="10" x1="1361.5" y1="174.5" x2="1255.1" y2="174.5"/>
			
				<line id="XMLID_1520_" opacity="0.4" fill="none" stroke="#F2EFE4" stroke-miterlimit="10" x1="1361.5" y1="206.5" x2="1255.1" y2="206.5"/>
			
				<line id="XMLID_1519_" opacity="0.4" fill="none" stroke="#F2EFE4" stroke-miterlimit="10" x1="1361.5" y1="239.7" x2="1255.1" y2="239.7"/>
			
				<line id="XMLID_1518_" opacity="0.4" fill="none" stroke="#F2EFE4" stroke-miterlimit="10" x1="1361.5" y1="272.8" x2="1255.1" y2="272.8"/>
			
				<line id="XMLID_1517_" opacity="0.4" fill="none" stroke="#F2EFE4" stroke-miterlimit="10" x1="1361.5" y1="306" x2="1255.1" y2="306"/>
			
				<line id="XMLID_1516_" opacity="0.4" fill="none" stroke="#F2EFE4" stroke-miterlimit="10" x1="1361.5" y1="338" x2="1255.1" y2="338"/>
		</g>
		<g id="XMLID_1505_">
			
				<line id="XMLID_1514_" opacity="0.4" fill="none" stroke="#CBC8BF" stroke-miterlimit="10" x1="1214" y1="74.9" x2="1255.1" y2="74.9"/>
			
				<line id="XMLID_1513_" opacity="0.4" fill="none" stroke="#CBC8BF" stroke-miterlimit="10" x1="1214" y1="108.1" x2="1255.1" y2="108.1"/>
			
				<line id="XMLID_1512_" opacity="0.4" fill="none" stroke="#CBC8BF" stroke-miterlimit="10" x1="1214" y1="141.3" x2="1255.1" y2="141.3"/>
			
				<line id="XMLID_1511_" opacity="0.4" fill="none" stroke="#CBC8BF" stroke-miterlimit="10" x1="1214" y1="174.5" x2="1255.1" y2="174.5"/>
			
				<line id="XMLID_1510_" opacity="0.4" fill="none" stroke="#CBC8BF" stroke-miterlimit="10" x1="1214" y1="206.5" x2="1255.1" y2="206.5"/>
			
				<line id="XMLID_1509_" opacity="0.4" fill="none" stroke="#CBC8BF" stroke-miterlimit="10" x1="1214" y1="239.7" x2="1255.1" y2="239.7"/>
			
				<line id="XMLID_1508_" opacity="0.4" fill="none" stroke="#CBC8BF" stroke-miterlimit="10" x1="1214" y1="272.8" x2="1255.1" y2="272.8"/>
			<line id="XMLID_1507_" fill="none" stroke="#CBC8BF" stroke-miterlimit="10" x1="1214" y1="306" x2="1255.1" y2="306"/>
			<line id="XMLID_1506_" fill="none" stroke="#CBC8BF" stroke-miterlimit="10" x1="1214" y1="338" x2="1255.1" y2="338"/>
		</g>
	</g>
	<g>
		<rect x="1156.8" y="129.3" fill="#676B70" width="104.1" height="218.5"/>
		<path id="XMLID_1465_" fill="#7A8B93" d="M1156.8,122.4v239.1h109.8V122.4h-21.7v-9.2h-33.2v9.2H1156.8z M1250.6,188.8h5.7v8h-5.7
			V188.8z M1250.6,175h5.7v6.9h-5.7V175z M1250.6,160.2h5.7v8h-5.7V160.2z M1250.6,146.4h5.7v6.9h-5.7V146.4z M1250.6,132.7h5.7v5.7
			h-5.7V132.7z M1234.5,209.3h8v138.4h-8V209.3z M1234.5,188.8h8v8h-8V188.8z M1234.5,175h8v6.9h-8V175z M1234.5,160.2h8v8h-8V160.2
			z M1234.5,146.4h8v6.9h-8V146.4z M1234.5,132.7h8v5.7h-8V132.7z M1222,209.3h6.9v138.4h-6.9V209.3z M1222,188.8h6.9v8h-6.9V188.8z
			 M1222,175h6.9v6.9h-6.9V175z M1222,160.2h6.9v8h-6.9V160.2z M1222,146.4h6.9v6.9h-6.9V146.4z M1222,132.7h6.9v5.7h-6.9V132.7z
			 M1208.2,209.3h5.7v138.4h-5.7V209.3z M1208.2,188.8h5.7v8h-5.7V188.8z M1208.2,175h5.7v6.9h-5.7V175z M1208.2,160.2h5.7v8h-5.7
			V160.2z M1208.2,146.4h5.7v6.9h-5.7V146.4z M1208.2,132.7h5.7v5.7h-5.7V132.7z M1192.2,188.8h8v8h-8V188.8z M1192.2,175h8v6.9h-8
			V175z M1192.2,160.2h8v8h-8V160.2z M1192.2,146.4h8v6.9h-8V146.4z M1192.2,132.7h8v5.7h-8V132.7z M1178.5,188.8h8v8h-8V188.8z
			 M1178.5,175h8v6.9h-8V175z M1178.5,160.2h8v8h-8V160.2z M1178.5,146.4h8v6.9h-8V146.4z M1178.5,132.7h8v5.7h-8V132.7z
			 M1164.8,188.8h5.7v8h-5.7V188.8z M1164.8,175h5.7v6.9h-5.7V175z M1164.8,160.2h5.7v8h-5.7V160.2z M1164.8,146.4h5.7v6.9h-5.7
			V146.4z M1164.8,132.7h5.7v5.7h-5.7V132.7z"/>
	</g>
	<g>
		<rect x="1043.5" y="25.2" fill="#406C75" width="54.9" height="74.4"/>
		<rect x="1079" y="68.6" fill="#558E9B" width="37.8" height="292.8"/>
		<rect x="1021.8" y="56.1" fill="#517C89" width="67.5" height="305.4"/>
		<rect x="1079" y="56.1" opacity="0.13" width="3.4" height="305.4"/>
		<rect x="1068.7" y="56.1" opacity="0.13" width="4.6" height="305.4"/>
		<rect x="1059.5" y="56.1" opacity="0.13" width="4.6" height="305.4"/>
		<rect x="1108.7" y="68.6" opacity="0.13" width="3.4" height="239.1"/>
		<rect x="1100.7" y="68.6" opacity="0.13" width="4.6" height="239.1"/>
		<rect x="1093.8" y="68.6" opacity="0.13" width="4.6" height="239.1"/>
		<rect x="1050.4" y="56.1" opacity="0.13" width="3.4" height="305.4"/>
		<rect x="1040.1" y="56.1" opacity="0.13" width="3.4" height="305.4"/>
		<rect x="1029.8" y="56.1" opacity="0.13" width="4.6" height="305.4"/>
	</g>
	<rect x="1160.2" y="122.4" opacity="0.16" width="51.5" height="239.1"/>
	<g>
		<polygon id="XMLID_1464_" fill="#676B70" points="1107.6,175 1107.6,74.4 1122.4,74.4 1122.4,8 1160.2,8 1160.2,74.4 1173.9,74.4 
			1173.9,175 1185.4,175 1185.4,310 1093.8,310 1093.8,175 		"/>
		<path id="XMLID_1407_" fill="#B0BBC4" d="M1091.6,168.2v193.3h99.5V168.2h-13.7V70.9h-14.9V0h-9.9h-5h-10h-3.8h-15.9v70.9h-12.6
			v97.2H1091.6z M1176.2,177.3h6.9v120.1h-6.9V177.3z M1163.6,177.3h6.9v120.1h-6.9V177.3z M1163.6,76.6h6.9v88.1h-6.9V76.6z
			 M1152.2,229.9h8v67.5h-8V229.9z M1146.5,152.1h5.7v8h-5.7V152.1z M1146.5,141.8h5.7v5.7h-5.7V141.8z M1133.9,283.7h8v8h-8V283.7z
			 M1133.9,273.4h8v6.9h-8V273.4z M1133.9,260.8h8v6.9h-8V260.8z M1133.9,248.2h8v8h-8V248.2z M1133.9,152.1h8v8h-8V152.1z
			 M1133.9,141.8h8v5.7h-8V141.8z M1133.9,129.3h8v6.9h-8V129.3z M1133.9,16h8v8h-8V16z M1130.4,46.9h-8V40h8V46.9z M1130.4,59.5h-8
			v-8h8V59.5z M1130.4,69.8h-8v-5.7h8V69.8z M1130.4,88.1h-8v-5.7h8V88.1z M1130.4,100.7h-8v-6.9h8V100.7z M1130.4,113.3h-8v-8h8
			V113.3z M1130.4,124.7h-8v-6.9h8V124.7z M1130.4,136.1h-8v-6.9h8V136.1z M1130.4,147.6h-8v-5.7h8V147.6z M1130.4,160.2h-8v-8h8
			V160.2z M1122.4,283.7h6.9v8h-6.9V283.7z M1122.4,273.4h6.9v6.9h-6.9V273.4z M1122.4,260.8h6.9v6.9h-6.9V260.8z M1122.4,248.2h6.9
			v8h-6.9V248.2z M1112.1,283.7h5.7v8h-5.7V283.7z M1112.1,273.4h5.7v6.9h-5.7V273.4z M1112.1,260.8h5.7v6.9h-5.7V260.8z
			 M1112.1,248.2h5.7v8h-5.7V248.2z M1112.1,237.9h5.7v5.7h-5.7V237.9z M1112.1,225.4h5.7v6.9h-5.7V225.4z M1112.1,213.9h5.7v8h-5.7
			V213.9z M1112.1,201.3h5.7v8h-5.7V201.3z M1112.1,189.9h5.7v6.9h-5.7V189.9z M1112.1,178.5h5.7v6.9h-5.7V178.5z M1109.9,152.1h8v8
			h-8V152.1z M1109.9,141.8h8v5.7h-8V141.8z M1109.9,129.3h8v6.9h-8V129.3z M1109.9,117.8h8v6.9h-8V117.8z M1109.9,105.2h8v8h-8
			V105.2z M1109.9,93.8h8v6.9h-8V93.8z M1109.9,82.4h8v5.7h-8V82.4z M1098.4,283.7h8v8h-8V283.7z M1098.4,273.4h8v6.9h-8V273.4z
			 M1098.4,260.8h8v6.9h-8V260.8z M1098.4,248.2h8v8h-8V248.2z M1098.4,237.9h8v5.7h-8V237.9z M1098.4,225.4h8v6.9h-8V225.4z
			 M1098.4,213.9h8v8h-8V213.9z M1098.4,201.3h8v8h-8V201.3z M1098.4,189.9h8v6.9h-8V189.9z M1098.4,178.5h8v6.9h-8V178.5z"/>
		<rect x="1085.8" y="339.8" fill="#676B70" width="109.8" height="21.7"/>
		<rect x="1105.3" y="70.9" opacity="0.3" width="72.1" height="97.2"/>
		<rect x="1117.9" y="0" opacity="0.5" width="44.6" height="70.9"/>
	</g>
	<g>
		<rect x="780.4" y="148.7" fill="#FFFFFF" width="66.3" height="202.5"/>
		<polygon fill="#C19E76" points="742.7,361.5 780.4,361.5 780.4,139.3 742.7,158.1 		"/>
		<path id="XMLID_1372_" fill="#DEB587" d="M780.4,139.6v221.9h70.9V139.6H780.4z M804.4,353.5h-10.3V342h10.3V353.5z M804.4,335.2
			h-10.3v-11.4h10.3V335.2z M804.4,315.7h-10.3v-10.3h10.3V315.7z M804.4,297.4h-10.3V286h10.3V297.4z M804.4,279.1h-10.3v-11.4
			h10.3V279.1z M804.4,259.7h-10.3v-11.4h10.3V259.7z M804.4,241.4h-10.3v-12.6h10.3V241.4z M804.4,223.1h-10.3v-12.6h10.3V223.1z
			 M804.4,203.6h-10.3v-11.4h10.3V203.6z M804.4,184.2h-10.3v-10.3h10.3V184.2z M804.4,165.9h-10.3v-11.4h10.3V165.9z M823.9,353.5
			h-11.4V342h11.4V353.5z M823.9,335.2h-11.4v-11.4h11.4V335.2z M823.9,315.7h-11.4v-10.3h11.4V315.7z M823.9,297.4h-11.4V286h11.4
			V297.4z M823.9,279.1h-11.4v-11.4h11.4V279.1z M823.9,259.7h-11.4v-11.4h11.4V259.7z M823.9,241.4h-11.4v-12.6h11.4V241.4z
			 M823.9,223.1h-11.4v-12.6h11.4V223.1z M823.9,203.6h-11.4v-11.4h11.4V203.6z M823.9,184.2h-11.4v-10.3h11.4V184.2z M823.9,165.9
			h-11.4v-11.4h11.4V165.9z M842.2,353.5h-11.4V342h11.4V353.5z M842.2,335.2h-11.4v-11.4h11.4V335.2z M842.2,315.7h-11.4v-10.3
			h11.4V315.7z M842.2,297.4h-11.4V286h11.4V297.4z M842.2,279.1h-11.4v-11.4h11.4V279.1z M842.2,259.7h-11.4v-11.4h11.4V259.7z
			 M842.2,241.4h-11.4v-12.6h11.4V241.4z M842.2,223.1h-11.4v-12.6h11.4V223.1z M842.2,203.6h-11.4v-11.4h11.4V203.6z M842.2,184.2
			h-11.4v-10.3h11.4V184.2z M842.2,165.9h-11.4v-11.4h11.4V165.9z"/>
	</g>
	<g>
		<polygon id="XMLID_1371_" fill="#625961" points="889.1,309.1 860.5,309.2 860.5,184.1 889.1,180.5 		"/>
		<polygon id="XMLID_1370_" fill="#726871" points="889.1,310 945.1,310 945.1,184 889.1,180.5 		"/>
		<polygon id="XMLID_1369_" fill="#443E44" points="885.6,361.5 851.3,361.5 851.3,198.7 885.6,194 		"/>
		<polygon id="XMLID_1368_" fill="#544D53" points="885.6,361.5 958.9,361.5 958.9,198.6 885.6,194 		"/>
		<polygon id="XMLID_1367_" fill="#443E44" points="945.1,361.5 950.8,361.5 950.8,205.7 945.1,205.3 		"/>
		<polygon id="XMLID_1366_" fill="#443E44" points="934.8,361.5 939.4,361.5 939.4,205 934.8,204.6 		"/>
		<polygon id="XMLID_1365_" fill="#443E44" points="925.7,361.5 930.3,361.5 930.3,204.2 925.7,203.9 		"/>
		<polygon id="XMLID_1364_" fill="#443E44" points="916.5,361.5 921.1,361.5 921.1,203.5 916.5,203.2 		"/>
		<polygon id="XMLID_1363_" fill="#443E44" points="906.2,361.5 912,361.5 912,202.8 906.2,202.4 		"/>
		<polygon id="XMLID_1362_" fill="#443E44" points="895.9,361.5 901.7,361.5 901.7,202.1 895.9,201.7 		"/>
	</g>
	<g>
		<polygon id="XMLID_1361_" fill="#A7373E" points="659.1,231.1 659.1,165.9 707.2,165.9 707.2,231.1 719.8,231.1 719.8,305.4 
			646.6,305.4 646.6,231.1 		"/>
		<path id="XMLID_1342_" fill="#E48082" d="M646.6,228.8v132.7h76.6V228.8h-11.4v-64.5c-5.7-1.2-12.2-5.9-16.3-13.2
			c-1.6-2.7-2.6-5.8-3.3-8.1h-15.4c-0.7,2.3-2.2,5.1-3.7,7.6c-4.3,7.5-10.5,12.3-17.4,13.3v64.9H646.6z M702.6,267.6
			c0-3.6,3.1-6.5,6.7-6.5c3.8,0,7,3.1,7,6.9v14.7c-4.6,0-9.2,0-13.7,0V267.6z M702.6,241.8c0-3.7,3.1-6.6,6.8-6.6
			c3.8,0,6.9,3,6.9,6.8v14.3c-4.6,0-9.2,0-13.7,0V241.8z M662.9,181.7 M685.5,267.7c0-3.7,2.6-6.6,6.2-6.6c3.7,0,6.4,3,6.4,6.8v14.8
			c-4.6,0-8,0-12.6,0V267.7z M685.5,241.9c0-3.7,2.6-6.7,6.3-6.7c3.7,0,6.3,3,6.3,6.7v14.3c-4.6,0-8,0-12.6,0V241.9z M667.2,267.5
			c0-3.6,3.1-6.5,6.7-6.5c3.8,0,7.1,3.1,7.1,6.9v14.6c-4.6,0-8,0-13.7,0V267.5z M667.2,241.8c0-3.7,3.1-6.7,6.8-6.7
			c3.7,0,6.9,3,6.9,6.8v14.3c-4.6,0-8,0-13.7,0V241.8z M650,267.6c0-3.6,3.1-6.6,6.7-6.6c3.8,0,7,3.1,7,6.9v14.7
			c-3.4,0-9.2,0-13.7,0V267.6z M650,241.8c0-3.7,3.1-6.7,6.8-6.7c3.7,0,6.9,3,6.9,6.8v14.3c-4.6,0-9.2,0-13.7,0V241.8z"/>
		<path id="XMLID_1341_" opacity="0.15" d="M671,153.3c0.9-1.1,1.8-1.8,2.5-3.1c1.5-2.5,2.5-4.9,3.2-7.2h15.4
			c0.7,2.3,1.8,4.9,3.4,7.6c0.7,1.1,1.4,1.5,2.1,2.7H671z"/>
		<path fill="#E48082" d="M682.5,132.2c0.4-0.6,1-0.6,1.7-0.6h0c0.7,0,1.4,0,1.8,0.6c3,4.8,8.7,8.9,8.7,12.5c0,1.4-0.4,2.8-1.2,4
			c0,0,0,0,0,0h-18.6c-0.7-1.1-1.2-2.5-1.2-3.9C673.8,141.2,679.5,137,682.5,132.2z"/>
		<rect x="646.6" y="292.8" opacity="0.15" width="76.6" height="59.5"/>
		<rect x="646.6" y="292.8" opacity="0.15" width="76.6" height="4.6"/>
		<g id="XMLID_1332_">
			<path fill="#5B3939" d="M664.9,319.2c0-10.8,9.2-19.6,20-19.6c10.8,0,20,8.8,20,19.6v42.3h-40V319.2z"/>
			<g id="XMLID_1334_">
				
					<line id="XMLID_1336_" fill="none" stroke="#D4E5E6" stroke-width="2" stroke-linecap="round" stroke-miterlimit="10" x1="690" y1="326" x2="690" y2="334"/>
				
					<line id="XMLID_1335_" fill="none" stroke="#D4E5E6" stroke-width="2" stroke-linecap="round" stroke-miterlimit="10" x1="679.7" y1="326" x2="679.7" y2="334"/>
			</g>
			<path id="XMLID_1333_" fill="#422A2A" d="M684.9,299.6c0.4,0,0.6,0,0.6,0.1v61.8h-1.1v-61.8C684.3,299.7,684.4,299.6,684.9,299.6
				z"/>
		</g>
		<rect x="640.8" y="352.3" fill="#E48082" width="88.1" height="9.2"/>
		<rect x="643.1" y="226.5" fill="#5B3939" width="81.2" height="2.3"/>
		<g id="XMLID_1326_">
			<path fill="none" stroke="#D4E5E6" stroke-linecap="round" stroke-miterlimit="10" d="M703.2,241.7c0-3.6,2.6-6.6,6.3-6.6
				c3.6,0,6.3,3,6.3,6.6v14h-12.6V241.7z"/>
			
				<line id="XMLID_1329_" fill="none" stroke="#D4E5E6" stroke-linecap="round" stroke-miterlimit="10" x1="710" y1="235.7" x2="710" y2="256.2"/>
			
				<line id="XMLID_1328_" fill="none" stroke="#D4E5E6" stroke-linecap="round" stroke-miterlimit="10" x1="716.3" y1="248.8" x2="702.6" y2="248.8"/>
			
				<line id="XMLID_1327_" fill="none" stroke="#D4E5E6" stroke-linecap="round" stroke-miterlimit="10" x1="716.3" y1="243.1" x2="702.6" y2="243.1"/>
		</g>
		<g id="XMLID_1320_">
			<path fill="none" stroke="#D4E5E6" stroke-linecap="round" stroke-miterlimit="10" d="M686,241.7c0-3.6,2.6-6.6,6.3-6.6
				c3.6,0,6.3,3,6.3,6.6v14H686V241.7z"/>
			
				<line id="XMLID_1323_" fill="none" stroke="#D4E5E6" stroke-linecap="round" stroke-miterlimit="10" x1="691.7" y1="235.7" x2="691.7" y2="256.2"/>
			
				<line id="XMLID_1322_" fill="none" stroke="#D4E5E6" stroke-linecap="round" stroke-miterlimit="10" x1="698" y1="248.8" x2="685.5" y2="248.8"/>
			
				<line id="XMLID_1321_" fill="none" stroke="#D4E5E6" stroke-linecap="round" stroke-miterlimit="10" x1="698" y1="243.1" x2="685.5" y2="243.1"/>
		</g>
		<g id="XMLID_1311_">
			<path id="XMLID_1318_" fill="#A7373E" d="M690,207.1v11.4h11.4v-11.4c0-3.1-2.6-5.6-5.7-5.6C692.6,201.5,690,204,690,207.1z"/>
			<path id="XMLID_1316_" fill="#A7373E" d="M667.2,207.1v11.4h11.4v-11.4c0-3.1-2.6-5.6-5.7-5.6C669.8,201.5,667.2,204,667.2,207.1
				z"/>
			<path id="XMLID_1314_" fill="#A7373E" d="M688.9,182v12.5h10.3V182c0-3.1-2-5.6-5.1-5.6S688.9,178.9,688.9,182z"/>
			<path id="XMLID_1312_" fill="#A7373E" d="M667.2,182v12.5h11.4V182c0-3.1-2.6-5.6-5.7-5.6S667.2,178.9,667.2,182z"/>
		</g>
		<g id="XMLID_1305_">
			<path fill="none" stroke="#D4E5E6" stroke-linecap="round" stroke-miterlimit="10" d="M690.6,207.1c0-2.8,2.3-5.1,5.1-5.1
				c2.8,0,5.1,2.3,5.1,5.1v10.8h-10.3V207.1z"/>
			
				<line id="XMLID_1308_" fill="none" stroke="#D4E5E6" stroke-linecap="round" stroke-miterlimit="10" x1="695.2" y1="201.3" x2="695.2" y2="218.5"/>
			
				<line id="XMLID_1307_" fill="none" stroke="#D4E5E6" stroke-linecap="round" stroke-miterlimit="10" x1="699.2" y1="213.3" x2="690" y2="213.3"/>
			
				<line id="XMLID_1306_" fill="none" stroke="#D4E5E6" stroke-linecap="round" stroke-miterlimit="10" x1="699.2" y1="208.8" x2="690" y2="208.8"/>
		</g>
		<g id="XMLID_1299_">
			<path fill="none" stroke="#D4E5E6" stroke-linecap="round" stroke-miterlimit="10" d="M667.7,207.1c0-2.8,2.3-5.1,5.1-5.1
				c2.8,0,5.1,2.3,5.1,5.1v10.8h-10.3V207.1z"/>
			
				<line id="XMLID_1302_" fill="none" stroke="#D4E5E6" stroke-linecap="round" stroke-miterlimit="10" x1="672.3" y1="201.3" x2="672.3" y2="218.5"/>
			
				<line id="XMLID_1301_" fill="none" stroke="#D4E5E6" stroke-linecap="round" stroke-miterlimit="10" x1="678.6" y1="213.3" x2="668.3" y2="213.3"/>
			
				<line id="XMLID_1300_" fill="none" stroke="#D4E5E6" stroke-linecap="round" stroke-miterlimit="10" x1="678.6" y1="208.8" x2="668.3" y2="208.8"/>
		</g>
		<g id="XMLID_1293_">
			<path fill="none" stroke="#D4E5E6" stroke-linecap="round" stroke-miterlimit="10" d="M689.5,182c0-2.8,1.8-5.1,4.6-5.1
				c2.8,0,4.6,2.3,4.6,5.1v10.7h-9.2V182z"/>
			
				<line id="XMLID_1296_" fill="none" stroke="#D4E5E6" stroke-linecap="round" stroke-miterlimit="10" x1="694" y1="177.3" x2="694" y2="194.5"/>
			
				<line id="XMLID_1295_" fill="none" stroke="#D4E5E6" stroke-linecap="round" stroke-miterlimit="10" x1="699.2" y1="188.2" x2="690" y2="188.2"/>
			
				<line id="XMLID_1294_" fill="none" stroke="#D4E5E6" stroke-linecap="round" stroke-miterlimit="10" x1="699.2" y1="183.6" x2="690" y2="183.6"/>
		</g>
		<g id="XMLID_1287_">
			<path fill="none" stroke="#D4E5E6" stroke-linecap="round" stroke-miterlimit="10" d="M667.7,182c0-2.8,2.3-5.1,5.1-5.1
				c2.8,0,5.1,2.3,5.1,5.1v10.7h-10.3V182z"/>
			
				<line id="XMLID_1290_" fill="none" stroke="#D4E5E6" stroke-linecap="round" stroke-miterlimit="10" x1="672.3" y1="177.3" x2="672.3" y2="194.5"/>
			
				<line id="XMLID_1289_" fill="none" stroke="#D4E5E6" stroke-linecap="round" stroke-miterlimit="10" x1="678.6" y1="188.2" x2="667.2" y2="188.2"/>
			
				<line id="XMLID_1288_" fill="none" stroke="#D4E5E6" stroke-linecap="round" stroke-miterlimit="10" x1="678.6" y1="183.6" x2="667.2" y2="183.6"/>
		</g>
		<g id="XMLID_1281_">
			<path fill="none" stroke="#D4E5E6" stroke-linecap="round" stroke-miterlimit="10" d="M667.7,241.7c0-3.6,2.6-6.6,6.3-6.6
				s6.3,3,6.3,6.6v14h-12.6V241.7z"/>
			
				<line id="XMLID_1284_" fill="none" stroke="#D4E5E6" stroke-linecap="round" stroke-miterlimit="10" x1="673.4" y1="235.7" x2="673.4" y2="256.2"/>
			
				<line id="XMLID_1283_" fill="none" stroke="#D4E5E6" stroke-linecap="round" stroke-miterlimit="10" x1="680.9" y1="248.8" x2="668.3" y2="248.8"/>
			
				<line id="XMLID_1282_" fill="none" stroke="#D4E5E6" stroke-linecap="round" stroke-miterlimit="10" x1="680.9" y1="243.1" x2="668.3" y2="243.1"/>
		</g>
		<g id="XMLID_1275_">
			<path fill="none" stroke="#D4E5E6" stroke-linecap="round" stroke-miterlimit="10" d="M650.6,241.8c0-3.6,2.6-6.6,6.3-6.6
				s6.3,3,6.3,6.6v13.9h-12.6V241.8z"/>
			
				<line id="XMLID_1278_" fill="none" stroke="#D4E5E6" stroke-linecap="round" stroke-miterlimit="10" x1="656.3" y1="235.7" x2="656.3" y2="256.2"/>
			
				<line id="XMLID_1277_" fill="none" stroke="#D4E5E6" stroke-linecap="round" stroke-miterlimit="10" x1="663.7" y1="248.8" x2="651.1" y2="248.8"/>
			
				<line id="XMLID_1276_" fill="none" stroke="#D4E5E6" stroke-linecap="round" stroke-miterlimit="10" x1="663.7" y1="243.1" x2="651.1" y2="243.1"/>
		</g>
		<g id="XMLID_1269_">
			<path fill="none" stroke="#D4E5E6" stroke-linecap="round" stroke-miterlimit="10" d="M703.2,267.4c0-3.6,2.6-6.6,6.3-6.6
				c3.6,0,6.3,3,6.3,6.6V282h-12.6V267.4z"/>
			
				<line id="XMLID_1272_" fill="none" stroke="#D4E5E6" stroke-linecap="round" stroke-miterlimit="10" x1="710" y1="262" x2="710" y2="282.6"/>
			
				<line id="XMLID_1271_" fill="none" stroke="#D4E5E6" stroke-linecap="round" stroke-miterlimit="10" x1="716.3" y1="275.1" x2="702.6" y2="275.1"/>
			
				<line id="XMLID_1270_" fill="none" stroke="#D4E5E6" stroke-linecap="round" stroke-miterlimit="10" x1="716.3" y1="269.4" x2="702.6" y2="269.4"/>
		</g>
		<g id="XMLID_1263_">
			<path fill="none" stroke="#D4E5E6" stroke-linecap="round" stroke-miterlimit="10" d="M686,267.5c0-3.6,2.6-6.6,6.3-6.6
				c3.6,0,6.3,3,6.3,6.6V282H686V267.5z"/>
			
				<line id="XMLID_1266_" fill="none" stroke="#D4E5E6" stroke-linecap="round" stroke-miterlimit="10" x1="691.7" y1="262" x2="691.7" y2="282.6"/>
			
				<line id="XMLID_1265_" fill="none" stroke="#D4E5E6" stroke-linecap="round" stroke-miterlimit="10" x1="698" y1="275.1" x2="685.5" y2="275.1"/>
			
				<line id="XMLID_1264_" fill="none" stroke="#D4E5E6" stroke-linecap="round" stroke-miterlimit="10" x1="698" y1="269.4" x2="685.5" y2="269.4"/>
		</g>
		<g id="XMLID_1257_">
			<path fill="none" stroke="#D4E5E6" stroke-linecap="round" stroke-miterlimit="10" d="M667.7,267.4c0-3.6,2.6-6.6,6.3-6.6
				s6.3,3,6.3,6.6V282h-12.6V267.4z"/>
			
				<line id="XMLID_1260_" fill="none" stroke="#D4E5E6" stroke-linecap="round" stroke-miterlimit="10" x1="673.4" y1="262" x2="673.4" y2="282.6"/>
			
				<line id="XMLID_1259_" fill="none" stroke="#D4E5E6" stroke-linecap="round" stroke-miterlimit="10" x1="680.9" y1="275.1" x2="667.2" y2="275.1"/>
			
				<line id="XMLID_1258_" fill="none" stroke="#D4E5E6" stroke-linecap="round" stroke-miterlimit="10" x1="680.9" y1="269.4" x2="667.2" y2="269.4"/>
		</g>
		<g id="XMLID_1251_">
			<path fill="none" stroke="#D4E5E6" stroke-linecap="round" stroke-miterlimit="10" d="M650.6,267.5c0-3.6,2.6-6.6,6.3-6.6
				s6.3,3,6.3,6.6V282h-12.6V267.5z"/>
			
				<line id="XMLID_1254_" fill="none" stroke="#D4E5E6" stroke-linecap="round" stroke-miterlimit="10" x1="656.3" y1="262" x2="656.3" y2="282.6"/>
			
				<line id="XMLID_1253_" fill="none" stroke="#D4E5E6" stroke-linecap="round" stroke-miterlimit="10" x1="663.7" y1="275.1" x2="650" y2="275.1"/>
			
				<line id="XMLID_1252_" fill="none" stroke="#D4E5E6" stroke-linecap="round" stroke-miterlimit="10" x1="663.7" y1="269.4" x2="650" y2="269.4"/>
		</g>
		<rect x="643.1" y="287.1" fill="#D4E5E6" width="81.2" height="5.7"/>
		<rect x="711.8" y="159" fill="#FFFFFF" width="4.6" height="67.5"/>
		<rect x="655.7" y="221.9" opacity="0.15" width="56.1" height="6.9"/>
		<rect x="652.3" y="170.4" opacity="0.15" width="64.1" height="3.4"/>
		<circle id="XMLID_1250_" fill="#FFFFFF" cx="713.8" cy="158.3" r="4.3"/>
		<rect x="652.3" y="159" fill="#FFFFFF" width="5.7" height="67.5"/>
		<circle id="XMLID_1249_" fill="#FFFFFF" cx="654.6" cy="158.3" r="4.3"/>
		
			<line id="XMLID_1248_" fill="none" stroke="#FFFFFF" stroke-width="2" stroke-linecap="round" stroke-miterlimit="10" x1="693.5" y1="147.6" x2="675.2" y2="147.6"/>
		<rect x="651.1" y="164.7" fill="#5B3939" width="67.5" height="5.7"/>
	</g>
	<g>
		<rect x="732.4" y="265.4" fill="#E1DAAA" width="128.1" height="96.1"/>
		<rect x="733.5" y="291.7" fill="#FEF8D2" width="127" height="69.8"/>
		<rect x="733.5" y="274.5" fill="#FEF8D2" width="127" height="8"/>
		<g id="XMLID_1247_">
			<rect x="837.6" y="299.7" fill="#67615B" width="8" height="13.7"/>
			<rect x="825" y="299.7" fill="#67615B" width="8" height="13.7"/>
			<rect x="812.4" y="299.7" fill="#67615B" width="6.9" height="13.7"/>
			<rect x="799.8" y="299.7" fill="#67615B" width="6.9" height="13.7"/>
			<rect x="787.3" y="299.7" fill="#67615B" width="6.9" height="13.7"/>
			<rect x="773.5" y="299.7" fill="#67615B" width="8" height="13.7"/>
			<rect x="761" y="299.7" fill="#67615B" width="8" height="13.7"/>
			<rect x="749.5" y="299.7" fill="#67615B" width="6.9" height="13.7"/>
			<rect x="837.6" y="318" fill="#67615B" width="8" height="14.9"/>
			<rect x="825" y="318" fill="#67615B" width="8" height="14.9"/>
			<rect x="812.4" y="318" fill="#67615B" width="6.9" height="14.9"/>
			<rect x="799.8" y="318" fill="#67615B" width="6.9" height="14.9"/>
			<rect x="787.3" y="318" fill="#67615B" width="6.9" height="14.9"/>
			<rect x="773.5" y="318" fill="#67615B" width="8" height="14.9"/>
			<rect x="761" y="318" fill="#67615B" width="8" height="14.9"/>
			<rect x="749.5" y="318" fill="#67615B" width="6.9" height="14.9"/>
			<rect x="837.6" y="336.3" fill="#67615B" width="8" height="16"/>
			<rect x="825" y="336.3" fill="#67615B" width="8" height="16"/>
			<rect x="812.4" y="336.3" fill="#67615B" width="6.9" height="16"/>
			<rect x="799.8" y="336.3" fill="#67615B" width="6.9" height="16"/>
			<rect x="787.3" y="336.3" fill="#67615B" width="6.9" height="16"/>
			<rect x="773.5" y="336.3" fill="#67615B" width="8" height="16"/>
			<rect x="761" y="336.3" fill="#67615B" width="8" height="16"/>
			<rect x="749.5" y="336.3" fill="#67615B" width="6.9" height="16"/>
		</g>
		<polygon id="XMLID_1246_" fill="#67615B" points="866.2,338.6 928,338.6 928,225.8 866.2,212.8 		"/>
		<path id="XMLID_1212_" fill="#E1DAAA" d="M860.5,204.3v157.2H928V220.9L860.5,204.3z M878.8,223.1h-6.9v-8h6.9V223.1z
			 M878.8,235.7h-6.9v-6.9h6.9V235.7z M878.8,249.4h-6.9v-8h6.9V249.4z M878.8,262h-6.9v-6.9h6.9V262z M912,307.7h6.9v9.2H912V307.7
			z M912,295.1h6.9v8H912V295.1z M912,281.4h6.9v9.2H912V281.4z M912,268.8h6.9v6.9H912V268.8z M912,255.1h6.9v6.9H912V255.1z
			 M912,241.4h6.9v8H912V241.4z M912,228.8h6.9v6.9H912V228.8z M898.2,321.4h6.9v8h-6.9V321.4z M898.2,307.7h6.9v9.2h-6.9V307.7z
			 M898.2,295.1h6.9v8h-6.9V295.1z M898.2,281.4h6.9v9.2h-6.9V281.4z M898.2,268.8h6.9v6.9h-6.9V268.8z M898.2,255.1h6.9v6.9h-6.9
			V255.1z M898.2,241.4h6.9v8h-6.9V241.4z M898.2,228.8h6.9v6.9h-6.9V228.8z M892.5,235.7h-6.9v-6.9h6.9V235.7z M884.5,321.4h8v8h-8
			V321.4z M884.5,307.7h8v9.2h-8V307.7z M884.5,295.1h8v8h-8V295.1z M884.5,281.4h8v9.2h-8V281.4z M884.5,268.8h8v6.9h-8V268.8z
			 M884.5,255.1h8v6.9h-8V255.1z M884.5,241.4h8v8h-8V241.4z M878.8,275.7h-6.9v-6.9h6.9V275.7z M869.6,321.4h9.2v9.2h-9.2V321.4z
			 M869.6,307.7h9.2v9.2h-9.2V307.7z M869.6,295.1h9.2v8h-9.2V295.1z M869.6,281.4h9.2v9.2h-9.2V281.4z"/>
		<rect x="845.6" y="265.4" opacity="0.63" width="14.9" height="96.1"/>
		<rect x="728.9" y="264.3" fill="#67615B" width="131.6" height="3.4"/>
	</g>
	<g>
		<rect x="1003.5" y="229.9" fill="#E2CB85" width="50.3" height="85.8"/>
		<path id="XMLID_1191_" fill="#B76959" d="M1001.2,223.1v138.4h58.3V223.1H1001.2z M1016.1,308.9h-8v-5.7h8V308.9z M1016.1,298.6
			h-8v-8h8V298.6z M1016.1,287.1h-8v-8h8V287.1z M1016.1,274.5h-8v-6.9h8V274.5z M1016.1,263.1h-8v-8h8V263.1z M1016.1,251.7h-8v-8
			h8V251.7z M1016.1,239.1h-8v-5.7h8V239.1z M1028.6,308.9h-6.9v-5.7h6.9V308.9z M1028.6,298.6h-6.9v-8h6.9V298.6z M1028.6,287.1
			h-6.9v-8h6.9V287.1z M1028.6,274.5h-6.9v-6.9h6.9V274.5z M1028.6,263.1h-6.9v-8h6.9V263.1z M1028.6,251.7h-6.9v-8h6.9V251.7z
			 M1028.6,239.1h-6.9v-5.7h6.9V239.1z M1040.1,308.9h-6.9v-5.7h6.9V308.9z M1040.1,298.6h-6.9v-8h6.9V298.6z M1040.1,287.1h-6.9v-8
			h6.9V287.1z M1051.5,308.9h-6.9v-5.7h6.9V308.9z M1051.5,298.6h-6.9v-8h6.9V298.6z"/>
		<g id="XMLID_1184_">
			<path fill="#5B3939" d="M1017.2,332.8c0-7.3,5.8-13.3,13.2-13.3c7.3,0,13.2,6,13.2,13.3v28.7h-26.3V332.8z"/>
			<g id="XMLID_1186_">
				
					<line id="XMLID_1188_" fill="none" stroke="#D4E5E6" stroke-width="2" stroke-linecap="round" stroke-miterlimit="10" x1="1034.4" y1="338.6" x2="1034.4" y2="343.2"/>
				
					<line id="XMLID_1187_" fill="none" stroke="#D4E5E6" stroke-width="2" stroke-linecap="round" stroke-miterlimit="10" x1="1027.5" y1="338.6" x2="1027.5" y2="343.2"/>
			</g>
			<path id="XMLID_1185_" fill="#422A2A" d="M1030.4,319.5c0.3,0,0.6,0,0.6,0v41.9h-1.1v-41.9
				C1029.8,319.6,1030.1,319.5,1030.4,319.5z"/>
		</g>
		<g id="XMLID_1035_">
			<g id="XMLID_1183_">
				<rect x="1063" y="152.1" fill="#8F5145" width="46.9" height="115.5"/>
			</g>
			<g id="XMLID_1181_">
				<rect id="XMLID_1182_" x="1098.4" y="103" fill="#B76959" width="2.3" height="40"/>
			</g>
			<g id="XMLID_1178_">
				<g id="XMLID_1179_">
					<rect id="XMLID_1180_" x="1072.1" y="117.8" fill="#B76959" width="2.3" height="25.2"/>
				</g>
			</g>
			<g id="XMLID_1176_">
				<g id="XMLID_1177_">
					<rect x="1089.3" y="138.4" fill="#5B3939" width="20.6" height="13.7"/>
				</g>
			</g>
			<g id="XMLID_1175_">
				<rect x="1067.5" y="138.4" fill="#5B3939" width="12.6" height="13.7"/>
			</g>
			<g id="XMLID_1164_">
				<path id="XMLID_1165_" fill="#8F5145" d="M1058.9,152.1l0.6,209.3h56.5l-0.6-209.3H1058.9z M1100.7,189.9h6.9v5.7h-6.9V189.9z
					 M1100.7,178.5h6.9v6.9h-6.9V178.5z M1100.7,169.3h6.9v6.9h-6.9V169.3z M1100.7,159h6.9v5.7h-6.9V159z M1090.4,157.9h3.4v19.4
					h-3.4V157.9z M1081.3,157.9h4.6v19.4h-4.6V157.9z M1073.3,157.9h5.7v19.4h-5.7V157.9z M1066.4,157.9h3.4v19.4h-3.4V157.9z"/>
			</g>
			<g id="XMLID_1148_">
				<path fill="#E2CB85" d="M1106.4,214.5c0-1-0.8-1.7-1.7-1.7h-10.2c-1,0-1.7,0.8-1.7,1.7v21.7c0,1,0.8,1.7,1.7,1.7h10.2
					c1,0,1.7-0.8,1.7-1.7V214.5z"/>
				<rect x="1092.7" y="212.8" fill="#5B3939" width="12.6" height="16"/>
				<path id="XMLID_1163_" opacity="0.2" d="M1093.5,212.8h10.7c0.4,0,0.8,0,1,0h-8.7c-0.7,0-1.5,0.9-1.5,1.6v23
					c0,0.3,0.3,0.6,0.5,0.6h-2c-0.7,0-0.8-0.4-0.8-1.1v-23C1092.7,213.1,1092.8,212.8,1093.5,212.8z"/>
				<path fill="none" stroke="#FCEFD0" stroke-miterlimit="10" d="M1092.1,238.5h12.6v-24.3c0-1,0.1-2-1-2h-9.8
					c-1.1,0-1.8,1-1.8,2.1V238.5z"/>
				<path id="XMLID_1160_" fill="#FCEFD0" d="M1095.9,211.6c0.1-1.1,1.4-2.9,3-2.9c1.6,0,2.9,1.7,3,2.9H1095.9z"/>
				<rect x="1092.7" y="223.1" fill="#FCEFD0" width="12.6" height="2.3"/>
				<rect x="1090.4" y="236.8" fill="#FCEFD0" width="17.2" height="2.3"/>
				<polygon opacity="0.2" points="1087.4,242.5 1105.6,242.5 1107.9,239.1 1089.7,239.1 				"/>
				<polygon id="XMLID_1159_" fill="#8F5145" points="1093.9,233.4 1104,233.4 1102.8,236.8 1095,236.8 				"/>
				<circle id="XMLID_1158_" fill="#286024" cx="1103" cy="233.1" r="1.5"/>
				<circle id="XMLID_1157_" fill="#286024" cx="1101.6" cy="231.7" r="1.3"/>
				<circle id="XMLID_1156_" fill="#286024" cx="1100.3" cy="233" r="1.3"/>
				<circle id="XMLID_1155_" fill="#286024" cx="1100.1" cy="230.7" r="1.2"/>
				<circle id="XMLID_1154_" fill="#286024" cx="1097.9" cy="232.9" r="1.2"/>
				<circle id="XMLID_1153_" fill="#286024" cx="1096.7" cy="231.9" r="0.8"/>
				<circle id="XMLID_1152_" fill="#286024" cx="1096" cy="233" r="0.9"/>
				<circle id="XMLID_1151_" fill="#286024" cx="1094.7" cy="232.1" r="1.5"/>
				<circle id="XMLID_1150_" fill="#286024" cx="1097.6" cy="231.5" r="1.5"/>
				<ellipse id="XMLID_1149_" fill="#286024" cx="1100" cy="232.1" rx="1.5" ry="1.3"/>
			</g>
			<g id="XMLID_1132_">
				<path fill="#E2CB85" d="M1082.4,214.5c0-1-0.8-1.7-1.7-1.7h-10.2c-1,0-1.7,0.8-1.7,1.7v21.7c0,1,0.8,1.7,1.7,1.7h10.2
					c1,0,1.7-0.8,1.7-1.7V214.5z"/>
				<rect x="1068.7" y="211.6" fill="#5B3939" width="13.7" height="5.7"/>
				<path id="XMLID_1147_" opacity="0.2" d="M1070.4,212.8h10.7c0.4,0,0.8,0,1,0h-8.7c-0.7,0-0.1,0.7-0.1,1.4v23
					c0,0.3-1.1,0.8-0.9,0.8h-2c-0.7,0-1.7-0.6-1.7-1.3v-23C1068.7,213,1069.7,212.8,1070.4,212.8z"/>
				<path fill="none" stroke="#FCEFD0" stroke-miterlimit="10" d="M1069.2,237.4h12.6v-23.3c0-1-0.7-1.9-1.7-1.9h-9.3
					c-0.8,0-1.6,0.8-1.6,1.6V237.4z"/>
				<path id="XMLID_1144_" fill="#FCEFD0" d="M1072.8,211.6c0.1-1.1,1.4-2.9,3-2.9c1.6,0,2.9,1.7,3,2.9H1072.8z"/>
				<rect x="1068.7" y="223.1" fill="#FCEFD0" width="13.7" height="2.3"/>
				<rect x="1066.4" y="235.7" fill="#FCEFD0" width="19.4" height="3.4"/>
				<polygon opacity="0.2" points="1064.2,242.5 1082.4,242.5 1084.7,239.1 1066.5,239.1 				"/>
				<polygon id="XMLID_1143_" fill="#8F5145" points="1070.7,233.4 1080.8,233.4 1079.7,235.7 1071.9,235.7 				"/>
				<circle id="XMLID_1142_" fill="#286024" cx="1079.8" cy="232.9" r="1.5"/>
				<circle id="XMLID_1141_" fill="#286024" cx="1078.4" cy="231.5" r="1.3"/>
				<circle id="XMLID_1140_" fill="#286024" cx="1077.1" cy="232.9" r="1.3"/>
				<circle id="XMLID_1139_" fill="#286024" cx="1076.9" cy="230.6" r="1.2"/>
				<circle id="XMLID_1138_" fill="#286024" cx="1074.7" cy="232.7" r="1.2"/>
				<circle id="XMLID_1137_" fill="#286024" cx="1073.5" cy="231.7" r="0.8"/>
				<circle id="XMLID_1136_" fill="#286024" cx="1072.9" cy="232.8" r="0.9"/>
				<circle id="XMLID_1135_" fill="#286024" cx="1071.5" cy="231.9" r="1.5"/>
				<circle id="XMLID_1134_" fill="#286024" cx="1074.4" cy="231.3" r="1.5"/>
				<ellipse id="XMLID_1133_" fill="#286024" cx="1076.8" cy="231.9" rx="1.5" ry="1.3"/>
			</g>
			<g id="XMLID_1116_">
				<path fill="#E2CB85" d="M1106.4,261.4c0-1-0.8-1.7-1.7-1.7h-10.2c-1,0-1.7,0.8-1.7,1.7v21.7c0,1,0.8,1.7,1.7,1.7h10.2
					c1,0,1.7-0.8,1.7-1.7V261.4z"/>
				<rect x="1092.7" y="259.7" fill="#5B3939" width="12.6" height="6.9"/>
				<path id="XMLID_1131_" opacity="0.2" d="M1093.5,259.7h10.7c0.4,0,0.8,0,1,0h-8.7c-0.7,0-1.5,0.6-1.5,1.3v23
					c0,0.3,0.3,0.9,0.5,0.9h-2c-0.7,0-0.8-0.7-0.8-1.4v-23C1092.7,259.7,1092.8,259.7,1093.5,259.7z"/>
				<path fill="none" stroke="#FCEFD0" stroke-miterlimit="10" d="M1092.1,285.4h12.6v-24.6c0-1.2,0-1.7-1.2-1.7h-9.6
					c-1.1,0-1.8,0.4-1.8,1.5V285.4z"/>
				<path id="XMLID_1128_" fill="#FCEFD0" d="M1095.9,259.7c0.1-3.4,1.4-2.9,3-2.9c1.6,0,2.9-0.6,3,2.9H1095.9z"/>
				<rect x="1092.7" y="268.8" fill="#FCEFD0" width="12.6" height="4.6"/>
				<rect x="1090.4" y="282.6" fill="#FCEFD0" width="17.2" height="3.4"/>
				<polygon opacity="0.2" points="1087.4,287.1 1105.6,287.1 1107.9,286 1089.7,286 				"/>
				<polygon id="XMLID_1127_" fill="#8F5145" points="1093.9,279.1 1104,279.1 1102.8,282.6 1095,282.6 				"/>
				<circle id="XMLID_1126_" fill="#286024" cx="1103" cy="279.6" r="1.5"/>
				<circle id="XMLID_1125_" fill="#286024" cx="1101.6" cy="278.3" r="1.3"/>
				<circle id="XMLID_1124_" fill="#286024" cx="1100.3" cy="279.6" r="1.3"/>
				<circle id="XMLID_1123_" fill="#286024" cx="1100.1" cy="277.3" r="1.2"/>
				<circle id="XMLID_1122_" fill="#286024" cx="1097.9" cy="279.5" r="1.2"/>
				<circle id="XMLID_1121_" fill="#286024" cx="1096.7" cy="278.5" r="0.8"/>
				<circle id="XMLID_1120_" fill="#286024" cx="1096" cy="279.6" r="0.9"/>
				<circle id="XMLID_1119_" fill="#286024" cx="1094.7" cy="278.7" r="1.5"/>
				<circle id="XMLID_1118_" fill="#286024" cx="1097.6" cy="278.1" r="1.5"/>
				<ellipse id="XMLID_1117_" fill="#286024" cx="1100" cy="278.7" rx="1.5" ry="1.3"/>
			</g>
			<g id="XMLID_1100_">
				<path fill="#E2CB85" d="M1082.4,261.4c0-1-0.8-1.7-1.7-1.7h-10.2c-1,0-1.7,0.8-1.7,1.7v21.7c0,1,0.8,1.7,1.7,1.7h10.2
					c1,0,1.7-0.8,1.7-1.7V261.4z"/>
				<rect x="1068.7" y="259.7" fill="#5B3939" width="13.7" height="14.9"/>
				<path id="XMLID_1115_" opacity="0.2" d="M1070.4,259.7h10.7c0.4,0,0.8,0,1,0h-8.7c-0.7,0-0.1,0.4-0.1,1.1v23
					c0,0.3-1.1,1.1-0.9,1.1h-2c-0.7,0-1.7-0.9-1.7-1.6v-23C1068.7,259.5,1069.7,259.7,1070.4,259.7z"/>
				<path fill="none" stroke="#FCEFD0" stroke-miterlimit="10" d="M1069.2,285.4h12.6v-24.8c0-1.1-0.8-1.5-1.9-1.5h-9
					c-0.8,0-1.6,0.2-1.6,1V285.4z"/>
				<path id="XMLID_1112_" fill="#FCEFD0" d="M1072.8,257.4c0.1-1.1,1.4-2.9,3-2.9c1.6,0,2.9,1.7,3,2.9H1072.8z"/>
				<rect x="1068.7" y="268.8" fill="#FCEFD0" width="13.7" height="3.4"/>
				<rect x="1066.4" y="282.6" fill="#FCEFD0" width="19.4" height="3.4"/>
				<polygon opacity="0.2" points="1064.2,287.1 1082.4,287.1 1084.7,286 1066.5,286 				"/>
				<polygon id="XMLID_1111_" fill="#8F5145" points="1070.7,279.1 1080.8,279.1 1079.7,282.6 1071.9,282.6 				"/>
				<circle id="XMLID_1110_" fill="#286024" cx="1079.8" cy="279.5" r="1.5"/>
				<circle id="XMLID_1109_" fill="#286024" cx="1078.4" cy="278.1" r="1.3"/>
				<circle id="XMLID_1108_" fill="#286024" cx="1077.1" cy="279.4" r="1.3"/>
				<circle id="XMLID_1107_" fill="#286024" cx="1076.9" cy="277.1" r="1.2"/>
				<circle id="XMLID_1106_" fill="#286024" cx="1074.7" cy="279.3" r="1.2"/>
				<circle id="XMLID_1105_" fill="#286024" cx="1073.5" cy="278.3" r="0.8"/>
				<circle id="XMLID_1104_" fill="#286024" cx="1072.9" cy="279.4" r="0.9"/>
				<circle id="XMLID_1103_" fill="#286024" cx="1071.5" cy="278.5" r="1.5"/>
				<circle id="XMLID_1102_" fill="#286024" cx="1074.4" cy="277.9" r="1.5"/>
				<ellipse id="XMLID_1101_" fill="#286024" cx="1076.8" cy="278.5" rx="1.5" ry="1.3"/>
			</g>
			<g id="XMLID_1084_">
				<path fill="#E2CB85" d="M1106.4,300.3c0-1-0.8-1.7-1.7-1.7h-10.2c-1,0-1.7,0.8-1.7,1.7V322c0,1,0.8,1.7,1.7,1.7h10.2
					c1,0,1.7-0.8,1.7-1.7V300.3z"/>
				<path id="XMLID_1099_" opacity="0.2" d="M1093.5,298.6h10.7c0.4,0,0.8,0,1,0h-8.7c-0.7,0-1.5,0-1.5,0.7v23
					c0,0.3,0.3,0.3,0.5,0.3h-2c-0.7,0-0.8-0.1-0.8-0.8v-23C1092.7,298,1092.8,298.6,1093.5,298.6z"/>
				<path fill="none" stroke="#FCEFD0" stroke-miterlimit="10" d="M1092.1,324.3h12.6v-25.1c0-1,0.1-1.2-0.9-1.2h-9.9
					c-1.1,0-1.8,0.3-1.8,1.3V324.3z"/>
				<path id="XMLID_1096_" fill="#FCEFD0" d="M1095.9,296.3c0.1-1.1,1.4-2.9,3-2.9c1.6,0,2.9,1.7,3,2.9H1095.9z"/>
				<rect x="1092.7" y="307.7" fill="#FCEFD0" width="12.6" height="3.4"/>
				<rect x="1090.4" y="320.3" fill="#FCEFD0" width="17.2" height="4.6"/>
				<polygon opacity="0.2" points="1087.3,326 1105.5,326 1107.9,324.9 1089.7,324.9 				"/>
				<polygon id="XMLID_1095_" fill="#8F5145" points="1093.8,318 1104,318 1102.8,320.3 1095,320.3 				"/>
				<circle id="XMLID_1094_" fill="#286024" cx="1102.9" cy="318" r="1.5"/>
				<circle id="XMLID_1093_" fill="#286024" cx="1101.6" cy="316.6" r="1.3"/>
				<circle id="XMLID_1092_" fill="#286024" cx="1100.2" cy="318" r="1.3"/>
				<circle id="XMLID_1091_" fill="#286024" cx="1100.1" cy="315.6" r="1.2"/>
				<circle id="XMLID_1090_" fill="#286024" cx="1097.9" cy="317.8" r="1.2"/>
				<circle id="XMLID_1089_" fill="#286024" cx="1096.7" cy="316.8" r="0.8"/>
				<circle id="XMLID_1088_" fill="#286024" cx="1096" cy="317.9" r="0.9"/>
				<circle id="XMLID_1087_" fill="#286024" cx="1094.6" cy="317" r="1.5"/>
				<circle id="XMLID_1086_" fill="#286024" cx="1097.5" cy="316.4" r="1.5"/>
				<ellipse id="XMLID_1085_" fill="#286024" cx="1099.9" cy="317" rx="1.5" ry="1.3"/>
			</g>
			<g id="XMLID_1068_">
				<path fill="#E2CB85" d="M1082.4,298c0-1-0.8-1.7-1.7-1.7h-10.2c-1,0-1.7,0.8-1.7,1.7v21.7c0,1,0.8,1.7,1.7,1.7h10.2
					c1,0,1.7-0.8,1.7-1.7V298z"/>
				<path id="XMLID_1083_" opacity="0.2" d="M1070.3,296.3h10.7c0.4,0,0.8,2.3,1,2.3h-8.7c-0.7,0-0.1-0.2-0.1,0.5v23
					c0,0.3-1.1,0.5-0.9,0.5h-2c-0.7,0-1.7-0.3-1.7-1v-23C1068.7,297.9,1069.6,296.3,1070.3,296.3z"/>
				<path fill="none" stroke="#FCEFD0" stroke-miterlimit="10" d="M1069.2,322h12.6v-23c0-0.9-0.7-1-1.6-1h-9.4
					c-0.8,0-1.6,0-1.6,0.8V322z"/>
				<path id="XMLID_1080_" fill="#FCEFD0" d="M1072.7,296.3c0.1-1.1,1.4-2.9,3-2.9c1.6,0,2.9,1.7,3,2.9H1072.7z"/>
				<rect x="1068.7" y="307.7" fill="#FCEFD0" width="13.7" height="3.4"/>
				<rect x="1066.4" y="320.3" fill="#FCEFD0" width="19.4" height="2.3"/>
				<polygon opacity="0.2" points="1064.1,326 1082.4,326 1084.7,322.6 1066.5,322.6 				"/>
				<polygon id="XMLID_1079_" fill="#8F5145" points="1070.7,318 1080.8,318 1079.6,320.3 1071.8,320.3 				"/>
				<circle id="XMLID_1078_" fill="#286024" cx="1079.8" cy="317.8" r="1.5"/>
				<circle id="XMLID_1077_" fill="#286024" cx="1078.4" cy="316.4" r="1.3"/>
				<circle id="XMLID_1076_" fill="#286024" cx="1077.1" cy="317.8" r="1.3"/>
				<circle id="XMLID_1075_" fill="#286024" cx="1076.9" cy="315.5" r="1.2"/>
				<circle id="XMLID_1074_" fill="#286024" cx="1074.7" cy="317.6" r="1.2"/>
				<circle id="XMLID_1073_" fill="#286024" cx="1073.5" cy="316.6" r="0.8"/>
				<circle id="XMLID_1072_" fill="#286024" cx="1072.8" cy="317.7" r="0.9"/>
				<circle id="XMLID_1071_" fill="#286024" cx="1071.5" cy="316.8" r="1.5"/>
				<circle id="XMLID_1070_" fill="#286024" cx="1074.4" cy="316.2" r="1.5"/>
				<ellipse id="XMLID_1069_" fill="#286024" cx="1076.7" cy="316.8" rx="1.5" ry="1.3"/>
			</g>
			<rect x="1054.9" y="242.5" fill="#B76959" width="65.2" height="4.6"/>
			<g id="XMLID_1052_">
				<path fill="#E2CB85" d="M1105.3,168.8c0-1-0.8-1.7-1.7-1.7h-10.2c-1,0-1.7,0.8-1.7,1.7v21.7c0,1,0.8,1.7,1.7,1.7h10.2
					c1,0,1.7-0.8,1.7-1.7V168.8z"/>
				<rect x="1091.6" y="167" fill="#5B3939" width="13.7" height="14.9"/>
				<path id="XMLID_1067_" opacity="0.2" d="M1093.2,167h10.7c0.4,0,0.8,0,1,0h-8.7c-0.7,0-1.1,0.6-1.1,1.3v23c0,0.3,0-0.2,0.1-0.2
					h-2c-0.7,0-1.6,0.5-1.6-0.3v-23C1091.6,167.1,1092.4,167,1093.2,167z"/>
				<path fill="none" stroke="#FCEFD0" stroke-miterlimit="10" d="M1092.1,191.6h12.6v-23.5c0-1.1,0-2.8-1.1-2.8h-10
					c-0.9,0-1.5,1.5-1.5,2.5V191.6z"/>
				<path id="XMLID_1064_" fill="#FCEFD0" d="M1095.5,167c0.1-2.3,1.4-2.9,3-2.9c1.6,0,2.9,0.6,3,2.9H1095.5z"/>
				<rect x="1091.6" y="177.3" fill="#FCEFD0" width="13.7" height="1.1"/>
				<rect x="1089.3" y="189.9" fill="#FCEFD0" width="18.3" height="3.4"/>
				<polygon opacity="0.2" points="1087,195.6 1105.2,195.6 1107.5,193.3 1089.3,193.3 				"/>
				<polygon id="XMLID_1063_" fill="#8F5145" points="1093.5,186.5 1103.6,186.5 1102.5,189.9 1094.7,189.9 				"/>
				<circle id="XMLID_1062_" fill="#286024" cx="1102.6" cy="187" r="1.5"/>
				<circle id="XMLID_1061_" fill="#286024" cx="1101.2" cy="185.6" r="1.3"/>
				<circle id="XMLID_1060_" fill="#286024" cx="1099.9" cy="187" r="1.3"/>
				<circle id="XMLID_1059_" fill="#286024" cx="1099.7" cy="184.7" r="1.2"/>
				<circle id="XMLID_1058_" fill="#286024" cx="1097.5" cy="186.8" r="1.2"/>
				<circle id="XMLID_1057_" fill="#286024" cx="1096.3" cy="185.8" r="0.8"/>
				<circle id="XMLID_1056_" fill="#286024" cx="1095.6" cy="186.9" r="0.9"/>
				<circle id="XMLID_1055_" fill="#286024" cx="1094.3" cy="186" r="1.5"/>
				<circle id="XMLID_1054_" fill="#286024" cx="1097.2" cy="185.4" r="1.5"/>
				<ellipse id="XMLID_1053_" fill="#286024" cx="1099.6" cy="186" rx="1.5" ry="1.3"/>
			</g>
			<g id="XMLID_1036_">
				<path fill="#E2CB85" d="M1082.4,168.8c0-1-0.8-1.7-1.7-1.7h-10.2c-1,0-1.7,0.8-1.7,1.7v21.7c0,1,0.8,1.7,1.7,1.7h10.2
					c1,0,1.7-0.8,1.7-1.7V168.8z"/>
				<rect x="1068.7" y="167" fill="#5B3939" width="13.7" height="22.9"/>
				<path id="XMLID_1051_" opacity="0.2" d="M1070,167h10.7c0.4,0,0.8,0,1,0h-8.7c-0.7,0-0.9,0.4-0.9,1.1v23c0,0.3-0.3-0.1-0.2-0.1
					h-2c-0.7,0-1.3,0.3-1.3-0.4v-23C1068.7,166.9,1069.3,167,1070,167z"/>
				<path fill="none" stroke="#FCEFD0" stroke-miterlimit="10" d="M1068.1,191.6h13.7V168c0-1-0.8-2.7-1.8-2.7h-9.7
					c-1.2,0-2.2,1.8-2.2,2.9V191.6z"/>
				<path id="XMLID_1048_" fill="#FCEFD0" d="M1072.4,164.7c0.1,0,1.4-2.9,3-2.9c1.6,0,2.9,2.9,3,2.9H1072.4z"/>
				<rect x="1068.7" y="177.3" fill="#FCEFD0" width="13.7" height="1.1"/>
				<rect x="1066.4" y="189.9" fill="#FCEFD0" width="17.2" height="3.4"/>
				<polygon opacity="0.2" points="1063.8,195.6 1082,195.6 1084.4,193.3 1066.1,193.3 				"/>
				<polygon id="XMLID_1047_" fill="#8F5145" points="1070.3,186.5 1080.5,186.5 1079.3,189.9 1071.5,189.9 				"/>
				<circle id="XMLID_1046_" fill="#286024" cx="1079.4" cy="186.8" r="1.5"/>
				<circle id="XMLID_1045_" fill="#286024" cx="1078.1" cy="185.5" r="1.3"/>
				<circle id="XMLID_1044_" fill="#286024" cx="1076.7" cy="186.8" r="1.3"/>
				<circle id="XMLID_1043_" fill="#286024" cx="1076.5" cy="184.5" r="1.2"/>
				<circle id="XMLID_1042_" fill="#286024" cx="1074.4" cy="186.7" r="1.2"/>
				<circle id="XMLID_1041_" fill="#286024" cx="1073.1" cy="185.6" r="0.8"/>
				<circle id="XMLID_1040_" fill="#286024" cx="1072.5" cy="186.7" r="0.9"/>
				<circle id="XMLID_1039_" fill="#286024" cx="1071.1" cy="185.8" r="1.5"/>
				<circle id="XMLID_1038_" fill="#286024" cx="1074" cy="185.2" r="1.5"/>
				<ellipse id="XMLID_1037_" fill="#286024" cx="1076.4" cy="185.8" rx="1.5" ry="1.3"/>
			</g>
			<rect x="1054.9" y="195.6" fill="#B76959" width="65.2" height="4.6"/>
			<rect x="1054.9" y="287.1" fill="#B76959" width="65.2" height="6.9"/>
			<rect x="1059.5" y="343.2" fill="#5B3939" width="57.2" height="18.3"/>
		</g>
		<g id="XMLID_183_">
			<g id="XMLID_1034_">
				<rect x="950.8" y="154.4" fill="#8F5145" width="48" height="113.3"/>
			</g>
			<g id="XMLID_1023_">
				<path id="XMLID_1024_" fill="#8F5145" d="M945.4,152.1l-0.6,209.3h56.5l0.6-209.3H945.4z M958.9,196.8H952v-6.9h6.9V196.8z
					 M958.9,185.3H952v-6.9h6.9V185.3z M958.9,176.2H952v-6.9h6.9V176.2z M958.9,164.7H952V159h6.9V164.7z M971.4,177.3H968V159h3.4
					V177.3z M978.3,177.3h-3.4V159h3.4V177.3z M986.3,177.3h-3.4V159h3.4V177.3z M995.5,177.3h-5.7V159h5.7V177.3z"/>
			</g>
			<g id="XMLID_1007_">
				<path fill="#E2CB85" d="M969.2,236.2c0,1-0.8,1.7-1.7,1.7h-10.2c-1,0-1.7-0.8-1.7-1.7v-21.7c0-1,0.8-1.7,1.7-1.7h10.2
					c1,0,1.7,0.8,1.7,1.7V236.2z"/>
				<rect x="955.4" y="212.8" fill="#5B3939" width="13.7" height="16"/>
				<path id="XMLID_1022_" opacity="0.2" d="M967.3,212.8h-10.7c-0.4,0-0.8,0-1,0h8.7c0.7,0,0.3,1.3,0.3,2.1v23
					c0,0.3,0.9,0.1,0.7,1.2h2c0.7,0,1.9-1,1.9-1.8v-23C969.2,213.6,968,212.8,967.3,212.8z"/>
				<path fill="none" stroke="#FCEFD0" stroke-miterlimit="10" d="M968.6,238.5H956v-23.6c0-0.7,0.2-1.6,0.9-1.6h9.8
					c0.8,0,1.8,0.9,1.8,1.6V238.5z"/>
				<path id="XMLID_1019_" fill="#FCEFD0" d="M964.9,212.8c-0.1-2.3-1.4-2.9-3-2.9c-1.6,0-2.9,0.6-3,2.9H964.9z"/>
				<rect x="955.4" y="224.2" fill="#FCEFD0" width="13.7" height="2.3"/>
				<rect x="952" y="236.8" fill="#FCEFD0" width="19.4" height="2.3"/>
				<polygon opacity="0.2" points="973.5,242.5 955.2,242.5 952.9,239.1 971.1,239.1 				"/>
				<polygon id="XMLID_1018_" fill="#8F5145" points="966.9,233.4 956.8,233.4 958,236.8 965.8,236.8 				"/>
				<circle id="XMLID_1017_" fill="#286024" cx="957.9" cy="233.5" r="1.5"/>
				<circle id="XMLID_1016_" fill="#286024" cx="959.2" cy="232.2" r="1.3"/>
				<circle id="XMLID_1015_" fill="#286024" cx="960.5" cy="233.5" r="1.3"/>
				<circle id="XMLID_1014_" fill="#286024" cx="960.7" cy="231.2" r="1.2"/>
				<circle id="XMLID_1013_" fill="#286024" cx="962.9" cy="233.4" r="1.2"/>
				<circle id="XMLID_1012_" fill="#286024" cx="964.1" cy="232.4" r="0.8"/>
				<circle id="XMLID_1011_" fill="#286024" cx="964.8" cy="233.5" r="0.9"/>
				<circle id="XMLID_1010_" fill="#286024" cx="966.1" cy="232.6" r="1.5"/>
				<circle id="XMLID_1009_" fill="#286024" cx="963.2" cy="232" r="1.5"/>
				<ellipse id="XMLID_1008_" fill="#286024" cx="960.9" cy="232.5" rx="1.5" ry="1.3"/>
			</g>
			<g id="XMLID_991_">
				<path fill="#E2CB85" d="M992,236.2c0,1-0.8,1.7-1.7,1.7H980c-1,0-1.7-0.8-1.7-1.7v-21.7c0-1,0.8-1.7,1.7-1.7h10.2
					c1,0,1.7,0.8,1.7,1.7V236.2z"/>
				<rect x="978.3" y="212.8" fill="#5B3939" width="12.6" height="4.6"/>
				<path id="XMLID_1006_" opacity="0.2" d="M990.4,212.8h-10.7c-0.4,0-0.8,0-1,0h8.7c0.7,0,1.1,1.2,1.1,1.9v23
					c0,0.3,0.1,0.3-0.1,0.3h2c0.7,0,0.4-0.1,0.4-0.8v-23C990.9,213.4,991.2,212.8,990.4,212.8z"/>
				<path fill="none" stroke="#FCEFD0" stroke-miterlimit="10" d="M991.5,238.5h-13.7v-24c0-1.2,1.4-2.3,2.5-2.3h9.8
					c1,0,1.4,1,1.4,2V238.5z"/>
				<path id="XMLID_1003_" fill="#FCEFD0" d="M988.1,212.8c-0.1-2.3-1.4-2.9-3-2.9s-2.9,0.6-3,2.9H988.1z"/>
				<rect x="978.3" y="223.1" fill="#FCEFD0" width="12.6" height="3.4"/>
				<rect x="976" y="236.8" fill="#FCEFD0" width="18.3" height="2.3"/>
				<polygon opacity="0.2" points="996.6,242.5 978.4,242.5 976.1,239.1 994.3,239.1 				"/>
				<polygon id="XMLID_1002_" fill="#8F5145" points="990.1,233.4 980,233.4 981.1,236.8 988.9,236.8 				"/>
				<circle id="XMLID_1001_" fill="#286024" cx="981" cy="233.3" r="1.5"/>
				<circle id="XMLID_1000_" fill="#286024" cx="982.4" cy="232" r="1.3"/>
				<circle id="XMLID_999_" fill="#286024" cx="983.7" cy="233.3" r="1.3"/>
				<circle id="XMLID_998_" fill="#286024" cx="983.9" cy="231" r="1.2"/>
				<circle id="XMLID_997_" fill="#286024" cx="986.1" cy="233.2" r="1.2"/>
				<circle id="XMLID_996_" fill="#286024" cx="987.3" cy="232.2" r="0.8"/>
				<circle id="XMLID_995_" fill="#286024" cx="988" cy="233.3" r="0.9"/>
				<circle id="XMLID_994_" fill="#286024" cx="989.3" cy="232.4" r="1.5"/>
				<circle id="XMLID_993_" fill="#286024" cx="986.4" cy="231.8" r="1.5"/>
				<ellipse id="XMLID_992_" fill="#286024" cx="984" cy="232.4" rx="1.5" ry="1.3"/>
			</g>
			<g id="XMLID_975_">
				<path fill="#E2CB85" d="M969.2,283.1c0,1-0.8,1.7-1.7,1.7h-10.2c-1,0-1.7-0.8-1.7-1.7v-21.7c0-1,0.8-1.7,1.7-1.7h10.2
					c1,0,1.7,0.8,1.7,1.7V283.1z"/>
				<rect x="955.4" y="259.7" fill="#5B3939" width="13.7" height="8"/>
				<path id="XMLID_990_" opacity="0.2" d="M967.3,259.7h-10.7c-0.4,0-0.8,0-1,1.1h8.7c0.7,0,0.3-0.1,0.3,0.6v23
					c0,0.3,0.9,1.6,0.7,1.6h2c0.7,0,1.9-1.4,1.9-2.1v-23C969.2,260.2,968,259.7,967.3,259.7z"/>
				<path fill="none" stroke="#FCEFD0" stroke-miterlimit="10" d="M968.6,285.4H956v-24.1c0-0.8,0.3-1.1,1.1-1.1h9.6
					c0.8,0,1.8,0.2,1.8,1V285.4z"/>
				<path id="XMLID_987_" fill="#FCEFD0" d="M964.9,259.7c-0.1-2.3-1.4-2.9-3-2.9c-1.6,0-2.9,0.6-3,2.9H964.9z"/>
				<rect x="955.4" y="270" fill="#FCEFD0" width="13.7" height="3.4"/>
				<rect x="952" y="282.6" fill="#FCEFD0" width="19.4" height="3.4"/>
				<polygon opacity="0.2" points="973.5,289.4 955.2,289.4 952.9,286 971.1,286 				"/>
				<polygon id="XMLID_986_" fill="#8F5145" points="966.9,280.3 956.8,280.3 958,282.6 965.8,282.6 				"/>
				<circle id="XMLID_985_" fill="#286024" cx="957.9" cy="280.1" r="1.5"/>
				<circle id="XMLID_984_" fill="#286024" cx="959.2" cy="278.8" r="1.3"/>
				<circle id="XMLID_983_" fill="#286024" cx="960.5" cy="280.1" r="1.3"/>
				<circle id="XMLID_982_" fill="#286024" cx="960.7" cy="277.8" r="1.2"/>
				<circle id="XMLID_981_" fill="#286024" cx="962.9" cy="280" r="1.2"/>
				<circle id="XMLID_980_" fill="#286024" cx="964.1" cy="279" r="0.8"/>
				<circle id="XMLID_979_" fill="#286024" cx="964.8" cy="280" r="0.9"/>
				<circle id="XMLID_978_" fill="#286024" cx="966.1" cy="279.1" r="1.5"/>
				<circle id="XMLID_977_" fill="#286024" cx="963.2" cy="278.6" r="1.5"/>
				<ellipse id="XMLID_976_" fill="#286024" cx="960.9" cy="279.1" rx="1.5" ry="1.3"/>
			</g>
			<g id="XMLID_938_">
				<path fill="#E2CB85" d="M992,283.1c0,1-0.8,1.7-1.7,1.7H980c-1,0-1.7-0.8-1.7-1.7v-21.7c0-1,0.8-1.7,1.7-1.7h10.2
					c1,0,1.7,0.8,1.7,1.7V283.1z"/>
				<rect x="978.3" y="259.7" fill="#5B3939" width="12.6" height="14.9"/>
				<path id="XMLID_974_" opacity="0.2" d="M990.4,259.7h-10.7c-0.4,0-0.8,0-1,1.1h8.7c0.7,0,1.1-0.3,1.1,0.4v23
					c0,0.3,0.1,0.6-0.1,1.7h2c0.7,0,0.4-1.5,0.4-2.3v-23C990.9,260,991.2,259.7,990.4,259.7z"/>
				<path fill="none" stroke="#FCEFD0" stroke-miterlimit="10" d="M991.5,285.4h-13.7v-24.1c0-0.8,1-1,1.8-1h10.9c0.8,0,1,0.2,1,1
					V285.4z"/>
				<path id="XMLID_971_" fill="#FCEFD0" d="M988.1,259.7c-0.1-2.3-1.4-2.9-3-2.9s-2.9,0.6-3,2.9H988.1z"/>
				<rect x="978.3" y="270" fill="#FCEFD0" width="12.6" height="3.4"/>
				<rect x="976" y="282.6" fill="#FCEFD0" width="18.3" height="3.4"/>
				<polygon opacity="0.2" points="996.6,289.4 978.4,289.4 976.1,286 994.3,286 				"/>
				<polygon id="XMLID_970_" fill="#8F5145" points="990.1,279.1 980,279.1 981.1,282.6 988.9,282.6 				"/>
				<circle id="XMLID_969_" fill="#286024" cx="981" cy="279.9" r="1.5"/>
				<circle id="XMLID_968_" fill="#286024" cx="982.4" cy="278.6" r="1.3"/>
				<circle id="XMLID_967_" fill="#286024" cx="983.7" cy="279.9" r="1.3"/>
				<circle id="XMLID_966_" fill="#286024" cx="983.9" cy="277.6" r="1.2"/>
				<circle id="XMLID_965_" fill="#286024" cx="986.1" cy="279.8" r="1.2"/>
				<circle id="XMLID_964_" fill="#286024" cx="987.3" cy="278.8" r="0.8"/>
				<circle id="XMLID_963_" fill="#286024" cx="988" cy="279.9" r="0.9"/>
				<circle id="XMLID_957_" fill="#286024" cx="989.3" cy="279" r="1.5"/>
				<circle id="XMLID_956_" fill="#286024" cx="986.4" cy="278.4" r="1.5"/>
				<ellipse id="XMLID_939_" fill="#286024" cx="984" cy="278.9" rx="1.5" ry="1.3"/>
			</g>
			<g id="XMLID_761_">
				<path fill="#E2CB85" d="M969.2,322c0,1-0.8,1.7-1.7,1.7h-10.2c-1,0-1.7-0.8-1.7-1.7v-21.7c0-1,0.8-1.7,1.7-1.7h10.2
					c1,0,1.7,0.8,1.7,1.7V322z"/>
				<path id="XMLID_868_" opacity="0.2" d="M967.3,298.6h-10.7c-0.4,0-0.8,0-1,0h8.7c0.7,0,1.4,0.5,1.4,1.2v23
					c0,0.3-0.2-0.2-0.4-0.2h2c0.7,0,1.8,0.4,1.8-0.4v-23C969.2,298.5,968,298.6,967.3,298.6z"/>
				<path fill="none" stroke="#FCEFD0" stroke-miterlimit="10" d="M968.6,324.3H956v-24.8c0-1.2,0.6-1.6,1.8-1.6h8.1
					c1.2,0,2.6,0.4,2.6,1.6V324.3z"/>
				<path id="XMLID_840_" fill="#FCEFD0" d="M964.9,298.6c-0.1-3.4-1.4-2.9-3-2.9s-2.9-0.6-3,2.9H964.9z"/>
				<rect x="955.4" y="307.7" fill="#FCEFD0" width="13.7" height="4.6"/>
				<rect x="952" y="321.4" fill="#FCEFD0" width="19.4" height="3.4"/>
				<polygon opacity="0.2" points="973.5,326 955.3,326 952.9,324.9 971.2,324.9 				"/>
				<polygon id="XMLID_836_" fill="#8F5145" points="967,318 956.8,318 958,321.4 965.8,321.4 				"/>
				<circle id="XMLID_835_" fill="#286024" cx="957.9" cy="318.4" r="1.5"/>
				<circle id="XMLID_804_" fill="#286024" cx="959.2" cy="317.1" r="1.3"/>
				<circle id="XMLID_803_" fill="#286024" cx="960.6" cy="318.4" r="1.3"/>
				<circle id="XMLID_786_" fill="#286024" cx="960.8" cy="316.1" r="1.2"/>
				<circle id="XMLID_783_" fill="#286024" cx="962.9" cy="318.3" r="1.2"/>
				<circle id="XMLID_778_" fill="#286024" cx="964.2" cy="317.3" r="0.8"/>
				<circle id="XMLID_775_" fill="#286024" cx="964.8" cy="318.4" r="0.9"/>
				<circle id="XMLID_771_" fill="#286024" cx="966.2" cy="317.5" r="1.5"/>
				<circle id="XMLID_769_" fill="#286024" cx="963.3" cy="316.9" r="1.5"/>
				<ellipse id="XMLID_764_" fill="#286024" cx="960.9" cy="317.5" rx="1.5" ry="1.3"/>
			</g>
			<g id="XMLID_303_">
				<path fill="#E2CB85" d="M992,322c0,1-0.8,1.7-1.7,1.7H980c-1,0-1.7-0.8-1.7-1.7v-21.7c0-1,0.8-1.7,1.7-1.7h10.2
					c1,0,1.7,0.8,1.7,1.7V322z"/>
				<path id="XMLID_756_" opacity="0.2" d="M990.5,298.6h-10.7c-0.4,0-0.8,0-1,0h8.7c0.7,0,1.1,0.3,1.1,1v23c0,0.3,0.1,0-0.1,0h2
					c0.7,0,0.4,0.2,0.4-0.5v-23C990.9,298.3,991.2,298.6,990.5,298.6z"/>
				<path fill="none" stroke="#FCEFD0" stroke-miterlimit="10" d="M991.5,324.3h-13.7v-24.9c0-1.1,1.3-1.4,2.4-1.4h9.7
					c1.1,0,1.6,0.3,1.6,1.4V324.3z"/>
				<path id="XMLID_721_" fill="#FCEFD0" d="M988.1,298.6c-0.1-3.4-1.4-2.9-3-2.9c-1.6,0-2.9-0.6-3,2.9H988.1z"/>
				<rect x="978.3" y="307.7" fill="#FCEFD0" width="12.6" height="3.4"/>
				<rect x="976" y="321.4" fill="#FCEFD0" width="18.3" height="3.4"/>
				<polygon opacity="0.2" points="996.7,326 978.4,326 976.1,324.9 994.3,324.9 				"/>
				<polygon id="XMLID_711_" fill="#8F5145" points="990.2,318 980,318 981.2,321.4 989,321.4 				"/>
				<circle id="XMLID_642_" fill="#286024" cx="981.1" cy="318.3" r="1.5"/>
				<circle id="XMLID_610_" fill="#286024" cx="982.4" cy="316.9" r="1.3"/>
				<circle id="XMLID_595_" fill="#286024" cx="983.7" cy="318.2" r="1.3"/>
				<circle id="XMLID_546_" fill="#286024" cx="983.9" cy="315.9" r="1.2"/>
				<circle id="XMLID_531_" fill="#286024" cx="986.1" cy="318.1" r="1.2"/>
				<circle id="XMLID_453_" fill="#286024" cx="987.3" cy="317.1" r="0.8"/>
				<circle id="XMLID_438_" fill="#286024" cx="988" cy="318.2" r="0.9"/>
				<circle id="XMLID_320_" fill="#286024" cx="989.3" cy="317.3" r="1.5"/>
				<circle id="XMLID_307_" fill="#286024" cx="986.4" cy="316.7" r="1.5"/>
				<ellipse id="XMLID_306_" fill="#286024" cx="984.1" cy="317.3" rx="1.5" ry="1.3"/>
			</g>
			<rect x="941.7" y="242.5" fill="#B76959" width="62.9" height="5.7"/>
			<g id="XMLID_268_">
				<path fill="#E2CB85" d="M970.3,190.4c0,1-0.8,1.7-1.7,1.7h-10.2c-1,0-1.7-0.8-1.7-1.7v-21.7c0-1,0.8-1.7,1.7-1.7h10.2
					c1,0,1.7,0.8,1.7,1.7V190.4z"/>
				<rect x="956.6" y="167" fill="#5B3939" width="12.6" height="14.9"/>
				<path id="XMLID_302_" opacity="0.2" d="M967.7,167H957c-0.4,0-0.8,0-1,1.1h8.7c0.7,0,1-0.1,1,0.6v23c0,0.3,0.1-0.7,0,1.6h2
					c0.7,0,1.5-1.4,1.5-2.1v-23C969.2,167.5,968.4,167,967.7,167z"/>
				<path fill="none" stroke="#FCEFD0" stroke-miterlimit="10" d="M969.7,191.6H956v-22.8c0-0.8,0.3-1.2,1.1-1.2h10.2
					c1.1,0,2.4,0.7,2.4,1.8V191.6z"/>
				<path id="XMLID_296_" fill="#FCEFD0" d="M965.3,167c-0.1-2.3-1.4-2.9-3-2.9c-1.6,0-2.9,0.6-3,2.9H965.3z"/>
				<rect x="956.6" y="177.3" fill="#FCEFD0" width="12.6" height="3.4"/>
				<rect x="954.3" y="189.9" fill="#FCEFD0" width="17.2" height="3.4"/>
				<polygon opacity="0.2" points="973.8,196.8 955.6,196.8 953.3,193.3 971.5,193.3 				"/>
				<polygon id="XMLID_293_" fill="#8F5145" points="967.3,187.6 957.2,187.6 958.4,189.9 966.2,189.9 				"/>
				<circle id="XMLID_291_" fill="#286024" cx="958.2" cy="187.5" r="1.5"/>
				<circle id="XMLID_288_" fill="#286024" cx="959.6" cy="186.1" r="1.3"/>
				<circle id="XMLID_287_" fill="#286024" cx="960.9" cy="187.4" r="1.3"/>
				<circle id="XMLID_283_" fill="#286024" cx="961.1" cy="185.1" r="1.2"/>
				<circle id="XMLID_280_" fill="#286024" cx="963.3" cy="187.3" r="1.2"/>
				<circle id="XMLID_279_" fill="#286024" cx="964.5" cy="186.3" r="0.8"/>
				<circle id="XMLID_278_" fill="#286024" cx="965.2" cy="187.4" r="0.9"/>
				<circle id="XMLID_277_" fill="#286024" cx="966.5" cy="186.5" r="1.5"/>
				<circle id="XMLID_276_" fill="#286024" cx="963.6" cy="185.9" r="1.5"/>
				<ellipse id="XMLID_273_" fill="#286024" cx="961.2" cy="186.5" rx="1.5" ry="1.3"/>
			</g>
			<g id="XMLID_184_">
				<path fill="#E2CB85" d="M992,190.4c0,1-0.8,1.7-1.7,1.7H980c-1,0-1.7-0.8-1.7-1.7v-21.7c0-1,0.8-1.7,1.7-1.7h10.2
					c1,0,1.7,0.8,1.7,1.7V190.4z"/>
				<rect x="978.3" y="167" fill="#5B3939" width="13.7" height="22.9"/>
				<path id="XMLID_267_" opacity="0.2" d="M990.8,167h-10.7c-0.4,0-0.8,0-1,0h8.7c0.7,0,0.7,0.8,0.7,1.6v23c0,0.3,0.4-0.5,0.3,1.8
					h2c0.7,0,1.2-1.5,1.2-2.3v-23C992,167.4,991.5,167,990.8,167z"/>
				<path fill="none" stroke="#FCEFD0" stroke-miterlimit="10" d="M991.5,191.6h-12.6v-23c0-0.7,1.1-1.1,1.8-1.1h9.6
					c0.9,0,1.1,0.4,1.1,1.3V191.6z"/>
				<path id="XMLID_264_" fill="#FCEFD0" d="M988.5,167c-0.1-2.3-1.4-2.9-3-2.9c-1.6,0-2.9,0.6-3,2.9H988.5z"/>
				<rect x="978.3" y="177.3" fill="#FCEFD0" width="13.7" height="3.4"/>
				<rect x="976" y="189.9" fill="#FCEFD0" width="19.4" height="3.4"/>
				<polygon opacity="0.2" points="997,195.6 978.8,195.6 976.5,193.3 994.7,193.3 				"/>
				<polygon id="XMLID_259_" fill="#8F5145" points="990.5,186.5 980.4,186.5 981.5,189.9 989.3,189.9 				"/>
				<circle id="XMLID_258_" fill="#286024" cx="981.4" cy="187.3" r="1.5"/>
				<circle id="XMLID_255_" fill="#286024" cx="982.8" cy="185.9" r="1.3"/>
				<circle id="XMLID_254_" fill="#286024" cx="984.1" cy="187.3" r="1.3"/>
				<circle id="XMLID_252_" fill="#286024" cx="984.3" cy="185" r="1.2"/>
				<circle id="XMLID_250_" fill="#286024" cx="986.5" cy="187.1" r="1.2"/>
				<circle id="XMLID_244_" fill="#286024" cx="987.7" cy="186.1" r="0.8"/>
				<circle id="XMLID_234_" fill="#286024" cx="988.3" cy="187.2" r="0.9"/>
				<circle id="XMLID_232_" fill="#286024" cx="989.7" cy="186.3" r="1.5"/>
				<circle id="XMLID_188_" fill="#286024" cx="986.8" cy="185.7" r="1.5"/>
				<ellipse id="XMLID_185_" fill="#286024" cx="984.4" cy="186.3" rx="1.5" ry="1.3"/>
			</g>
			<rect x="941.7" y="196.8" fill="#B76959" width="62.9" height="5.7"/>
			<rect x="941.7" y="289.4" fill="#B76959" width="62.9" height="4.6"/>
			<rect x="945.1" y="344.3" fill="#5B3939" width="56.1" height="17.2"/>
		</g>
		<polygon id="XMLID_180_" fill="#5B3939" points="1005,197.9 1055.9,197.9 1059.7,223.1 1001.3,223.1 		"/>
		<polygon id="XMLID_179_" opacity="0.2" points="1004,203.6 1005,197.9 1055.9,197.9 1056.9,203.6 		"/>
		<rect x="998.9" y="223.1" fill="#FCEFD0" width="64.1" height="5.7"/>
		<rect x="1004.6" y="194.5" fill="#FCEFD0" width="51.5" height="3.4"/>
		<rect x="1001.2" y="228.8" opacity="0.2" width="58.3" height="10.3"/>
	</g>
	<polygon opacity="0.16" points="1239.1,356.1 1239.1,313.8 1239.1,306.6 1244.8,306.6 1244.8,209.6 1266.6,175.8 1266.6,361.5 
		1239.1,361.5 	"/>
	<polygon opacity="0.55" points="1265.4,306.6 1265.4,209.5 1294.5,163.6 1327.2,217.9 1327.2,217.9 1327.2,290.6 1387.1,290.6 
		1396.9,310 1387.8,310 1387.8,313.7 1387.8,356 1387.8,361.5 1356.5,361.5 1344.4,361.5 1342.7,361.5 1330.6,361.5 1259.7,361.5 
		1259.7,356 1259.7,313.7 1259.7,306.6 	"/>
	<g>
		<polygon fill="#C4AD7C" points="1318.1,308.9 1297.5,308.9 1297.5,209.6 1318.1,218 		"/>
		<g id="XMLID_171_">
			<rect id="XMLID_176_" x="1259.7" y="213.9" fill="#EEE3C7" width="35.5" height="89.2"/>
			<rect id="XMLID_172_" x="1252.8" y="313.4" fill="#EEE3C7" width="42.3" height="48"/>
		</g>
		<path id="XMLID_139_" fill="#D5B88A" d="M1255.1,209.3v99.5h42.3v-99.5H1255.1z M1266.6,229.9h-5.7v-4.6h5.7V229.9z M1266.6,239.1
			h-5.7v-6.9h5.7V239.1z M1286,266.5h5.7v6.9h-5.7V266.5z M1286,258.5h5.7v5.7h-5.7V258.5z M1286,249.4h5.7v5.7h-5.7V249.4z
			 M1286,241.4h5.7v5.7h-5.7V241.4z M1286,232.2h5.7v6.9h-5.7V232.2z M1286,225.4h5.7v4.6h-5.7V225.4z M1286,216.2h5.7v5.7h-5.7
			V216.2z M1278,283.7h4.6v4.6h-4.6V283.7z M1278,274.5h4.6v5.7h-4.6V274.5z M1278,266.5h4.6v6.9h-4.6V266.5z M1278,258.5h4.6v5.7
			h-4.6V258.5z M1278,249.4h4.6v5.7h-4.6V249.4z M1278,241.4h4.6v5.7h-4.6V241.4z M1278,232.2h4.6v6.9h-4.6V232.2z M1278,225.4h4.6
			v4.6h-4.6V225.4z M1278,216.2h4.6v5.7h-4.6V216.2z M1274.6,229.9h-4.6v-4.6h4.6V229.9z M1270,292.8h4.6v4.6h-4.6V292.8z
			 M1270,283.7h4.6v4.6h-4.6V283.7z M1270,274.5h4.6v5.7h-4.6V274.5z M1270,266.5h4.6v6.9h-4.6V266.5z M1270,258.5h4.6v5.7h-4.6
			V258.5z M1270,249.4h4.6v5.7h-4.6V249.4z M1266.6,247.1h-5.7v-5.7h5.7V247.1z M1260.9,292.8h5.7v4.6h-5.7V292.8z M1260.9,283.7
			h5.7v4.6h-5.7V283.7z M1260.9,266.5h5.7v6.9h-5.7V266.5z M1260.9,258.5h5.7v5.7h-5.7V258.5z"/>
		<path id="XMLID_125_" fill="#C4AD7C" d="M1248.3,306.6v54.9h129.3v-54.9H1248.3z M1274.6,345.5h6.9v6.9h-6.9V345.5z M1274.6,335.2
			h6.9v5.7h-6.9V335.2z M1274.6,326h6.9v5.7h-6.9V326z M1274.6,314.6h6.9v6.9h-6.9V314.6z M1265.4,345.5h5.7v6.9h-5.7V345.5z
			 M1265.4,335.2h5.7v5.7h-5.7V335.2z M1265.4,326h5.7v5.7h-5.7V326z M1265.4,314.6h5.7v6.9h-5.7V314.6z M1255.1,345.5h5.7v6.9h-5.7
			V345.5z M1255.1,335.2h5.7v5.7h-5.7V335.2z M1255.1,326h5.7v5.7h-5.7V326z M1255.1,314.6h5.7v6.9h-5.7V314.6z"/>
		<rect x="1248.6" y="361.5" fill="#866D58" width="129.2" height="0"/>
		<polygon id="XMLID_124_" fill="#84453A" points="1297.4,209.3 1285.1,163.4 1255.4,209.3 		"/>
		<polygon id="XMLID_123_" fill="#6A372E" points="1285.1,163.7 1318.5,218 1297.4,209.6 		"/>
		<rect x="1248.3" y="306.6" opacity="0.3" fill="#383137" width="129.3" height="6.9"/>
		<g id="XMLID_119_">
			<path fill="#5B3939" d="M1321.5,333.6c0-7.2,6-13,13.2-13c7.2,0,13.2,5.8,13.2,13v27.8h-26.3V333.6z"/>
			<path id="XMLID_120_" fill="#422A2A" d="M1334.6,320.7c0.3,0,0.6,0,0.6,0v40.8h-1.1v-40.8
				C1334.1,320.7,1334.3,320.7,1334.6,320.7z"/>
		</g>
		<g id="XMLID_115_">
			<rect x="1298.6" y="323.7" fill="#EEE3C7" width="19.4" height="19.4"/>
			<g>
				<path fill="#866D58" d="M1316.3,324.5v16.8h-16.8v-16.8H1316.3 M1317.4,323.5h-18.9v18.9h18.9V323.5L1317.4,323.5z"/>
			</g>
			<line id="XMLID_118_" fill="none" stroke="#866D58" stroke-miterlimit="10" x1="1316.9" y1="333.5" x2="1299.8" y2="333.5"/>
			
				<line id="XMLID_117_" fill="none" stroke="#866D58" stroke-width="1.0429" stroke-miterlimit="10" x1="1308" y1="324.8" x2="1307.9" y2="341"/>
			<polygon id="XMLID_116_" opacity="0.3" fill="#383137" points="1295.2,345.5 1314.1,345.5 1317.4,343.2 1298.5,343.2 			"/>
		</g>
		<rect x="1291.7" y="209.3" opacity="0.3" fill="#383137" width="5.7" height="152.1"/>
		<g id="XMLID_111_">
			<rect x="1352.4" y="323.7" fill="#EEE3C7" width="18.3" height="19.4"/>
			<g>
				<path fill="#866D58" d="M1369.9,324.5v16.8h-16.8v-16.8H1369.9 M1370.9,323.5h-18.9v18.9h18.9V323.5L1370.9,323.5z"/>
			</g>
			<line id="XMLID_114_" fill="none" stroke="#866D58" stroke-miterlimit="10" x1="1369.5" y1="333.5" x2="1352.4" y2="333.5"/>
			
				<line id="XMLID_113_" fill="none" stroke="#866D58" stroke-width="1.0429" stroke-miterlimit="10" x1="1361.5" y1="324.9" x2="1361.5" y2="341"/>
			<polygon id="XMLID_112_" opacity="0.3" fill="#383137" points="1348.8,345.5 1367.7,345.5 1370.9,343.2 1352.1,343.2 			"/>
		</g>
		<polygon id="XMLID_110_" fill="#84453A" points="1297.4,290.6 1377.6,290.6 1387.5,310 1287.6,310 		"/>
	</g>
	<g>
		<rect x="481.8" y="256.2" fill="#F39B80" width="80.1" height="105.2"/>
		<rect x="481.8" y="256.2" opacity="0.21" width="80.1" height="9.2"/>
		<g id="XMLID_105_">
			<rect x="499" y="275.7" fill="#9CACA1" width="45.8" height="22.9"/>
			<polygon id="XMLID_109_" opacity="0.43" points="504.7,276.8 504.7,294 544.7,294 544.7,298.6 499,298.6 499,276.8 			"/>
			<rect x="498.4" y="276.3" fill="none" stroke="#FFFFFF" stroke-miterlimit="10" width="45.8" height="21.7"/>
			<g id="XMLID_106_">
				<line id="XMLID_108_" fill="none" stroke="#FFFFFF" stroke-miterlimit="10" x1="530.4" y1="275.7" x2="530.4" y2="298.6"/>
				<line id="XMLID_107_" fill="none" stroke="#FFFFFF" stroke-miterlimit="10" x1="514.4" y1="275.7" x2="514.4" y2="298.6"/>
			</g>
			<rect x="497.8" y="299.7" fill="#543C36" width="49.2" height="4.6"/>
		</g>
		<g id="XMLID_100_">
			<rect x="499" y="318" fill="#9CACA1" width="45.8" height="21.7"/>
			<polygon id="XMLID_104_" opacity="0.43" points="504.7,319.2 504.7,332.9 544.7,332.9 544.7,339.8 499,339.8 499,319.2 			"/>
			<rect x="498.4" y="317.4" fill="none" stroke="#FFFFFF" stroke-miterlimit="10" width="45.8" height="21.7"/>
			<g id="XMLID_101_">
				<line id="XMLID_103_" fill="none" stroke="#FFFFFF" stroke-miterlimit="10" x1="530.4" y1="318" x2="530.4" y2="339.8"/>
				<line id="XMLID_102_" fill="none" stroke="#FFFFFF" stroke-miterlimit="10" x1="514.4" y1="318" x2="514.4" y2="339.8"/>
			</g>
			<rect x="497.8" y="339.8" fill="#543C36" width="49.2" height="5.7"/>
		</g>
		
			<line id="XMLID_99_" fill="none" stroke="#543C36" stroke-width="4" stroke-linecap="square" stroke-miterlimit="10" x1="561.9" y1="255.1" x2="481.8" y2="255.1"/>
		<polygon id="XMLID_98_" opacity="0.21" points="491,310 541.7,310 547.5,304.3 496.8,304.3 		"/>
		<polygon id="XMLID_97_" opacity="0.21" points="491,351.2 541.7,351.2 547.5,345.5 496.8,345.5 		"/>
	</g>
	<g>
		<path fill="#3D2626" d="M476.1,361.5h4.6v-38.7c0-1.5-0.8-2.6-2.3-2.6c-1.5,0-2.3,1.2-2.3,2.6V361.5z"/>
		<ellipse id="XMLID_93_" fill="#327E3E" cx="478.5" cy="311.6" rx="17.7" ry="25.6"/>
	</g>
	<g>
		<path fill="#3D2626" d="M414.3,361.5h5.7v-38.3c0-1.5-1.4-2.6-2.9-2.6s-2.9,1.2-2.9,2.6V361.5z"/>
		<ellipse id="XMLID_90_" fill="#327E3E" cx="416.7" cy="311.9" rx="17.7" ry="25.6"/>
	</g>
	<path opacity="0.3" d="M1370.8,326.4c0-10,5.2-18,12.1-18c6.9,0,11.7,8.1,11.7,18c0,9-4.5,16.5-11.4,17.8v17.3h-1.1v-17.3
		C1375.3,342.9,1370.8,335.5,1370.8,326.4z"/>
	<g>
		<path fill="#5B3939" d="M1383.3,361.5h4.6v-27.8c0-1-1.3-1.9-2.3-1.9c-1,0-2.3,0.8-2.3,1.9V361.5z"/>
		<ellipse id="XMLID_87_" fill="#42A047" cx="1385.9" cy="325.8" rx="12.5" ry="18"/>
	</g>
	<g>
		<circle id="XMLID_85_" fill="#42A047" cx="925.8" cy="318.7" r="19"/>
		<g id="XMLID_82_">
			<path fill="#5B3939" d="M922.2,361.5h6.9V323c0-1.5-2-2.6-3.4-2.6s-3.4,1.2-3.4,2.6V361.5z"/>
		</g>
	</g>
	<g>
		<g id="XMLID_79_">
			<path fill="#5B3939" d="M725.5,361.5h5.7v-38.8c0-1.5-1.4-2.6-2.9-2.6s-2.9,1.2-2.9,2.6V361.5z"/>
		</g>
		<circle id="XMLID_78_" fill="#42A047" cx="729" cy="318.4" r="19"/>
	</g>
	<g>
		<g id="XMLID_75_">
			<path fill="#5B3939" d="M448.7,361.5h4.6v-38.8c0-1.5-0.8-2.6-2.3-2.6c-1.5,0-2.3,1.2-2.3,2.6V361.5z"/>
		</g>
		<circle id="XMLID_74_" fill="#42A047" cx="451.6" cy="318.4" r="19"/>
	</g>
	<g>
		<g id="XMLID_71_">
			<path fill="#5B3939" d="M502.4,361.5h2.3v-26.6c0-1-0.1-1.8-1.1-1.8c-1,0-1.1,0.8-1.1,1.8V361.5z"/>
		</g>
		<circle id="XMLID_70_" fill="#42A047" cx="503.7" cy="332" r="13"/>
	</g>
	<g>
		<g id="XMLID_67_">
			<path fill="#5B3939" d="M433.8,361.5h3.4V335c0-1-0.7-1.8-1.7-1.8c-1,0-1.7,0.8-1.7,1.8V361.5z"/>
		</g>
		<circle id="XMLID_66_" fill="#42A047" cx="435.6" cy="332" r="13"/>
	</g>
	<g>
		<path fill="#3D2626" d="M1478.2,361.5h4.6v-38.6c0-1.5-0.8-2.6-2.3-2.6c-1.5,0-2.3,1.2-2.3,2.6V361.5z"/>
		<ellipse id="XMLID_63_" fill="#327E3E" cx="1479.9" cy="311.6" rx="17.7" ry="25.6"/>
	</g>
	<g>
		<path fill="#3D2626" d="M1415.3,361.5h5.7v-38.3c0-1.5-1.4-2.6-2.9-2.6c-1.5,0-2.9,1.2-2.9,2.6V361.5z"/>
		<ellipse id="XMLID_60_" fill="#327E3E" cx="1418.2" cy="311.9" rx="17.7" ry="25.6"/>
	</g>
	<g>
		<g id="XMLID_57_">
			<path fill="#5B3939" d="M1449.6,361.5h5.7v-38.7c0-1.5-1.4-2.6-2.9-2.6c-1.5,0-2.9,1.2-2.9,2.6V361.5z"/>
		</g>
		<circle id="XMLID_56_" fill="#42A047" cx="1453" cy="318.4" r="19"/>
	</g>
	<g>
		<g id="XMLID_53_">
			<path fill="#5B3939" d="M1504.5,361.5h1.1V335c0-1,0.4-1.8-0.6-1.8c-1,0-0.6,0.8-0.6,1.8V361.5z"/>
		</g>
		<circle id="XMLID_52_" fill="#42A047" cx="1505.2" cy="332" r="13"/>
	</g>
	<g>
		<g id="XMLID_49_">
			<path fill="#5B3939" d="M1403.9,361.5h2.3V335c0-1-0.1-1.8-1.1-1.8c-1,0-1.1,0.8-1.1,1.8V361.5z"/>
		</g>
		<circle id="XMLID_48_" fill="#42A047" cx="1405.2" cy="332.1" r="13"/>
	</g>
	<path fill="#42A047" d="M998.4,352.4c0,5,2.5,9.1,5.6,9.1c3.1,0,5.6-4.1,5.6-9.1c0-5-2.5-14.8-5.6-14.8
		C1000.9,337.6,998.4,347.4,998.4,352.4z"/>
	<polygon fill="#E1DAAA" points="999.6,361.5 1008.4,361.5 1009.5,352.3 998.6,352.3 	"/>
	<path fill="#42A047" d="M1052.3,352.4c0,5,2.5,9.1,5.6,9.1s5.6-4.1,5.6-9.1c0-5-2.5-14.8-5.6-14.8S1052.3,347.4,1052.3,352.4z"/>
	<polygon fill="#E1DAAA" points="1053.6,361.5 1062.4,361.5 1063.5,352.3 1052.5,352.3 	"/>
	<g>
		<polygon fill="#F08F24" points="1185.4,361.5 1222,361.5 1222,315.8 1185.4,300.6 		"/>
		
			<line fill="none" stroke="#604123" stroke-width="4.1715" stroke-linecap="round" stroke-miterlimit="10" x1="1221.4" y1="315.8" x2="1184.5" y2="300.6"/>
		<rect x="1116.7" y="270" fill="#FFA440" width="68.6" height="91.5"/>
		<rect x="1116.7" y="270" opacity="0.21" width="68.6" height="6.9"/>
		<g id="XMLID_43_">
			<rect x="1130.4" y="287.1" fill="#9AB6B8" width="38.9" height="19.4"/>
			<polygon id="XMLID_47_" opacity="0.43" points="1135,288.3 1135,302 1169.3,302 1169.3,306.6 1130.4,306.6 1130.4,288.3 			"/>
			<rect x="1131" y="287.7" fill="none" stroke="#FFFFFF" stroke-miterlimit="10" width="38.9" height="19.4"/>
			<g id="XMLID_44_">
				<line id="XMLID_46_" fill="none" stroke="#FFFFFF" stroke-miterlimit="10" x1="1157.3" y1="287.1" x2="1157.3" y2="306.6"/>
				<line id="XMLID_45_" fill="none" stroke="#FFFFFF" stroke-miterlimit="10" x1="1143.6" y1="287.1" x2="1143.6" y2="306.6"/>
			</g>
			<rect x="1127" y="306.6" fill="#604123" width="45.8" height="4.6"/>
		</g>
		<g id="XMLID_38_">
			<rect x="1130.4" y="323.7" fill="#9AB6B8" width="38.9" height="18.3"/>
			<polygon id="XMLID_42_" opacity="0.43" points="1135,323.7 1135,337.5 1169.3,337.5 1169.3,342 1130.4,342 1130.4,323.7 			"/>
			<rect x="1131" y="323.2" fill="none" stroke="#FFFFFF" stroke-miterlimit="10" width="38.9" height="20.6"/>
			<g id="XMLID_39_">
				<line id="XMLID_41_" fill="none" stroke="#FFFFFF" stroke-miterlimit="10" x1="1157.3" y1="323.7" x2="1157.3" y2="342"/>
				<line id="XMLID_40_" fill="none" stroke="#FFFFFF" stroke-miterlimit="10" x1="1143.6" y1="323.7" x2="1143.6" y2="342"/>
			</g>
			<rect x="1127" y="344.3" fill="#604123" width="45.8" height="3.4"/>
		</g>
		
			<line id="XMLID_37_" fill="none" stroke="#604123" stroke-width="4" stroke-linecap="square" stroke-miterlimit="10" x1="1185.4" y1="270" x2="1116.7" y2="270"/>
		<polygon id="XMLID_36_" opacity="0.21" points="1123.1,318 1167.1,318 1172.1,311.2 1128.1,311.2 		"/>
		<polygon id="XMLID_35_" opacity="0.21" points="1123.1,352.3 1167.1,352.3 1172.1,347.8 1128.1,347.8 		"/>
		<rect x="1195.7" y="322.6" fill="#9AB6B8" width="16" height="17.2"/>
		<polygon id="XMLID_34_" opacity="0.43" points="1199.1,322.6 1199.1,335.2 1211.7,335.2 1211.7,339.8 1195.7,339.8 1195.7,322.6 
					"/>
		<rect x="1195.1" y="323.2" fill="none" stroke="#FFFFFF" stroke-miterlimit="10" width="14.9" height="16"/>
	</g>
	<g>
		<path fill="#5B3939" d="M1235.7,361.5h5.7v-38.7c0-1.5-1.4-2.6-2.9-2.6c-1.5,0-2.9,1.2-2.9,2.6V361.5z"/>
		<ellipse id="XMLID_31_" fill="#42A047" cx="1238.7" cy="311.5" rx="17.7" ry="25.6"/>
	</g>
	<g>
		<rect x="544.7" y="292.8" fill="#4983B3" width="96.1" height="68.6"/>
		
			<line id="XMLID_30_" fill="none" stroke="#2D5977" stroke-width="5" stroke-linecap="square" stroke-miterlimit="10" x1="640.8" y1="292.3" x2="544.7" y2="292.3"/>
		
			<line id="XMLID_29_" fill="none" stroke="#2D5977" stroke-width="2" stroke-linecap="square" stroke-miterlimit="10" x1="640.8" y1="273.4" x2="544.7" y2="273.4"/>
		<rect x="584.8" y="326" fill="#336D9E" width="44.6" height="35.5"/>
		<g id="XMLID_27_">
			<rect x="557.3" y="305.4" fill="#9AB6B8" width="16" height="16"/>
			<polygon id="XMLID_28_" opacity="0.43" points="561.9,305.4 561.9,318 573.3,318 573.3,321.4 557.3,321.4 557.3,305.4 			"/>
			<rect x="556.8" y="304.9" fill="none" stroke="#FFFFFF" stroke-miterlimit="10" width="16" height="17.2"/>
		</g>
		<g id="XMLID_25_">
			<rect x="584.8" y="305.4" fill="#9AB6B8" width="17.2" height="16"/>
			<polygon id="XMLID_26_" opacity="0.43" points="589.4,305.4 589.4,318 601.9,318 601.9,321.4 584.8,321.4 584.8,305.4 			"/>
			<rect x="584.2" y="304.9" fill="none" stroke="#FFFFFF" stroke-miterlimit="10" width="17.2" height="17.2"/>
		</g>
		<g id="XMLID_23_">
			<rect x="612.2" y="305.4" fill="#9AB6B8" width="16" height="16"/>
			<polygon id="XMLID_24_" opacity="0.43" points="616.8,305.4 616.8,318 628.3,318 628.3,321.4 612.2,321.4 612.2,305.4 			"/>
			<rect x="612.8" y="304.9" fill="none" stroke="#FFFFFF" stroke-miterlimit="10" width="16" height="17.2"/>
		</g>
		<g id="XMLID_21_">
			<rect x="557.3" y="334" fill="#9AB6B8" width="16" height="16"/>
			<polygon id="XMLID_22_" opacity="0.43" points="561.9,334 561.9,346.6 573.3,346.6 573.3,350 557.3,350 557.3,334 			"/>
			<rect x="556.8" y="334.6" fill="none" stroke="#FFFFFF" stroke-miterlimit="10" width="16" height="17.2"/>
		</g>
		<rect x="595.1" y="330.6" fill="#FFFFFF" width="24" height="30.9"/>
		<rect x="597.4" y="332.9" fill="#2D5977" width="18.3" height="28.6"/>
		<circle id="XMLID_20_" fill="#FFFFFF" cx="613.3" cy="348.1" r="1.5"/>
		<g id="XMLID_1_">
			
				<line id="XMLID_19_" fill="none" stroke="#2D5977" stroke-linecap="square" stroke-miterlimit="10" x1="595.7" y1="273.4" x2="595.7" y2="292.8"/>
			
				<line id="XMLID_18_" fill="none" stroke="#2D5977" stroke-linecap="square" stroke-miterlimit="10" x1="601.4" y1="273.4" x2="601.4" y2="292.8"/>
			
				<line id="XMLID_17_" fill="none" stroke="#2D5977" stroke-linecap="square" stroke-miterlimit="10" x1="607.1" y1="273.4" x2="607.1" y2="292.8"/>
			
				<line id="XMLID_16_" fill="none" stroke="#2D5977" stroke-linecap="square" stroke-miterlimit="10" x1="611.7" y1="273.4" x2="611.7" y2="292.8"/>
			
				<line id="XMLID_15_" fill="none" stroke="#2D5977" stroke-linecap="square" stroke-miterlimit="10" x1="618.5" y1="273.4" x2="618.5" y2="292.8"/>
			
				<line id="XMLID_14_" fill="none" stroke="#2D5977" stroke-linecap="square" stroke-miterlimit="10" x1="623.1" y1="273.4" x2="623.1" y2="292.8"/>
			
				<line id="XMLID_13_" fill="none" stroke="#2D5977" stroke-linecap="square" stroke-miterlimit="10" x1="628.8" y1="273.4" x2="628.8" y2="292.8"/>
			
				<line id="XMLID_12_" fill="none" stroke="#2D5977" stroke-linecap="square" stroke-miterlimit="10" x1="634.5" y1="273.4" x2="634.5" y2="292.8"/>
			
				<line id="XMLID_11_" fill="none" stroke="#2D5977" stroke-linecap="square" stroke-miterlimit="10" x1="640.3" y1="273.4" x2="640.3" y2="292.8"/>
			
				<line id="XMLID_10_" fill="none" stroke="#2D5977" stroke-linecap="square" stroke-miterlimit="10" x1="544.2" y1="273.4" x2="544.2" y2="292.8"/>
			
				<line id="XMLID_9_" fill="none" stroke="#2D5977" stroke-linecap="square" stroke-miterlimit="10" x1="549.9" y1="273.4" x2="549.9" y2="292.8"/>
			
				<line id="XMLID_8_" fill="none" stroke="#2D5977" stroke-linecap="square" stroke-miterlimit="10" x1="555.6" y1="273.4" x2="555.6" y2="292.8"/>
			
				<line id="XMLID_7_" fill="none" stroke="#2D5977" stroke-linecap="square" stroke-miterlimit="10" x1="562.5" y1="273.4" x2="562.5" y2="292.8"/>
			
				<line id="XMLID_6_" fill="none" stroke="#2D5977" stroke-linecap="square" stroke-miterlimit="10" x1="567.1" y1="273.4" x2="567.1" y2="292.8"/>
			
				<line id="XMLID_5_" fill="none" stroke="#2D5977" stroke-linecap="square" stroke-miterlimit="10" x1="572.8" y1="273.4" x2="572.8" y2="292.8"/>
			
				<line id="XMLID_4_" fill="none" stroke="#2D5977" stroke-linecap="square" stroke-miterlimit="10" x1="577.4" y1="273.4" x2="577.4" y2="292.8"/>
			
				<line id="XMLID_3_" fill="none" stroke="#2D5977" stroke-linecap="square" stroke-miterlimit="10" x1="584.2" y1="273.4" x2="584.2" y2="292.8"/>
			
				<line id="XMLID_2_" fill="none" stroke="#2D5977" stroke-linecap="square" stroke-miterlimit="10" x1="588.8" y1="273.4" x2="588.8" y2="292.8"/>
		</g>
	</g>
</g>
<linearGradient id="Pasto_2_" gradientUnits="userSpaceOnUse" x1="960.0001" y1="720.7432" x2="960.0001" y2="360.7432">
	<stop  offset="0" style="stop-color:#42A047"/>
	<stop  offset="1" style="stop-color:#66BB6A"/>
</linearGradient>
<path id="Pasto_1_" fill="url(#Pasto_2_)" d="M1920,720.7H960H0v-360c0,0,1372.4,0,960,0s960,0,960,0V720.7z"/>
<g id="Carretera_2_">
	<polygon id="Borde_de_carretera_3_" fill="#4D8C50" points="1920,720.7 929.6,720.7 0,720.7 786.8,360.7 949.1,360.7 1133.2,360.7 
			"/>
	<polygon id="Borde_de_carretera_2_" fill="#FFFFFF" points="1889.6,720.7 960,720.7 30.4,720.7 789.3,360.7 960,360.7 
		1130.7,360.7 	"/>
	<polygon id="Carretera_3_" fill="#333333" points="1787.3,720.7 960,720.7 132.7,720.7 802.3,360.7 960,360.7 1117.7,360.7 	"/>
</g>
</svg>
