<!-- Generator: Adobe Illustrator 18.0.0, SVG Export Plug-In  -->
<svg version="1.1"
	 xmlns="http://www.w3.org/2000/svg" xmlns:xlink="http://www.w3.org/1999/xlink" xmlns:a="http://ns.adobe.com/AdobeSVGViewerExtensions/3.0/"
	 x="0px" y="0px" width="114px" height="53px" viewBox="0 0 114 53" enable-background="new 0 0 114 53" xml:space="preserve">
<defs>
</defs>
<g>
	<path fill="#FF931E" d="M114,51.3c0,0.9-0.8,1.7-1.7,1.7H1.7C0.8,53,0,52.2,0,51.3V1.7C0,0.8,0.8,0,1.7,0h110.6
		c0.9,0,1.7,0.8,1.7,1.7V51.3z"/>
	<g>
		<path fill="#FF931E" stroke="#1A1A1A" stroke-width="2" stroke-miterlimit="10" d="M110.5,48.5c0,0.8-0.7,1.5-1.5,1.5H5
			c-0.8,0-1.5-0.7-1.5-1.5v-44C3.5,3.7,4.2,3,5,3h104c0.8,0,1.5,0.7,1.5,1.5V48.5z"/>
		
			<line fill="none" stroke="#1A1A1A" stroke-width="5" stroke-linecap="round" stroke-miterlimit="10" x1="36.5" y1="44.5" x2="78.5" y2="44.5"/>
		<g>
			<g>
				
					<line fill="#FF931E" stroke="#1A1A1A" stroke-width="2" stroke-linecap="round" stroke-miterlimit="10" x1="99.5" y1="44" x2="104.5" y2="44"/>
				
					<line fill="#FF931E" stroke="#1A1A1A" stroke-width="2" stroke-linecap="round" stroke-miterlimit="10" x1="10.5" y1="44" x2="15.5" y2="44"/>
			</g>
			<g>
				
					<line fill="#FF931E" stroke="#1A1A1A" stroke-width="2" stroke-linecap="round" stroke-miterlimit="10" x1="99.5" y1="8" x2="104.5" y2="8"/>
				
					<line fill="#FF931E" stroke="#1A1A1A" stroke-width="2" stroke-linecap="round" stroke-miterlimit="10" x1="10.5" y1="8" x2="15.5" y2="8"/>
			</g>
		</g>
	</g>
</g>
</svg>
