<!-- Generator: Adobe Illustrator 18.0.0, SVG Export Plug-In  -->
<svg version="1.1"
	 xmlns="http://www.w3.org/2000/svg" xmlns:xlink="http://www.w3.org/1999/xlink" xmlns:a="http://ns.adobe.com/AdobeSVGViewerExtensions/3.0/"
	 x="0px" y="0px" width="166.7px" height="364.2px" viewBox="0 0 166.7 364.2" enable-background="new 0 0 166.7 364.2"
	 xml:space="preserve">
<defs>
</defs>
<g>
	<g>
		<path d="M114.7,336.2c0,0-5.7,4.1-14.3,6.1c-8.6,2-16.2,3.5-21,7.9c-1.9,1.8-1,4.8,0.6,5.6c1.5,0.8,2.4,1.8,15.3,3
			c18.8,1.7,46-2,46-2s0.6-9.7-1.1-15.4c-1.7-5.7-3.4-6-3.4-6S118.1,337.3,114.7,336.2z"/>
		<path fill="#002634" d="M109.9,215.5c0,0,0.3,28.6,2,64.2c1.7,35.6,2.6,56.9,2.6,56.9s7.4,5.5,11.1,5.5s9.7-3.1,9.7-3.1
			s-2.2-59-2.5-73.4c-0.3-14.4-1.4-51.6-1.4-51.6L109.9,215.5z"/>
		<path fill="#1A1A1A" d="M118.1,340c0,0-5.7,4.1-14.3,6.1c-8.6,2-19.1,3.8-21.6,7.5c-2.6,3.7-0.4,5.2-0.4,5.2s4.6,3.8,17.4,4.9
			c18.8,1.7,39.2-1.8,42.1-2.9c4.2-1.7,4.3-11.9,2.6-17.7c-1.7-5.7-3.8-4.1-3.8-4.1S121.5,341.1,118.1,340z"/>
		<path fill="#004C67" d="M117,220.7c0,0,0.6,28.7,2.2,64.3c1.6,35.6-1,55-1,55s10.5,7.4,14,7.4c3.5,0,11.8-4.2,11.8-4.2
			s-4.6-57.9-4.9-72.3c-0.3-14.4-1.3-51.6-1.3-51.6L117,220.7z"/>
		<path fill="#444444" d="M82.7,353.9c0,0,1.3,2.1,5,3.4c3.6,1.3,10.7,2.1,10.7,2.1s-6.5,0.8-10.7-0.4c-4.2-1.1-5.9-2.9-5.9-2.9
			S81.4,354.7,82.7,353.9z"/>
	</g>
	<path fill="#9E7415" d="M117,34.5c0,0-2.8-1.7-4.9-1.9c-2.1-0.2-3.9,0.5-3.9,0.5s1.3-2.8,4.4-2.6C115.7,30.8,117,34.5,117,34.5z"/>
	<path fill="#F2F2F2" d="M100.9,58.1l-10.3-0.9c0,0-2.1,0.3-2.2,2.8c-0.1,2.5,2.5,3.6,4,3.4c2.5-0.4,2.9-3.5,2.9-3.5l5.7,0.3
		L100.9,58.1z"/>
	<path fill="#E5AD83" d="M155.8,38.8c0,0,1.8,10.8-3.4,18.4c-5.2,7.6-9,10.6-8.7,15.4c0.4,4.8,0.9,11.6,0.9,11.6l-26.4-0.9l-1.3-9.4
		c0,0-9.1-0.6-14.4-5.8C97.4,62.9,99,53.5,99,53.5s-6.1,0.2-7.1-4.4c-1-4.8,10.4-8.2,10.4-8.2l0.6-2.6l3.3-14.6
		C106.2,23.7,143.3,28.1,155.8,38.8z"/>
	<path fill="#F47C5D" d="M91.6,46.4c1.3-2.1,4.4-5.6,11.2-7.5L99,53.5c0,0-6.2,1.3-7.9-3.3C90.7,49,90.9,47.5,91.6,46.4z"/>
	<path fill="#745919" d="M124.6,29.1c0,0,3.9,4.3,4,8c0.1,6-1.5,12.3,0.5,12.3c2,0,5.7-3.2,6.6-4.8c0.9-1.6,5.4-1.8,6.6,2.5
		c1.1,4.3-0.1,8.7-3.4,10.7c-2.9,1.7-7.2-1.8-7.2-1.8s4.3,8.2,7,11.1c2.7,2.9,6.4,4.9,6.4,4.9s1.1-6.7,4.9-11.1
		c3.8-4.5,6.7-8.6,7.3-11.5c0.6-2.9-1.1-10-1.1-10s-10.6-5.1-18-7.2C131,30.1,124.6,29.1,124.6,29.1z"/>
	<path fill="#CC8D62" d="M134.7,48.9c0,0,3.1-3.3,4-3c1,0.3,2.4,1.5,2.3,4.7c-0.1,3.2-1.6,4.8-3.3,5c-1.7,0.2-4-1.5-4-1.5
		s3.1,0.7,3.8,0.8c0.7,0.1,2-2.8,2-2.8s-0.5-1.3-1.6-1.2c-1.1,0-2.5,0.9-2.5,0.9s-0.3-1.5,1.3-2.2c1.5-0.7,2.6,0.6,2.6,0.6
		s-0.3-3.1-1-3C137.6,47.2,134.7,48.9,134.7,48.9z"/>
	<path fill="#E5AD83" d="M99.3,56.5c0,0-1.2,0.8-1.2,2c0.1,2.8,1.8,4,1.8,4L99.3,56.5z"/>
	<path fill="#E4E6E9" d="M144.8,76c0,0-12.4,0.4-18.7,1.8c-6.3,1.4-10.4,2.5-10.4,2.5l-2,3.6c0,0,23.2,0,27.8,1.2
		c4.6,1.2,5.9,1.4,5.9,1.4L144.8,76z"/>
	<g>
		<path fill="#E5AD83" d="M3.2,73.2c0,0-1.8-2.1-3,1.6c-1.2,3.7,1.8,11.3,3.4,13.6C5.3,90.7,4.6,74.8,3.2,73.2z"/>
		<path fill="#E5AD83" d="M22.8,86.3c0,0-6.9-2.9-11.2-13.6c-1.6-3.8-2.7-14-4.4-17.6c-0.6-1.2-1.5-1.3-2.1-0.7
			c-2.5,2.3-2.9,35-0.2,40.9c3.9,8.7,17,6,17,6L22.8,86.3z"/>
	</g>
	<path fill="#8C9129" d="M153.4,101.9c0,0,14.6,43.9,13.2,48.8c-1.5,4.9-10.2,47.3-10.2,47.3s-3.4-72.2-3.9-78.5
		C152,113.1,153.4,101.9,153.4,101.9z"/>
	<path fill="#DBDBDB" d="M153,137.8c0.1,2.5,0.3,5.1,0.4,7.9l12.4-1.6c-0.5-2.2-1.1-4.8-1.9-7.6L153,137.8z M164.5,159.3l-10.6-2.8
		c0.1,2.7,0.3,5.5,0.4,8.2l8.6,2.3C163.5,164.2,164,161.6,164.5,159.3z"/>
	<path fill="#E5E134" d="M134.2,80.5c11.8,1.3,17.9,4,21.1,18.9c1.3,6.1,2.5,44.6,2.7,56c0.3,19.8,4.3,65.3,4.3,65.3
		s-15.8,4.1-48.3,3c-17.4-0.6-22.1,0.5-23.6-17.6c-1.5-18.1,0-62.4,6.5-89.5L21,114c0,0-3-9.1-2.5-16.6c0.5-7.5,2-14.1,2-14.1
		s81-0.5,86-0.5C111.5,82.8,123.5,79.3,134.2,80.5z"/>
	<path fill="#7F5B12" d="M125.8,29.3c0.7,0.1,1.7,0.3,2.9,0.6c6.4,3.2,22.9,11.6,28.6,14.5c0.1,1,0.2,1.9,0.3,2.8
		c-3.4-1.5-23.3-10.4-24.8-11.4c-1.1-0.8-3.3-0.9-4.5-0.8c-0.6-1.9-1.9-3.8-2.7-4.9C125.6,29.8,125.7,29.5,125.8,29.3z"/>
	<g>
		<path fill="#004C67" d="M160,39.4c0,0,8.1-11.3,3.1-17.6c-5.8-7.4-41-25.3-47.2-21.1c-7.2,4.8-9.2,17.4-9.2,17.4L160,39.4z"/>
		<path fill="#1A1A1A" d="M107,23.2c0,0-19.1,1.7-19.4,2.9c-0.3,1.3,6.3,5.4,22.7,6.7c10.7,0.8,20.6-1.4,20.6-1.4
			S109.9,23.6,107,23.2z"/>
		<path fill="#E8E8E8" d="M161,38.2l-3.4,7.7c0,0-15.3-8.4-27.4-13.5c-11.8-5-25.2-9-25.2-9l2-7.4c0,0,12.1,2.3,30.8,10.5
			C150,31.8,161,38.2,161,38.2z"/>
		<g>
			
				<ellipse transform="matrix(-0.8803 -0.4745 0.4745 -0.8803 204.6175 67.1053)" fill="#C2D2E0" cx="110.8" cy="7.7" rx="2.2" ry="8"/>
			<path fill="#FF931E" d="M111.1,3.2c0.2-0.1,0.3-0.1,0.4-0.1l1-1.2l-0.5,1.5c0.3,0.4,0.2,1.3-0.1,2.4l0.6,0.7L111,7.8
				c-0.4,0.7-0.8,1.3-1.3,1.7l-1.1,2.4l-0.2-1.5c-0.2,0-0.3,0-0.5-0.1c-0.1-0.1-0.2-0.2-0.3-0.4l-0.3,0.1c0.4-1,0.9-2.2,1.5-3.4
				C109.6,5.4,110.4,4.2,111.1,3.2z"/>
		</g>
	</g>
	<path opacity="0.3" fill="#FFFFFF" d="M110.3,25.1l-19,3.7c0,0-2-0.8-2.9-1.5c-0.8-0.7-1.8-1.4,0.7-2c2.5-0.6,16-2,16-2L110.3,25.1
		z"/>
	<path fill="#FFFFFF" d="M157.8,139.6c0,0-0.4-37.2-3-44.3c-2.7-7.2-6.5-10.1-6.5-10.1s5.1,6.5,6.2,16.1c0.8,7,0.7,26.4,0.8,30.1
		c-9.3,0.4-24.9,1-31.5,1c-6.3,0-20.3-0.9-29.5-1.5c-0.4,2.7-0.8,5.5-1.2,8.3c9.1,0.6,24.2,1.5,31.1,1.5
		C131.9,140.7,157.8,139.6,157.8,139.6z M90.5,171.3c-0.1,2.8-0.2,5.6-0.3,8.3c8.4,0.6,26.3,1.8,34.1,1.8c8.4,0,28.7-0.9,35.8-1.2
		c-0.2-2.7-0.3-5.5-0.5-8.3c-7.7,0.3-27.9,1.2-35.8,1.2C116.6,173,99,171.9,90.5,171.3z M49.8,114.9l8.3,0.3
		c0.1-4,0.3-12.6,0.3-17.5c0-3.8-0.1-10.1-0.2-14.6c-2.8,0-5.5,0-8.2,0c0.2,4,0.4,9.2,0.4,11.9C50.4,98.8,50,110,49.8,114.9z
		 M75.9,98.4c0,2.9-0.3,11.9-0.5,17.4l8.4,0.3c0.2-5.2,0.5-13.8,0.5-17.7c0-3.4-0.2-10.3-0.4-15.4c-2.7,0-5.5,0-8.4,0
		C75.6,88.4,75.9,95.7,75.9,98.4z"/>
	<ellipse fill="#1A1A1A" cx="108" cy="38.1" rx="1.2" ry="3.6"/>
</g>
</svg>
