<!-- Generator: Adobe Illustrator 18.0.0, SVG Export Plug-In  -->
<svg version="1.1"
	 xmlns="http://www.w3.org/2000/svg" xmlns:xlink="http://www.w3.org/1999/xlink" xmlns:a="http://ns.adobe.com/AdobeSVGViewerExtensions/3.0/"
	 x="0px" y="0px" width="311px" height="460px" viewBox="0 0 311 460" enable-background="new 0 0 311 460" xml:space="preserve">
<defs>
</defs>
<g>
	<polygon fill="#002158" points="238.8,460 233.8,453.7 196.6,437.7 160.7,442.8 160.8,460 	"/>
	<polygon fill="#002158" points="150.7,460 146.1,454.6 107.4,437.7 73.7,460 	"/>
	<polygon fill="#00001D" points="137.4,460 108.8,447.9 90,460 	"/>
	<polygon fill="#00001D" points="229.4,460 200.4,447.9 163.5,453 163.6,460 	"/>
	<path fill="#E5E134" d="M26.1,359.8c31.9,5.2,40.3,3,40.3,3L62,460h117.5c0.4-3,0.6-5.2,0.6-5.2s0.3,2.2,0.6,5.2h78.3l-3.7-93.2
		c0,0,38.3,2.3,48.4-10.1c10.1-12.5,7.8-53.7,3.9-76.3c-3.9-22.6-31.6-91.1-40.9-103.9c-8.4-11.4-23.9-15.3-43.5-20.5
		c-13.6-3.6-47.7-9.4-47.7-9.4s-52.3,2.3-58.5,5.4c0,0-51.8,10.1-63.8,25.3c-12.8,16.2-43.9,72.5-53,150.1
		C-2,346,12.9,357.6,26.1,359.8z"/>
	<path fill="#AAA124" d="M151.6,320.6c-2.6-17.5-18.3-36.7-23-32.8c0,0-12.3,0.3-7.2,28.8c2.6,14.3,12.4,21.1,16.5,23.8
		c-13.4,3.8-62.4,17-94.5,17.8c-37.5,0.9-42.8-33.4-42.8-33.4c-6.7,48.6,65.8,38,65.8,38l0.4,7.7c0,0,36.7-6.4,56.3-11.9
		c16.7-4.7,24.7-8.1,24.7-8.1S154.2,338,151.6,320.6z"/>
	<path fill="#AAA124" d="M247.5,366.6l2.4,93.5h9.2l-3.7-93.2c0,0,38.3,2.3,48.4-10.1c5.1-6.2,7-19.7,7.2-34.4
		c-1.9,10.6-5.1,25.3-9.3,29.8c-6.8,7.2-24.7,10.2-39.6,9.8c-14.9-0.4-31.5-6.4-31.5-6.4l-7.2,0.9c0,0,3.6,3.6,11.7,7
		C241,366,247.5,366.6,247.5,366.6z"/>
	<polygon fill="#AAA124" points="247.1,240 258,290.9 263.1,302.8 245.6,323.3 	"/>
	<path fill="#FFFFFF" d="M126.9,289.5c0,0,11.2,5.3,18.8,9.6c31.5,0,67-2.8,102.9-11.4l-1.5-18.2C178.6,286.7,111,280.1,74.8,275
		l-4,18.9c3.2,0.3,9.6,1.2,16.5,1.9L126.9,289.5z"/>
	<path fill="#FFFFFF" d="M80.8,297.1l-15.7,3c0,0-19.1,17.5-22.9,33c-3.9,15.5-1.8,31-1.8,31h16c0,0-3.9-21,1.8-38.8
		C66,300.3,80.8,297.1,80.8,297.1z"/>
	<path fill="#FFFFFF" d="M68.8,297.1c0,0-13.6,5.8-32.9,6.8C23.2,304.5,4,301.4,4,301.4l3.9-16.9c0,0,15.9,4.8,32.4,2.9
		c16.4-1.9,32.4-8.4,32.4-8.4L68.8,297.1z"/>
	<path fill="#FFFFFF" d="M307.6,280.5c0,0-18.8,8.2-27.7,9.4c-9,1.3-29.4,0.6-29.4,0.6l-1.9-15.3c0,0,16.6,0.6,30.7-1.9
		c14.1-2.6,24.3-8.3,24.3-8.3S307.9,276.1,307.6,280.5z"/>
	<path fill="#FFFFFF" d="M295.9,303.3c-16.6-10.8-30.7-5.1-30.7-5.1s22.4,8.3,30,22.4c7.7,14.1,7.8,36.8,7.8,36.8s3.9-6.4,5.6-14
		c1.6-7.1,1.9-17.1,1.9-17.1S308.2,311.3,295.9,303.3z M65.7,381.5l-1,18.7c38.8,6.3,114.6,13.8,191.8-5.6l-0.9-17.9
		C179.6,396.9,102.5,387.6,65.7,381.5z"/>
	<path fill="#002634" d="M167.3,237.6c2.7,24.4,7.5,219.7,7.5,219.7s0,0.7,0,2.7h12.2c-1.9-42-4.7-211.9-1.7-223.5
		c3.2-12.1,19.8-65.5,27.5-75.8c1.6-2.2,3.2-4.2,4.7-6.1c-13-9.3-19.9-11.2-42.4-12.8c-22.5-1.6-37.1-1.9-54.7,9.2
		c0,0.2,0.1,0.4,0.1,0.6C120.5,151.7,164.5,213.2,167.3,237.6z"/>
	<path fill="#AAA124" d="M109.7,292c0,0-6.9,1-12.6,1.6c-3.7,0.4-13.4,1.1-20,1.5l2.1-50.6l-10.6,52.6l-3.5,3c0,0,1.2-0.2,3-0.6
		l0,0.1l8.3-1.7c2.3-0.4,4.5-0.8,5.8-1.1C86.7,296.1,109.7,292,109.7,292z"/>
	<path fill="#AAA124" d="M143.9,326c0,0,0.6,9.8-1.3,12c-1.9,2.2-3.6,2-5.1,2.1c-1.5,0.1-7.4-5-8.5-7.4
		C127.9,330.3,140.9,324.7,143.9,326z"/>
	<g>
		<path fill="#E5AD83" d="M124.8,289.8c0,0,9.3-2.3,14-9.3c4.7-7,12.4-21,18.7-24.1c6.2-3.1,24-6.2,31-2.9
			c7.5,3.5,15.8,6.5,21.1,12.5c7.1,8,9.5,19,5.8,22.7c-3.4,3.4-8.9-1.2-8.9-1.2s5.2,6.2,1.2,8.2c-4,2-5.1,0.5-5.9,1.6
			c-1.5,2.1,0.8,2.1-1.4,3.8c-2.2,1.7-4.9,1.7-9.6,1c-4.7-0.8-14.1-4.5-17.3-0.6c-3.1,3.9-5.4,14.1-14.4,19.5
			c-12.9,7.8-31.1,4.7-31.1,4.7S116.2,302.2,124.8,289.8z"/>
		<path fill="#DBDBDB" d="M124.7,290.7c0,0-2.4,24.5,3.2,31.8c3.3,4.3,2.5,4.1,2.5,4.1l11.9-0.6c0,0,0.2,7.2-3.7,8.2
			c-3.9,1-11.8-5.5-14.7-14.9C121,309.9,123,295.3,124.7,290.7z"/>
		<path fill="#FFFFFF" d="M127.3,288.9c0,0-4.2,15-1.2,25.7c4.3,15.3,10.4,19.4,10.4,19.4l-5.8,0.4c0,0-11.1-7.7-10.6-28.7
			c0.3-13.7,4.7-15.9,4.7-15.9L127.3,288.9z"/>
	</g>
	<path fill="#DCDDE1" d="M255.6,376.8c-2.6,0.7-5.2,1.3-7.7,1.9l0.5,17.9c2.7-0.6,5.4-1.3,8.2-1.9l0,0L255.6,376.8z M310.9,322.2
		c-1.7,9.5-4.8,23.5-8.4,28.7c0.2,3.2,0.3,5.6,0.3,6.7c0.3-0.3,3.2-1.8,5.2-9.9c1.7-6.1,2.6-14.1,2.8-22.4
		C311,324.6,311,322.5,310.9,322.2z"/>
	<path fill="#F7323F" d="M186.1,252.7l-18.7-22.9c-4.7-0.4-3.4,3.8-3.4,3.8l14.3,18.4C180.1,252,183.2,252,186.1,252.7z"/>
	<path fill="#DACD10" d="M246.9,302.9l18.3-4.7c0,0-3.8,7-3.8,11.8c0,4.8,6.4,14.7,1.3,29.1c-5.1,14.4-21.4,20.8-27.5,20.8
		c-6.1,0-12.1-5.4-13.1-8.3C221.1,348.7,246.9,302.9,246.9,302.9z"/>
	<path fill="#FFFFFF" d="M131,138.3c0,0,19.7,33.5,36,39c26.4,9,43.5-33.9,43.5-33.9s1.4,8.1-0.2,12.1c-1.6,4-33,73.5-33,73.5
		s-15.4-30.6-25.8-45.3C140.9,169.1,130,146,130,146L131,138.3z"/>
	<path fill="#E4E6E9" d="M157.2,192.5c0,0,8.7-6.9,13.4-12.4c1.6-1.9,6.1-0.8,7-0.8c0.8,0,4.5-1.3,6.2-0.2
		c5.2,3.5,11.2,10.4,11.2,10.4l-17.9,39.6L157.2,192.5z"/>
	<path fill="#00001D" d="M182.6,178.2l3.1,2.8l-3.6,10.2l4.2,19.4l-9.2,20.1l-10-19.1l6.1-19.6c0,0-4.9-8.3-4.5-10
		c0.4-1.7,3.5-3.8,3.5-3.8S177.8,180,182.6,178.2z"/>
	<path fill="#1D2528" d="M172.3,190.6c0,0,2.6,1.3,5.3,1.1c2.8-0.2,4.9-0.9,4.9-0.9l-0.4,3.3c0,0-3.8,0-5.1,0c-1.3,0-4-0.6-4-0.6
		L172.3,190.6z"/>
	<path fill="#BCBCBC" d="M157.2,192.5l13.9-14c0,0,6.4,0.5,8.3,0.3c1.9-0.2,5-1.1,5-1.1s3.4,2.2,5.9,5.8c2.6,3.5,4.8,6.1,4.8,6.1
		l-1.2,2.7c0,0-8.9-11.1-10-12c-1.1-1-4.5,0.2-6.1-0.2c-1.6-0.3-5.8-0.5-5.8-0.5l-13.6,15.5L157.2,192.5z"/>
	<path fill="#E5AD83" d="M120.6,46.3l2.6,28c0,0-12-7.1-16.7,2.3c-3.1,6.2-3.5,18.1,3.1,25.6c6.6,7.6,11.3,4.3,11.3,4.3
		s-0.8,6.5,3,16.5c1.8,4.7,7.1,15.3,7.1,15.3s25.3,44.6,46.4,40.3c16.5-3.3,28.6-25.8,28.6-25.8c-1.1,0.8,11.8-10.1,18.4-39.6
		c4-18.1,3.9-46.1,3.9-46.1L120.6,46.3z"/>
	<path fill="#CC8D62" d="M139.1,148.8c0,0,15.3,14.1,34.1,17.8c18.9,3.8,31.2-11,31.2-11s-11.9,21.5-27.5,23
		C158.8,180.4,141,156.4,139.1,148.8z"/>
	<path fill="#745919" d="M119.8,56.6c0,0-4.2,15.1-3.4,15.3c4.8,1.4,9.2,6.9,12.1,16.5c2.9,9.2,0.8,19.6,3,18.7
		c2.2-0.9,11.6-38.8,11.6-38.8L119.8,56.6z"/>
	<path fill="#CC8D62" d="M121.3,90.6c0,0-2.6-11.9-8.5-12.4c-5.9-0.5-4.2,9.7-4.2,9.7s0.1-6.5,3-7.5c2.9-1,5.9,9.6,5.9,9.6
		s-0.4-1.1-2.7-1.5c-2.3-0.5-4.6,2.4-4.6,2.4s3.6,0.1,6.1,1.6c2.5,1.5,2.6,5.4,1.4,7.1c-1.2,1.7-2.4,0.8-2.4,0.8s1,2.9,4.3,1.2
		C122.9,99.8,122.2,95.8,121.3,90.6z"/>
	<path fill="#745919" d="M117.7,107.2c0,0-0.8,7,3.9,16.5c2.4,4.8,6.8,9.4,6.8,9.4s-4.2-11.3-5-16.2c-0.4-3-1.6-10.2-1.6-10.2
		L117.7,107.2z"/>
	<path fill="#FFFFFF" d="M93.7,157.8c0,0,12,40.1,13.6,71.2c1.1,22-3.2,52.6-3.2,52.6l21.1,1.9c0,0,2.8-47.2,0.4-69.5
		c-3.3-30.9-13.7-60.9-13.7-60.9L93.7,157.8z"/>
	<path fill="#FFFFFF" d="M237.3,159.8c0,0,5.5,57.8,4.3,75.7c-1.3,17.9-6.4,50.5-6.4,50.5l-18.5-2.6c0,0,8.3-37.9,6.4-79.3
		c-1-21.1-2.6-48.6-2.6-48.6L237.3,159.8z"/>
	<g>
		<g>
			<path fill="#EFE8DC" d="M235.5,339.4l25.9-71.5l-2.9-2.9l-52-4.8L187,324.8c0,0,23.7,16.8,32.4,16.8
				C228.1,341.7,235.5,339.4,235.5,339.4z"/>
			<path d="M236.2,342.9l25.2-75l-51.8-4.2l-19.5,64.7c0,0,23.7,16.8,32.4,16.8C231.2,345.2,236.2,342.9,236.2,342.9z"/>
		</g>
		<g>
			<path fill="#E5AD83" d="M260.9,321.7c0,0-2.9-8.3-1.8-14.5c0.8-4.9,7.3-18.1-1.3-15.8c-8.6,2.3-17.1,25.7-17.1,25.7
				s-6.2,3.9-16.3,0c-10.1-3.9-23.3-16.3-28-10.1c-4.7,6.2-7-0.8-11.7,4.7c-1,1.2-1.4,3.5-2.4,4.3c-3.8,3-5.6,3.4-3.4,9.6
				c0.6,1.6,1.1,3.2,1.8,4.9c0.2,2.6-0.1,5.8,3.8,11.1c4.4,6.1,34.1,19.6,56.7,12.8C256.2,349.7,263.3,331.4,260.9,321.7z"/>
		</g>
	</g>
	<path fill="#CC8D62" d="M137,91.2c0,0,7.4,20.8,36.9,26.1c21.9,3.9,38.5,0.4,50.8-5.6c0.1-0.4,1.8-8.3,1.9-8.7
		c2.2-9.8,2.2-12,2.1-21.6c-33.9-0.2-88.4-2.8-88.4-2.8L137,91.2z"/>
	<path fill="#1A1A1A" d="M172.2,107.3c0,5.4-2.2,9.7-5,9.7c-2.7,0-5-4.3-5-9.7c0-5.4,2.2-9.7,5-9.7
		C170,97.6,172.2,101.9,172.2,107.3z"/>
	<path fill="#1A1A1A" d="M211.4,109.1c0,5.4-2.2,9.7-5,9.7c-2.7,0-5-4.3-5-9.7c0-5.4,2.2-9.7,5-9.7
		C209.2,99.4,211.4,103.7,211.4,109.1z"/>
	<path fill="#F47C5D" d="M200.2,126.4c-1.1,11.9-7.1,15.9-14.1,15.3s-5.9-7.1-4.9-18.9c1.1-11.9,1.3-19.6,8.2-19
		S201.2,114.5,200.2,126.4z"/>
	<g>
		<path fill="#1A1A1A" d="M118.6,67.4l11.7,4.7c0,0,9.9,30.5,41.3,37.1c26.2,5.5,62.5,3.9,72.5-12.1C250.7,86.7,236,73,236,73
			l1.7-17.9c0,0,33.6-20,15.3-37.5C239.1,4.3,186.5-6.9,136.3,5.2c-36.6,8.8-40,21.5-34,32.8c4.1,7.8,13.6,13.8,13.6,13.8
			L118.6,67.4z"/>
		<path fill="#004C67" d="M253,17.5C239.1,4.3,186.5-6.9,136.3,5.2c-21.5,5.2-31.5,11.7-35,18.5c-5.2,8.6,77.3,13.3,107.6,12.4
			c25.5-0.7,38.8-4.9,49.5-8.7C258,24.1,256.4,20.8,253,17.5z"/>
		<path fill="#303030" d="M243.1,98.5l-13.1-21l-0.4-0.7l-21.3,1.3l20.4,29.8C234.9,105.7,240,102.6,243.1,98.5z"/>
		<path fill="#E8E8E8" d="M115.3,51.4c0,0,51.9,14.8,81.9,14.3c30-0.5,42.1-11.8,42.1-11.8l-2.7,19c0,0-9,8.6-46.7,8.6
			c-44.6,0-73.4-14.5-73.4-14.5L115.3,51.4z"/>
		<g>
			<path fill="#C2D2E0" d="M224.2,53.9c1.5,7.4-5,15-14.6,17c-9.6,2-18.6-2.4-20.1-9.8c-1.5-7.4,5-15,14.6-17
				C213.7,42.1,222.7,46.5,224.2,53.9z"/>
			<path fill="#FF931E" d="M216.8,55.6l4-3.6l-4.6,0c-1-1.9-3-3.2-5.5-3.4l-1.5-3.3l-2.4,3.8c-2.7,0.9-5.1,2.7-6.6,4.9l-4.8,1.2
				l3.2,2.7c0,0,0,0.1,0,0.1c-0.3,2,0.3,3.8,1.5,5.1l-1.6,5l5.4-3.1c0.8,0.1,1.8,0.2,2.7,0c1-0.1,1.9-0.4,2.8-0.8l4.8,1.8l-0.3-4.8
				C215.5,59.7,216.5,57.8,216.8,55.6C216.8,55.7,216.8,55.7,216.8,55.6z"/>
		</g>
	</g>
	<path fill="#DCDDE1" d="M39.8,358l15.7-0.8l0.8,6.4c0,0-3,0.1-5.8,0.1c-2.8,0.1-10.1-0.2-10.1-0.2L39.8,358z"/>
	<path fill="#7F8A86" d="M206.5,260.2c0,0,8,1.6,6.2,15.8c-3.9,30,1.1,60.1,1.1,60.1h51.5c0,0-6.3-16.9-3.6-42.6
		c3.3-15.8,1.6-27.1-3.1-28.5L206.5,260.2z"/>
	<path fill="#AAA124" d="M71.8,460l4.7-91.4l-10.1-5.9c0,0-3.4,68.3-4.6,97.3H71.8z"/>
	<path fill="#DCDDE1" d="M75.7,383.1c-3.6-0.5-7-1.1-10-1.6l-1,18.7c3.1,0.5,6.5,1,10.1,1.5L75.7,383.1z"/>
	<line fill="#7F8A86" x1="259.3" y1="265" x2="207.3" y2="260.2"/>
</g>
</svg>
