<!-- Generator: Adobe Illustrator 18.0.0, SVG Export Plug-In  -->
<svg version="1.1"
	 xmlns="http://www.w3.org/2000/svg" xmlns:xlink="http://www.w3.org/1999/xlink" xmlns:a="http://ns.adobe.com/AdobeSVGViewerExtensions/3.0/"
	 x="0px" y="0px" width="311px" height="460px" viewBox="0 0 311 460" enable-background="new 0 0 311 460" xml:space="preserve">
<defs>
</defs>
<g>
	<polygon fill="#002158" points="72.1,460 77.2,453.7 114.4,437.7 150.3,442.8 150.2,460 	"/>
	<polygon fill="#002158" points="160.3,460 164.9,454.6 203.6,437.7 237.3,460 	"/>
	<polygon fill="#00001D" points="173.6,460 202.2,447.9 221,460 	"/>
	<polygon fill="#00001D" points="81.5,460 110.5,447.9 147.4,453 147.4,460 	"/>
	<path fill="#E5E134" d="M284.9,359.8c-31.9,5.2-40.3,3-40.3,3L249,460H131.5c-0.4-3-0.6-5.2-0.6-5.2s-0.3,2.2-0.6,5.2H51.9
		l3.7-93.2c0,0-38.3,2.3-48.4-10.1c-10.1-12.5-7.8-53.7-3.9-76.3c3.9-22.6,31.6-91.1,40.9-103.9c8.4-11.4,23.9-15.3,43.5-20.5
		c13.6-3.6,47.7-9.4,47.7-9.4s52.3,2.3,58.5,5.4c0,0,51.8,10.1,63.8,25.3c12.8,16.2,43.9,72.5,53,150.1
		C312.9,346,298,357.6,284.9,359.8z"/>
	<path fill="#AAA124" d="M163.2,350.4c0,0,8,3.4,24.7,8.1c19.6,5.5,56.3,11.9,56.3,11.9l0.4-7.7c0,0,72.6,10.5,65.8-38
		c0,0-5.3,34.2-42.8,33.4c-32.1-0.7-81.1-14-94.5-17.8c4.2-2.7,14-9.5,16.5-23.8c5.1-28.5-7.2-28.8-7.2-28.8
		c-4.7-3.8-20.5,15.3-23,32.8C156.8,338,163.2,350.4,163.2,350.4z"/>
	<path fill="#AAA124" d="M63.5,366.6L61.1,460h-9.2l3.7-93.2c0,0-38.3,2.3-48.4-10.1c-5.1-6.2-7-19.7-7.2-34.4
		c1.9,10.6,5.1,25.3,9.3,29.8c6.8,7.2,24.7,10.2,39.6,9.8c14.9-0.4,31.5-6.4,31.5-6.4l7.2,0.9c0,0-3.6,3.6-11.7,7
		C69.9,366,63.5,366.6,63.5,366.6z"/>
	<polygon fill="#AAA124" points="63.8,240 52.9,290.9 47.8,302.8 65.4,323.3 	"/>
	<path fill="#FFFFFF" d="M184.1,289.5c0,0-11.2,5.3-18.8,9.6c-31.5,0-67-2.8-102.9-11.4l1.5-18.2c68.5,17.2,136.1,10.6,172.3,5.6
		l4,18.9c-3.2,0.3-9.6,1.2-16.5,1.9L184.1,289.5z"/>
	<path fill="#FFFFFF" d="M230.2,297.1l15.7,3c0,0,19.1,17.5,22.9,33c3.9,15.5,1.8,31,1.8,31h-16c0,0,3.9-21-1.8-38.8
		C245,300.3,230.2,297.1,230.2,297.1z"/>
	<path fill="#FFFFFF" d="M242.2,297.1c0,0,13.6,5.8,32.9,6.8c12.6,0.6,31.9-2.4,31.9-2.4l-3.9-16.9c0,0-15.9,4.8-32.4,2.9
		c-16.4-1.9-32.4-8.4-32.4-8.4L242.2,297.1z"/>
	<path fill="#FFFFFF" d="M3.3,280.5c0,0,18.8,8.2,27.7,9.4c9,1.3,29.4,0.6,29.4,0.6l1.9-15.3c0,0-16.6,0.6-30.7-1.9
		C17.7,270.7,7.4,265,7.4,265S3.1,276.1,3.3,280.5z"/>
	<path fill="#FFFFFF" d="M0.4,326.3c0,0,0.3,9.9,1.9,17.1c1.7,7.6,5.6,14,5.6,14s0.1-22.7,7.8-36.8c7.7-14.1,30-22.4,30-22.4
		s-14.1-5.6-30.7,5.1C2.8,311.3,0.4,326.3,0.4,326.3z M55.4,376.8l-0.9,17.9c77.2,19.4,153,11.9,191.8,5.6l-1-18.7
		C208.5,387.6,131.4,396.9,55.4,376.8z"/>
	<path fill="#002634" d="M143.7,237.6c-2.7,24.4-7.5,219.7-7.5,219.7s0,0.7,0,2.7H124c1.9-42,4.7-211.9,1.7-223.5
		c-3.2-12.1-19.8-65.5-27.5-75.8c-1.6-2.2-3.2-4.2-4.7-6.1c13-9.3,19.9-11.2,42.4-12.8c22.5-1.6,37.1-1.9,54.7,9.2
		c0,0.2-0.1,0.4-0.1,0.6C190.5,151.7,146.4,213.2,143.7,237.6z"/>
	<path fill="#AAA124" d="M201.3,292c0,0,6.9,1,12.6,1.6c3.7,0.4,13.4,1.1,20,1.5l-2.1-50.6l10.6,52.6l3.5,3c0,0-1.2-0.2-3-0.6l0,0.1
		l-8.3-1.7c-2.3-0.4-4.5-0.8-5.8-1.1C224.3,296.1,201.3,292,201.3,292z"/>
	<path fill="#AAA124" d="M167.1,326c0,0-0.6,9.8,1.3,12c1.9,2.2,3.6,2,5.1,2.1c1.5,0.1,7.4-5,8.5-7.4
		C183.1,330.3,170.1,324.7,167.1,326z"/>
	<g>
		<path fill="#E5AD83" d="M186.2,289.8c0,0-9.3-2.3-14-9.3c-4.7-7-12.4-21-18.7-24.1c-6.2-3.1-24-6.2-31-2.9
			c-7.5,3.5-15.8,6.5-21.1,12.5c-7.1,8-9.5,19-5.8,22.7c3.4,3.4,8.9-1.2,8.9-1.2s-5.2,6.2-1.2,8.2c4,2,5.1,0.5,5.9,1.6
			c1.5,2.1-0.8,2.1,1.4,3.8c2.2,1.7,4.9,1.7,9.6,1c4.7-0.8,14.1-4.5,17.3-0.6c3.1,3.9,5.4,14.1,14.4,19.5
			c12.9,7.8,31.1,4.7,31.1,4.7S194.8,302.2,186.2,289.8z"/>
		<path fill="#DBDBDB" d="M186.3,290.7c0,0,2.4,24.5-3.2,31.8c-3.3,4.3-2.5,4.1-2.5,4.1l-11.9-0.6c0,0-0.2,7.2,3.7,8.2
			c3.9,1,11.8-5.5,14.7-14.9C190,309.9,187.9,295.3,186.3,290.7z"/>
		<path fill="#FFFFFF" d="M183.7,288.9c0,0,4.2,15,1.2,25.7c-4.3,15.3-10.4,19.4-10.4,19.4l5.8,0.4c0,0,11.1-7.7,10.6-28.7
			c-0.3-13.7-4.7-15.9-4.7-15.9L183.7,288.9z"/>
	</g>
	<path fill="#DCDDE1" d="M54.5,394.7L54.5,394.7c2.7,0.7,5.5,1.4,8.2,2l0.5-17.9c-2.6-0.6-5.2-1.3-7.7-1.9L54.5,394.7z M0.1,325.3
		c0.2,8.3,1.1,16.3,2.8,22.4c2,8.1,4.9,9.6,5.2,9.9c0-1.1,0.1-3.5,0.3-6.7c-3.5-5.1-6.6-19.1-8.4-28.7C0,322.5,0,324.6,0.1,325.3z"
		/>
	<path fill="#F7323F" d="M124.9,252.7l18.7-22.9c4.7-0.4,3.4,3.8,3.4,3.8L132.7,252C130.8,252,127.8,252,124.9,252.7z"/>
	<path fill="#DACD10" d="M64.1,302.9l-18.3-4.7c0,0,3.8,7,3.8,11.8c0,4.8-6.4,14.7-1.3,29.1c5.1,14.4,21.4,20.8,27.5,20.8
		c6.1,0,12.1-5.4,13.1-8.3C89.9,348.7,64.1,302.9,64.1,302.9z"/>
	<path fill="#FFFFFF" d="M180,138.3c0,0-19.7,33.5-36,39c-26.4,9-43.5-33.9-43.5-33.9s-1.4,8.1,0.2,12.1c1.6,4,33,73.5,33,73.5
		s15.4-30.6,25.8-45.3C170,169.1,181,146,181,146L180,138.3z"/>
	<path fill="#E4E6E9" d="M153.8,192.5c0,0-8.7-6.9-13.4-12.4c-1.6-1.9-6.1-0.8-7-0.8c-0.8,0-4.5-1.3-6.2-0.2
		c-5.2,3.5-11.2,10.4-11.2,10.4l17.9,39.6L153.8,192.5z"/>
	<path fill="#00001D" d="M128.4,178.2l-3.1,2.8l3.6,10.2l-4.2,19.4l9.2,20.1l10-19.1l-6.1-19.6c0,0,4.9-8.3,4.5-10
		c-0.4-1.7-3.5-3.8-3.5-3.8S133.2,180,128.4,178.2z"/>
	<path fill="#1D2528" d="M138.7,190.6c0,0-2.6,1.3-5.3,1.1c-2.8-0.2-4.9-0.9-4.9-0.9l0.4,3.3c0,0,3.8,0,5.1,0c1.3,0,4-0.6,4-0.6
		L138.7,190.6z"/>
	<path fill="#BCBCBC" d="M153.8,192.5l-13.9-14c0,0-6.4,0.5-8.3,0.3c-1.9-0.2-5-1.1-5-1.1s-3.4,2.2-5.9,5.8
		c-2.6,3.5-4.8,6.1-4.8,6.1l1.2,2.7c0,0,8.9-11.1,10-12c1.1-1,4.5,0.2,6.1-0.2c1.6-0.3,5.8-0.5,5.8-0.5l13.6,15.5L153.8,192.5z"/>
	<path fill="#E5AD83" d="M190.4,46.3l-2.6,28c0,0,12-7.1,16.7,2.3c3.1,6.2,3.5,18.1-3.1,25.6c-6.6,7.6-11.3,4.3-11.3,4.3
		s0.8,6.5-3,16.5c-1.8,4.7-7.1,15.3-7.1,15.3s-25.3,44.6-46.4,40.3c-16.5-3.3-28.6-25.8-28.6-25.8c1.1,0.8-11.8-10.1-18.4-39.6
		c-4-18.1-3.9-46.1-3.9-46.1L190.4,46.3z"/>
	<path fill="#CC8D62" d="M171.9,148.8c0,0-15.3,14.1-34.1,17.8c-18.9,3.8-31.2-11-31.2-11s11.9,21.5,27.5,23
		C152.1,180.4,170,156.4,171.9,148.8z"/>
	<path fill="#745919" d="M191.2,56.6c0,0,4.2,15.1,3.4,15.3c-4.8,1.4-9.2,6.9-12.1,16.5c-2.9,9.2-0.8,19.6-3,18.7
		c-2.2-0.9-11.6-38.8-11.6-38.8L191.2,56.6z"/>
	<path fill="#CC8D62" d="M189.6,90.6c0,0,2.6-11.9,8.5-12.4c5.9-0.5,4.2,9.7,4.2,9.7s-0.1-6.5-3-7.5c-2.9-1-5.9,9.6-5.9,9.6
		s0.4-1.1,2.7-1.5c2.3-0.5,4.6,2.4,4.6,2.4s-3.6,0.1-6.1,1.6c-2.5,1.5-2.6,5.4-1.4,7.1c1.2,1.7,2.4,0.8,2.4,0.8s-1,2.9-4.3,1.2
		C188.1,99.8,188.8,95.8,189.6,90.6z"/>
	<path fill="#745919" d="M193.3,107.2c0,0,0.8,7-3.9,16.5c-2.4,4.8-6.8,9.4-6.8,9.4s4.2-11.3,5-16.2c0.4-3,1.6-10.2,1.6-10.2
		L193.3,107.2z"/>
	<path fill="#FFFFFF" d="M217.3,157.8c0,0-12,40.1-13.6,71.2c-1.1,22,3.2,52.6,3.2,52.6l-21.1,1.9c0,0-2.8-47.2-0.4-69.5
		c3.3-30.9,13.7-60.9,13.7-60.9L217.3,157.8z"/>
	<path fill="#FFFFFF" d="M73.7,159.8c0,0-5.5,57.8-4.3,75.7c1.3,17.9,6.4,50.5,6.4,50.5l18.5-2.6c0,0-8.3-37.9-6.4-79.3
		c1-21.1,2.6-48.6,2.6-48.6L73.7,159.8z"/>
	<g>
		<g>
			<path fill="#EFE8DC" d="M75.5,339.4l-25.9-71.5l2.9-2.9l52-4.8l19.5,64.7c0,0-23.7,16.8-32.4,16.8
				C82.9,341.7,75.5,339.4,75.5,339.4z"/>
			<path d="M74.8,342.9l-25.2-75l51.8-4.2l19.5,64.7c0,0-23.7,16.8-32.4,16.8C79.8,345.2,74.8,342.9,74.8,342.9z"/>
		</g>
		<g>
			<path fill="#E5AD83" d="M50,321.7c0,0,2.9-8.3,1.8-14.5c-0.8-4.9-7.3-18.1,1.3-15.8c8.6,2.3,17.1,25.7,17.1,25.7s6.2,3.9,16.3,0
				c10.1-3.9,23.3-16.3,28-10.1c4.7,6.2,7-0.8,11.7,4.7c1,1.2,1.4,3.5,2.4,4.3c3.8,3,5.6,3.4,3.4,9.6c-0.6,1.6-1.1,3.2-1.8,4.9
				c-0.2,2.6,0.1,5.8-3.8,11.1c-4.4,6.1-34.1,19.6-56.7,12.8C54.8,349.7,47.7,331.4,50,321.7z"/>
		</g>
	</g>
	<path fill="#CC8D62" d="M174,91.2c0,0-7.4,20.8-36.9,26.1c-21.9,3.9-38.5,0.4-50.8-5.6c-0.1-0.4-1.8-8.3-1.9-8.7
		c-2.2-9.8-2.2-12-2.1-21.6c33.9-0.2,88.4-2.8,88.4-2.8L174,91.2z"/>
	<path fill="#1A1A1A" d="M138.7,107.3c0,5.4,2.2,9.7,5,9.7c2.7,0,5-4.3,5-9.7c0-5.4-2.2-9.7-5-9.7C141,97.6,138.7,101.9,138.7,107.3
		z"/>
	<path fill="#1A1A1A" d="M99.6,109.1c0,5.4,2.2,9.7,5,9.7c2.7,0,5-4.3,5-9.7c0-5.4-2.2-9.7-5-9.7C101.8,99.4,99.6,103.7,99.6,109.1z
		"/>
	<path fill="#F47C5D" d="M110.8,126.4c1.1,11.9,7.1,15.9,14.1,15.3c7-0.6,5.9-7.1,4.9-18.9c-1.1-11.9-1.3-19.6-8.2-19
		S109.8,114.5,110.8,126.4z"/>
	<g>
		<path fill="#1A1A1A" d="M192.4,67.4l-11.7,4.7c0,0-9.9,30.5-41.3,37.1c-26.2,5.5-62.5,3.9-72.5-12.1C60.3,86.7,75,73,75,73
			l-1.7-17.9c0,0-33.6-20-15.3-37.5C71.8,4.3,124.5-6.9,174.7,5.2c36.6,8.8,40,21.5,34,32.8c-4.1,7.8-13.6,13.8-13.6,13.8
			L192.4,67.4z"/>
		<path fill="#004C67" d="M57.9,17.5C71.8,4.3,124.5-6.9,174.7,5.2c21.5,5.2,31.5,11.7,35,18.5c5.2,8.6-77.3,13.3-107.6,12.4
			c-25.5-0.7-38.8-4.9-49.5-8.7C52.9,24.1,54.5,20.8,57.9,17.5z"/>
		<path fill="#303030" d="M67.8,98.5l13.1-21l0.4-0.7l21.3,1.3l-20.4,29.8C76.1,105.7,71,102.6,67.8,98.5z"/>
		<path fill="#E8E8E8" d="M195.7,51.4c0,0-51.9,14.8-81.9,14.3C83.8,65.3,71.7,54,71.7,54l2.7,19c0,0,9,8.6,46.7,8.6
			c44.6,0,73.4-14.5,73.4-14.5L195.7,51.4z"/>
		<g>
			<path fill="#C2D2E0" d="M86.8,53.9c-1.5,7.4,5,15,14.6,17c9.6,2,18.6-2.4,20.1-9.8c1.5-7.4-5-15-14.6-17
				C97.3,42.1,88.3,46.5,86.8,53.9z"/>
			<path fill="#FF931E" d="M94.2,55.6l-4-3.6l4.6,0c1-1.9,3-3.2,5.5-3.4l1.5-3.3l2.4,3.8c2.7,0.9,5.1,2.7,6.6,4.9l4.8,1.2l-3.2,2.7
				c0,0,0,0.1,0,0.1c0.3,2-0.3,3.8-1.5,5.1l1.6,5l-5.4-3.1c-0.8,0.1-1.8,0.2-2.7,0c-1-0.1-1.9-0.4-2.8-0.8l-4.8,1.8l0.3-4.8
				C95.5,59.7,94.4,57.8,94.2,55.6C94.2,55.7,94.2,55.7,94.2,55.6z"/>
		</g>
	</g>
	<path fill="#DCDDE1" d="M271.1,358l-15.7-0.8l-0.8,6.4c0,0,3,0.1,5.8,0.1c2.8,0.1,10.1-0.2,10.1-0.2L271.1,358z"/>
	<path fill="#7F8A86" d="M104.5,260.2c0,0-8,1.6-6.2,15.8c3.9,30-1.1,60.1-1.1,60.1H45.8c0,0,6.3-16.9,3.6-42.6
		c-3.3-15.8-1.6-27.1,3.1-28.5L104.5,260.2z"/>
	<path fill="#AAA124" d="M239.2,460l-4.7-91.4l10.1-5.9c0,0,3.4,68.3,4.6,97.3H239.2z"/>
	<path fill="#DCDDE1" d="M235.3,383.1c3.6-0.5,7-1.1,10-1.6l1,18.7c-3.1,0.5-6.5,1-10.1,1.5L235.3,383.1z"/>
	<line fill="#7F8A86" x1="51.6" y1="265" x2="103.6" y2="260.2"/>
</g>
</svg>
